<svg width="1063" height="848" viewBox="0 0 1063 848" fill="none" xmlns="http://www.w3.org/2000/svg">
<rect width="1063" height="848" fill="black"/>
<path d="M23.6 80H35.6C44.72 80 49.72 74.16 49.72 65.32C49.72 56.2 44.36 50.24 36 50.24H23.6V80ZM30.44 74.24V56H35.2C40.2 56 42.76 59.68 42.76 65.32C42.76 71 40.24 74.24 35.08 74.24H30.44ZM63.2419 80.64C68.7219 80.64 72.2019 77.76 73.2819 74H67.2019C66.5219 75.32 65.2819 76.08 63.3219 76.08C60.2819 76.08 58.5619 74.16 58.1619 70.96H73.6819C73.7219 66.76 72.6419 63.16 70.2419 60.84C68.3619 59.12 65.9619 58.12 62.9219 58.12C56.4419 58.12 52.0019 63 52.0019 69.4C52.0019 75.76 56.2819 80.64 63.2419 80.64ZM62.9219 62.56C65.4019 62.56 67.0819 64.36 67.2819 67.32H58.2019C58.6019 64.4 60.0419 62.56 62.9219 62.56ZM85.67 80.68C91.19 80.68 95.27 78.28 95.27 73.68C95.27 68.32 90.95 67.32 87.15 66.64C84.23 66.12 81.91 65.88 81.91 64.28C81.91 62.92 83.15 62.12 85.07 62.12C87.07 62.12 88.27 62.88 88.67 64.4H94.51C93.95 60.68 90.99 58.12 85.07 58.12C80.07 58.12 76.11 60.4 76.11 64.76C76.11 69.72 79.95 70.68 83.75 71.4C86.71 71.96 89.23 72.2 89.23 74.12C89.23 75.64 87.95 76.56 85.71 76.56C83.27 76.56 81.75 75.44 81.39 73.44H75.47C75.79 77.72 79.51 80.68 85.67 80.68ZM107.428 80.68C112.948 80.68 117.028 78.28 117.028 73.68C117.028 68.32 112.708 67.32 108.908 66.64C105.988 66.12 103.668 65.88 103.668 64.28C103.668 62.92 104.908 62.12 106.828 62.12C108.828 62.12 110.028 62.88 110.428 64.4H116.268C115.708 60.68 112.748 58.12 106.828 58.12C101.828 58.12 97.8678 60.4 97.8678 64.76C97.8678 69.72 101.708 70.68 105.508 71.4C108.468 71.96 110.988 72.2 110.988 74.12C110.988 75.64 109.708 76.56 107.468 76.56C105.028 76.56 103.508 75.44 103.148 73.44H97.2278C97.5478 77.72 101.268 80.68 107.428 80.68ZM133.79 80H139.91V79.64C139.35 79.28 139.11 78.36 139.11 76.68V65.76C139.11 62.88 138.07 60.68 135.87 59.4C134.39 58.52 132.47 58.12 129.75 58.12C123.43 58.12 120.47 61.52 120.31 65.16H126.11C126.27 63.48 127.43 62.36 129.83 62.36C131.99 62.36 132.99 63.4 132.99 64.92C132.99 66.52 131.43 67.12 127.63 67.64C122.99 68.2 119.27 69.4 119.27 74.12C119.27 78.32 122.35 80.56 126.55 80.56C129.83 80.56 131.59 79.36 132.99 77.4H133.07C133.19 78.6 133.47 79.52 133.79 80ZM128.51 76.44C126.79 76.44 125.39 75.76 125.39 73.92C125.39 72.08 126.71 71.4 129.47 70.8C130.87 70.48 132.23 70.16 133.15 69.6V72.36C133.15 74.68 131.31 76.44 128.51 76.44ZM163.153 80V58.72H156.953V70.76C156.953 73.4 155.393 75.32 152.873 75.32C150.633 75.32 149.473 73.96 149.473 71.6V58.72H143.193V72.8C143.193 77.48 145.833 80.6 150.673 80.6C153.593 80.6 155.513 79.44 157.073 76.96H157.193V80H163.153ZM189.067 80.72C195.867 80.72 201.067 77.28 201.067 71.12C201.067 64.84 196.147 63.08 190.787 61.88C186.107 60.84 183.547 60.32 183.547 58C183.547 56.12 185.427 54.92 188.227 54.92C191.187 54.92 193.027 56.28 193.387 58.6H200.067C199.627 52.76 194.987 49.72 188.427 49.72C181.867 49.72 176.827 52.52 176.827 58.68C176.827 64.88 181.547 66.32 187.347 67.64C191.667 68.64 194.187 69.2 194.187 71.8C194.187 74.24 191.707 75.28 189.067 75.28C185.227 75.28 183.107 73.84 182.747 70.6H175.867C176.067 77.04 181.107 80.72 189.067 80.72ZM224.364 80V58.72H218.164V70.76C218.164 73.4 216.604 75.32 214.084 75.32C211.844 75.32 210.684 73.96 210.684 71.6V58.72H204.404V72.8C204.404 77.48 207.044 80.6 211.884 80.6C214.804 80.6 216.724 79.44 218.284 76.96H218.404V80H224.364ZM228.51 80H234.79V67.88C234.79 65.16 236.27 63.28 238.47 63.28C240.55 63.28 241.59 64.68 241.59 67V80H247.87V67.88C247.87 65.16 249.27 63.28 251.51 63.28C253.55 63.28 254.67 64.68 254.67 67V80H260.91V65.96C260.91 61.24 258.47 58.12 253.75 58.12C251.07 58.12 248.75 59.32 246.99 62.16H246.91C245.83 59.52 243.87 58.12 241.07 58.12C238.07 58.12 236.03 59.52 234.67 62.04H234.55V58.72H228.51V80ZM264.916 80H271.196V67.88C271.196 65.16 272.676 63.28 274.876 63.28C276.956 63.28 277.996 64.68 277.996 67V80H284.276V67.88C284.276 65.16 285.676 63.28 287.916 63.28C289.956 63.28 291.076 64.68 291.076 67V80H297.316V65.96C297.316 61.24 294.876 58.12 290.156 58.12C287.476 58.12 285.156 59.32 283.396 62.16H283.316C282.236 59.52 280.276 58.12 277.476 58.12C274.476 58.12 272.436 59.52 271.076 62.04H270.956V58.72H264.916V80ZM311.562 80.64C317.042 80.64 320.522 77.76 321.602 74H315.522C314.842 75.32 313.602 76.08 311.642 76.08C308.602 76.08 306.882 74.16 306.482 70.96H322.002C322.042 66.76 320.962 63.16 318.562 60.84C316.682 59.12 314.282 58.12 311.242 58.12C304.762 58.12 300.322 63 300.322 69.4C300.322 75.76 304.602 80.64 311.562 80.64ZM311.242 62.56C313.722 62.56 315.402 64.36 315.602 67.32H306.522C306.922 64.4 308.362 62.56 311.242 62.56ZM331.19 58.72H325.15V80H331.43V70.12C331.43 65.96 333.67 63.84 337.07 63.88C337.51 63.88 337.95 63.92 338.39 64H338.55V58.52C338.27 58.4 337.83 58.36 337.23 58.36C334.59 58.36 332.67 59.56 331.31 62.52H331.19V58.72ZM363.325 80.72C370.125 80.72 375.325 77.28 375.325 71.12C375.325 64.84 370.405 63.08 365.045 61.88C360.365 60.84 357.805 60.32 357.805 58C357.805 56.12 359.685 54.92 362.485 54.92C365.445 54.92 367.285 56.28 367.645 58.6H374.325C373.885 52.76 369.245 49.72 362.685 49.72C356.125 49.72 351.085 52.52 351.085 58.68C351.085 64.88 355.805 66.32 361.605 67.64C365.925 68.64 368.445 69.2 368.445 71.8C368.445 74.24 365.965 75.28 363.325 75.28C359.485 75.28 357.365 73.84 357.005 70.6H350.125C350.325 77.04 355.365 80.72 363.325 80.72ZM389.218 80.68C395.138 80.68 398.977 76.92 399.178 72.08H393.138C392.858 74.52 391.458 75.92 389.138 75.92C385.978 75.92 384.378 73.28 384.378 69.4C384.378 65.4 385.978 62.8 389.138 62.8C391.218 62.8 392.498 64.04 392.938 66H399.018C398.258 61.36 394.738 58.12 389.058 58.12C382.378 58.12 378.018 63 378.018 69.4C378.018 75.76 382.418 80.68 389.218 80.68ZM408.383 58.44V50.24H402.103V80H408.383V68C408.383 65.28 410.023 63.32 412.463 63.32C414.783 63.32 416.023 64.88 416.023 67.2V80H422.263V66C422.263 61.24 419.543 58.12 414.863 58.12C411.903 58.12 409.743 59.48 408.463 61.76H408.343C408.383 60.36 408.383 58.64 408.383 58.44ZM436.524 80.68C443.284 80.68 447.724 75.76 447.724 69.4C447.724 63 443.284 58.12 436.524 58.12C429.724 58.12 425.244 63 425.244 69.4C425.244 75.76 429.724 80.68 436.524 80.68ZM436.484 76.12C433.284 76.12 431.604 73.4 431.604 69.4C431.604 65.36 433.284 62.6 436.484 62.6C439.604 62.6 441.364 65.36 441.364 69.4C441.364 73.4 439.604 76.12 436.484 76.12ZM461.173 80.68C467.933 80.68 472.373 75.76 472.373 69.4C472.373 63 467.933 58.12 461.173 58.12C454.373 58.12 449.893 63 449.893 69.4C449.893 75.76 454.373 80.68 461.173 80.68ZM461.133 76.12C457.933 76.12 456.253 73.4 456.253 69.4C456.253 65.36 457.933 62.6 461.133 62.6C464.253 62.6 466.013 65.36 466.013 69.4C466.013 73.4 464.253 76.12 461.133 76.12ZM475.621 80H481.941V50.24H475.621V80ZM506.055 80.68C512.815 80.68 517.255 75.76 517.255 69.4C517.255 63 512.815 58.12 506.055 58.12C499.255 58.12 494.775 63 494.775 69.4C494.775 75.76 499.255 80.68 506.055 80.68ZM506.015 76.12C502.815 76.12 501.135 73.4 501.135 69.4C501.135 65.36 502.815 62.6 506.015 62.6C509.135 62.6 510.895 65.36 510.895 69.4C510.895 73.4 509.135 76.12 506.015 76.12ZM518.753 62.8H521.953V80H528.233V62.8H532.673V58.72H528.233V57.36C528.233 54.96 529.513 54.76 532.673 54.88V50.4C531.793 50.28 530.913 50.24 530.073 50.24C527.353 50.2 525.153 50.68 523.753 51.92C522.513 53.04 521.953 54.64 521.953 56.92V58.72H518.753V62.8ZM543.783 80H550.623L552.463 74.32H563.263L565.143 80H572.343L561.583 50.24H554.503L543.783 80ZM555.903 63.88C556.863 60.96 557.903 55.96 557.903 55.96H557.983C557.983 55.96 558.623 59.8 559.903 63.88L561.703 69.44H554.063L555.903 63.88ZM580.956 58.72H574.916V80H581.196V70.12C581.196 65.96 583.436 63.84 586.836 63.88C587.276 63.88 587.716 63.92 588.156 64H588.316V58.52C588.036 58.4 587.596 58.36 586.996 58.36C584.356 58.36 582.436 59.56 581.076 62.52H580.956V58.72ZM601.132 80.68C607.052 80.68 610.892 76.92 611.092 72.08H605.052C604.772 74.52 603.372 75.92 601.052 75.92C597.892 75.92 596.292 73.28 596.292 69.4C596.292 65.4 597.892 62.8 601.052 62.8C603.132 62.8 604.412 64.04 604.852 66H610.932C610.172 61.36 606.652 58.12 600.972 58.12C594.292 58.12 589.932 63 589.932 69.4C589.932 75.76 594.332 80.68 601.132 80.68ZM620.298 58.44V50.24H614.018V80H620.298V68C620.298 65.28 621.938 63.32 624.378 63.32C626.698 63.32 627.938 64.88 627.938 67.2V80H634.178V66C634.178 61.24 631.458 58.12 626.778 58.12C623.818 58.12 621.658 59.48 620.378 61.76H620.258C620.298 60.36 620.298 58.64 620.298 58.44ZM638.118 55.72H644.478V50.24H638.118V55.72ZM638.158 80H644.438V58.72H638.158V80ZM647.348 62.72H650.548V74.64C650.548 78.96 653.228 80.24 657.188 80.24C658.868 80.24 660.148 80.04 660.828 79.92V75.24H660.508C660.108 75.28 659.468 75.32 659.068 75.32C657.588 75.32 656.708 74.88 656.708 73.28V62.72H660.868V58.72H656.708V51.92H650.548V58.72H647.348V62.72ZM674.375 80.64C679.855 80.64 683.335 77.76 684.415 74H678.335C677.655 75.32 676.415 76.08 674.455 76.08C671.415 76.08 669.695 74.16 669.295 70.96H684.815C684.855 66.76 683.775 63.16 681.375 60.84C679.495 59.12 677.095 58.12 674.055 58.12C667.575 58.12 663.135 63 663.135 69.4C663.135 75.76 667.415 80.64 674.375 80.64ZM674.055 62.56C676.535 62.56 678.215 64.36 678.415 67.32H669.335C669.735 64.4 671.175 62.56 674.055 62.56ZM698.163 80.68C704.083 80.68 707.923 76.92 708.123 72.08H702.083C701.803 74.52 700.403 75.92 698.083 75.92C694.923 75.92 693.323 73.28 693.323 69.4C693.323 65.4 694.923 62.8 698.083 62.8C700.163 62.8 701.443 64.04 701.883 66H707.963C707.203 61.36 703.683 58.12 698.003 58.12C691.323 58.12 686.963 63 686.963 69.4C686.963 75.76 691.363 80.68 698.163 80.68ZM709.809 62.72H713.009V74.64C713.009 78.96 715.689 80.24 719.649 80.24C721.329 80.24 722.609 80.04 723.289 79.92V75.24H722.969C722.569 75.28 721.929 75.32 721.529 75.32C720.049 75.32 719.169 74.88 719.169 73.28V62.72H723.329V58.72H719.169V51.92H713.009V58.72H709.809V62.72ZM746.396 80V58.72H740.196V70.76C740.196 73.4 738.636 75.32 736.116 75.32C733.876 75.32 732.716 73.96 732.716 71.6V58.72H726.436V72.8C726.436 77.48 729.076 80.6 733.916 80.6C736.836 80.6 738.756 79.44 740.316 76.96H740.436V80H746.396ZM756.581 58.72H750.541V80H756.821V70.12C756.821 65.96 759.061 63.84 762.461 63.88C762.901 63.88 763.341 63.92 763.781 64H763.941V58.52C763.661 58.4 763.221 58.36 762.621 58.36C759.981 58.36 758.061 59.56 756.701 62.52H756.581V58.72ZM776.797 80.64C782.277 80.64 785.757 77.76 786.837 74H780.757C780.077 75.32 778.837 76.08 776.877 76.08C773.837 76.08 772.117 74.16 771.717 70.96H787.237C787.277 66.76 786.197 63.16 783.797 60.84C781.917 59.12 779.517 58.12 776.477 58.12C769.997 58.12 765.557 63 765.557 69.4C765.557 75.76 769.837 80.64 776.797 80.64ZM776.477 62.56C778.957 62.56 780.637 64.36 780.837 67.32H771.757C772.157 64.4 773.597 62.56 776.477 62.56Z" fill="white"/>
<path d="M30.1504 31.5664H25.0234L24.125 33.6562C23.9036 34.1706 23.793 34.5547 23.793 34.8086C23.793 35.0104 23.8874 35.1895 24.0762 35.3457C24.2715 35.4954 24.6882 35.5931 25.3262 35.6387V36H21.1562V35.6387C21.7096 35.541 22.0677 35.4141 22.2305 35.2578C22.5625 34.9453 22.9303 34.3105 23.334 33.3535L27.9922 22.4551H28.334L32.9434 33.4707C33.3145 34.3561 33.6497 34.9323 33.9492 35.1992C34.2552 35.4596 34.6784 35.6061 35.2188 35.6387V36H29.9941V35.6387C30.5215 35.6126 30.8763 35.5247 31.0586 35.375C31.2474 35.2253 31.3418 35.043 31.3418 34.8281C31.3418 34.5417 31.2116 34.0892 30.9512 33.4707L30.1504 31.5664ZM29.877 30.8438L27.6309 25.4922L25.3262 30.8438H29.877ZM38.6855 28.6855C39.7337 27.4225 40.7331 26.791 41.6836 26.791C42.1719 26.791 42.5918 26.9147 42.9434 27.1621C43.2949 27.403 43.5749 27.8034 43.7832 28.3633C43.9264 28.7539 43.998 29.3529 43.998 30.1602V33.9785C43.998 34.5449 44.0436 34.929 44.1348 35.1309C44.2064 35.2936 44.3203 35.4206 44.4766 35.5117C44.6393 35.6029 44.9355 35.6484 45.3652 35.6484V36H40.9414V35.6484H41.127C41.5436 35.6484 41.8333 35.5866 41.9961 35.4629C42.1654 35.3327 42.2826 35.1439 42.3477 34.8965C42.3737 34.7988 42.3867 34.4928 42.3867 33.9785V30.3164C42.3867 29.5026 42.2793 28.9134 42.0645 28.5488C41.8561 28.1777 41.5013 27.9922 41 27.9922C40.2253 27.9922 39.4538 28.4154 38.6855 29.2617V33.9785C38.6855 34.584 38.7214 34.9583 38.793 35.1016C38.8841 35.2904 39.0078 35.4303 39.1641 35.5215C39.3268 35.6061 39.6523 35.6484 40.1406 35.6484V36H35.7168V35.6484H35.9121C36.3678 35.6484 36.6738 35.5345 36.8301 35.3066C36.9928 35.0723 37.0742 34.6296 37.0742 33.9785V30.6582C37.0742 29.584 37.0482 28.9297 36.9961 28.6953C36.9505 28.4609 36.8757 28.3014 36.7715 28.2168C36.6738 28.1322 36.5404 28.0898 36.3711 28.0898C36.1888 28.0898 35.9707 28.1387 35.7168 28.2363L35.5703 27.8848L38.2656 26.791H38.6855V28.6855ZM48.7051 22.1133V28.6562C49.4277 27.862 50.0007 27.3542 50.4238 27.1328C50.847 26.9049 51.2702 26.791 51.6934 26.791C52.2012 26.791 52.6374 26.931 53.002 27.2109C53.3665 27.4909 53.6367 27.9303 53.8125 28.5293C53.9362 28.946 53.998 29.7077 53.998 30.8145V33.9785C53.998 34.5449 54.0436 34.9323 54.1348 35.1406C54.1999 35.2969 54.3105 35.4206 54.4668 35.5117C54.623 35.6029 54.9095 35.6484 55.3262 35.6484V36H50.9316V35.6484H51.1367C51.5534 35.6484 51.8431 35.5866 52.0059 35.4629C52.1686 35.3327 52.2826 35.1439 52.3477 34.8965C52.3672 34.7923 52.377 34.4863 52.377 33.9785V30.8145C52.377 29.8379 52.3249 29.1966 52.2207 28.8906C52.123 28.5846 51.9635 28.3568 51.7422 28.207C51.5208 28.0508 51.2539 27.9727 50.9414 27.9727C50.6224 27.9727 50.2904 28.0573 49.9453 28.2266C49.6003 28.3958 49.1868 28.7376 48.7051 29.252V33.9785C48.7051 34.5905 48.7376 34.9714 48.8027 35.1211C48.8743 35.2708 49.0013 35.3978 49.1836 35.502C49.3724 35.5996 49.6947 35.6484 50.1504 35.6484V36H45.7168V35.6484C46.1139 35.6484 46.4264 35.5866 46.6543 35.4629C46.7845 35.3978 46.8887 35.2741 46.9668 35.0918C47.0449 34.9095 47.084 34.5384 47.084 33.9785V25.8828C47.084 24.8607 47.0579 24.2324 47.0059 23.998C46.9603 23.7637 46.8854 23.6042 46.7812 23.5195C46.6836 23.4349 46.5501 23.3926 46.3809 23.3926C46.2441 23.3926 46.0228 23.4447 45.7168 23.5488L45.5801 23.207L48.2559 22.1133H48.7051ZM61.1465 34.7109C60.2285 35.4206 59.6523 35.8307 59.418 35.9414C59.0664 36.1042 58.6921 36.1855 58.2949 36.1855C57.6764 36.1855 57.1654 35.974 56.7617 35.5508C56.3646 35.1276 56.166 34.571 56.166 33.8809C56.166 33.4447 56.2637 33.0671 56.459 32.748C56.7259 32.3053 57.1882 31.8887 57.8457 31.498C58.5098 31.1074 59.61 30.6322 61.1465 30.0723V29.7207C61.1465 28.8288 61.0033 28.2168 60.7168 27.8848C60.4368 27.5527 60.0267 27.3867 59.4863 27.3867C59.0762 27.3867 58.7507 27.4974 58.5098 27.7188C58.2624 27.9401 58.1387 28.194 58.1387 28.4805L58.1582 29.0469C58.1582 29.3464 58.0801 29.5775 57.9238 29.7402C57.7741 29.903 57.5755 29.9844 57.3281 29.9844C57.0872 29.9844 56.8887 29.8997 56.7324 29.7305C56.5827 29.5612 56.5078 29.3301 56.5078 29.0371C56.5078 28.4772 56.7943 27.9629 57.3672 27.4941C57.9401 27.0254 58.7441 26.791 59.7793 26.791C60.5736 26.791 61.2246 26.9245 61.7324 27.1914C62.1165 27.3932 62.3997 27.709 62.582 28.1387C62.6992 28.4186 62.7578 28.9915 62.7578 29.8574V32.8945C62.7578 33.7474 62.7741 34.2715 62.8066 34.4668C62.8392 34.6556 62.8913 34.7826 62.9629 34.8477C63.041 34.9128 63.1289 34.9453 63.2266 34.9453C63.3307 34.9453 63.4219 34.9225 63.5 34.877C63.6367 34.7923 63.9004 34.5547 64.291 34.1641V34.7109C63.5618 35.6875 62.8652 36.1758 62.2012 36.1758C61.8822 36.1758 61.6283 36.0651 61.4395 35.8438C61.2507 35.6224 61.153 35.2448 61.1465 34.7109ZM61.1465 34.0762V30.668C60.1634 31.0586 59.5286 31.3353 59.2422 31.498C58.7279 31.7845 58.36 32.084 58.1387 32.3965C57.9173 32.709 57.8066 33.0508 57.8066 33.4219C57.8066 33.8906 57.9466 34.2812 58.2266 34.5938C58.5065 34.8997 58.8288 35.0527 59.1934 35.0527C59.6882 35.0527 60.3392 34.7272 61.1465 34.0762ZM68.041 22.1133V33.9785C68.041 34.5384 68.0801 34.9095 68.1582 35.0918C68.2428 35.2741 68.3698 35.4141 68.5391 35.5117C68.7083 35.6029 69.0241 35.6484 69.4863 35.6484V36H65.1016V35.6484C65.5117 35.6484 65.7917 35.6061 65.9414 35.5215C66.0911 35.4368 66.2083 35.2969 66.293 35.1016C66.3776 34.9062 66.4199 34.5319 66.4199 33.9785V25.8535C66.4199 24.8444 66.3971 24.2259 66.3516 23.998C66.306 23.7637 66.2311 23.6042 66.127 23.5195C66.0293 23.4349 65.9023 23.3926 65.7461 23.3926C65.5768 23.3926 65.362 23.4447 65.1016 23.5488L64.9355 23.207L67.6016 22.1133H68.041ZM73.1289 24.1152V27.0547H75.2188V27.7383H73.1289V33.5391C73.1289 34.1185 73.2103 34.5091 73.373 34.7109C73.5423 34.9128 73.7572 35.0137 74.0176 35.0137C74.2324 35.0137 74.4408 34.9486 74.6426 34.8184C74.8444 34.6816 75.0007 34.4831 75.1113 34.2227H75.4922C75.2643 34.8607 74.9421 35.3424 74.5254 35.668C74.1087 35.987 73.679 36.1465 73.2363 36.1465C72.9368 36.1465 72.6439 36.0651 72.3574 35.9023C72.071 35.7331 71.8594 35.4954 71.7227 35.1895C71.5859 34.877 71.5176 34.3984 71.5176 33.7539V27.7383H70.1016V27.416C70.4596 27.2728 70.8242 27.0319 71.1953 26.6934C71.5729 26.3483 71.9082 25.9414 72.2012 25.4727C72.3509 25.2253 72.5592 24.7728 72.8262 24.1152H73.1289ZM90.0137 23.1191V22.7578H94.7012V23.1191H94.2031C93.6823 23.1191 93.2819 23.3372 93.002 23.7734C92.8652 23.9753 92.7969 24.444 92.7969 25.1797V30.5508C92.7969 31.8789 92.6634 32.9108 92.3965 33.6465C92.1361 34.3757 91.6185 35.0039 90.8438 35.5312C90.0755 36.0521 89.0273 36.3125 87.6992 36.3125C86.2539 36.3125 85.1569 36.0618 84.4082 35.5605C83.6595 35.0592 83.1289 34.3854 82.8164 33.5391C82.6081 32.9596 82.5039 31.8724 82.5039 30.2773V25.1016C82.5039 24.2878 82.39 23.7539 82.1621 23.5C81.9408 23.2461 81.5794 23.1191 81.0781 23.1191H80.5801V22.7578H86.3027V23.1191H85.7949C85.248 23.1191 84.8574 23.2917 84.623 23.6367C84.4603 23.8711 84.3789 24.3594 84.3789 25.1016V30.873C84.3789 31.3874 84.4245 31.9766 84.5156 32.6406C84.6133 33.3047 84.7858 33.8223 85.0332 34.1934C85.2806 34.5645 85.6354 34.8704 86.0977 35.1113C86.5664 35.3522 87.1393 35.4727 87.8164 35.4727C88.6823 35.4727 89.457 35.2839 90.1406 34.9062C90.8242 34.5286 91.2897 34.0469 91.5371 33.4609C91.791 32.8685 91.918 31.8691 91.918 30.4629V25.1016C91.918 24.2747 91.8268 23.7572 91.6445 23.5488C91.3906 23.2624 91.013 23.1191 90.5117 23.1191H90.0137ZM98.1582 28.6855C99.2064 27.4225 100.206 26.791 101.156 26.791C101.645 26.791 102.064 26.9147 102.416 27.1621C102.768 27.403 103.048 27.8034 103.256 28.3633C103.399 28.7539 103.471 29.3529 103.471 30.1602V33.9785C103.471 34.5449 103.516 34.929 103.607 35.1309C103.679 35.2936 103.793 35.4206 103.949 35.5117C104.112 35.6029 104.408 35.6484 104.838 35.6484V36H100.414V35.6484H100.6C101.016 35.6484 101.306 35.5866 101.469 35.4629C101.638 35.3327 101.755 35.1439 101.82 34.8965C101.846 34.7988 101.859 34.4928 101.859 33.9785V30.3164C101.859 29.5026 101.752 28.9134 101.537 28.5488C101.329 28.1777 100.974 27.9922 100.473 27.9922C99.6979 27.9922 98.9264 28.4154 98.1582 29.2617V33.9785C98.1582 34.584 98.194 34.9583 98.2656 35.1016C98.3568 35.2904 98.4805 35.4303 98.6367 35.5215C98.7995 35.6061 99.125 35.6484 99.6133 35.6484V36H95.1895V35.6484H95.3848C95.8405 35.6484 96.1465 35.5345 96.3027 35.3066C96.4655 35.0723 96.5469 34.6296 96.5469 33.9785V30.6582C96.5469 29.584 96.5208 28.9297 96.4688 28.6953C96.4232 28.4609 96.3483 28.3014 96.2441 28.2168C96.1465 28.1322 96.013 28.0898 95.8438 28.0898C95.6615 28.0898 95.4434 28.1387 95.1895 28.2363L95.043 27.8848L97.7383 26.791H98.1582V28.6855ZM107.826 22.1133C108.1 22.1133 108.331 22.2109 108.52 22.4062C108.715 22.5951 108.812 22.8262 108.812 23.0996C108.812 23.373 108.715 23.6074 108.52 23.8027C108.331 23.998 108.1 24.0957 107.826 24.0957C107.553 24.0957 107.318 23.998 107.123 23.8027C106.928 23.6074 106.83 23.373 106.83 23.0996C106.83 22.8262 106.924 22.5951 107.113 22.4062C107.309 22.2109 107.546 22.1133 107.826 22.1133ZM108.637 26.791V33.9785C108.637 34.5384 108.676 34.9128 108.754 35.1016C108.839 35.2839 108.959 35.4206 109.115 35.5117C109.278 35.6029 109.571 35.6484 109.994 35.6484V36H105.648V35.6484C106.085 35.6484 106.378 35.6061 106.527 35.5215C106.677 35.4368 106.794 35.2969 106.879 35.1016C106.97 34.9062 107.016 34.5319 107.016 33.9785V30.5312C107.016 29.5612 106.986 28.9329 106.928 28.6465C106.882 28.4382 106.811 28.2949 106.713 28.2168C106.615 28.1322 106.482 28.0898 106.312 28.0898C106.13 28.0898 105.909 28.1387 105.648 28.2363L105.512 27.8848L108.207 26.791H108.637ZM110.658 27.0547H114.867V27.416H114.594C114.34 27.416 114.145 27.4779 114.008 27.6016C113.878 27.7253 113.812 27.8913 113.812 28.0996C113.812 28.3275 113.881 28.5977 114.018 28.9102L116.098 33.8516L118.188 28.7246C118.337 28.36 118.412 28.0833 118.412 27.8945C118.412 27.8034 118.386 27.7285 118.334 27.6699C118.262 27.5723 118.171 27.5072 118.061 27.4746C117.95 27.4355 117.725 27.416 117.387 27.416V27.0547H120.307V27.416C119.968 27.4421 119.734 27.5104 119.604 27.6211C119.376 27.8164 119.171 28.1419 118.988 28.5977L115.814 36.2734H115.414L112.221 28.7246C112.077 28.373 111.941 28.1224 111.811 27.9727C111.68 27.8164 111.514 27.6862 111.312 27.582C111.202 27.5234 110.984 27.4681 110.658 27.416V27.0547ZM122.621 30.4238C122.615 31.752 122.937 32.7936 123.588 33.5488C124.239 34.304 125.004 34.6816 125.883 34.6816C126.469 34.6816 126.977 34.5221 127.406 34.2031C127.842 33.8776 128.207 33.3242 128.5 32.543L128.803 32.7383C128.666 33.6302 128.269 34.444 127.611 35.1797C126.954 35.9089 126.13 36.2734 125.141 36.2734C124.066 36.2734 123.145 35.8568 122.377 35.0234C121.615 34.1836 121.234 33.0573 121.234 31.6445C121.234 30.1146 121.625 28.9232 122.406 28.0703C123.194 27.2109 124.18 26.7812 125.365 26.7812C126.368 26.7812 127.191 27.1133 127.836 27.7773C128.48 28.4349 128.803 29.3171 128.803 30.4238H122.621ZM122.621 29.8574H126.762C126.729 29.2845 126.661 28.8809 126.557 28.6465C126.394 28.2819 126.15 27.9954 125.824 27.7871C125.505 27.5788 125.17 27.4746 124.818 27.4746C124.278 27.4746 123.793 27.6862 123.363 28.1094C122.94 28.526 122.693 29.1087 122.621 29.8574ZM132.621 26.791V28.8027C133.37 27.4616 134.138 26.791 134.926 26.791C135.284 26.791 135.58 26.9017 135.814 27.123C136.049 27.3379 136.166 27.5885 136.166 27.875C136.166 28.1289 136.081 28.3438 135.912 28.5195C135.743 28.6953 135.541 28.7832 135.307 28.7832C135.079 28.7832 134.822 28.6725 134.535 28.4512C134.255 28.2233 134.047 28.1094 133.91 28.1094C133.793 28.1094 133.666 28.1745 133.529 28.3047C133.236 28.5716 132.934 29.0111 132.621 29.623V33.9102C132.621 34.4049 132.683 34.7793 132.807 35.0332C132.891 35.209 133.041 35.3555 133.256 35.4727C133.471 35.5898 133.78 35.6484 134.184 35.6484V36H129.604V35.6484C130.059 35.6484 130.398 35.5768 130.619 35.4336C130.782 35.3294 130.896 35.1634 130.961 34.9355C130.993 34.8249 131.01 34.5091 131.01 33.9883V30.5215C131.01 29.4798 130.987 28.8613 130.941 28.666C130.902 28.4642 130.824 28.3177 130.707 28.2266C130.596 28.1354 130.456 28.0898 130.287 28.0898C130.085 28.0898 129.857 28.1387 129.604 28.2363L129.506 27.8848L132.211 26.791H132.621ZM142.445 26.791V29.8379H142.123C141.876 28.8809 141.557 28.2298 141.166 27.8848C140.782 27.5397 140.29 27.3672 139.691 27.3672C139.236 27.3672 138.868 27.4876 138.588 27.7285C138.308 27.9694 138.168 28.2363 138.168 28.5293C138.168 28.8939 138.272 29.2064 138.48 29.4668C138.682 29.7337 139.092 30.0169 139.711 30.3164L141.137 31.0098C142.458 31.6543 143.119 32.5039 143.119 33.5586C143.119 34.3724 142.81 35.0299 142.191 35.5312C141.579 36.026 140.893 36.2734 140.131 36.2734C139.584 36.2734 138.959 36.1758 138.256 35.9805C138.041 35.9154 137.865 35.8828 137.729 35.8828C137.579 35.8828 137.462 35.9674 137.377 36.1367H137.055V32.9434H137.377C137.559 33.8548 137.908 34.5417 138.422 35.0039C138.936 35.4661 139.512 35.6973 140.15 35.6973C140.6 35.6973 140.964 35.5671 141.244 35.3066C141.531 35.0397 141.674 34.7207 141.674 34.3496C141.674 33.9004 141.514 33.5228 141.195 33.2168C140.883 32.9108 140.255 32.5234 139.311 32.0547C138.367 31.5859 137.748 31.1628 137.455 30.7852C137.162 30.4141 137.016 29.9453 137.016 29.3789C137.016 28.6432 137.266 28.028 137.768 27.5332C138.275 27.0384 138.93 26.791 139.73 26.791C140.082 26.791 140.508 26.8659 141.01 27.0156C141.342 27.1133 141.563 27.1621 141.674 27.1621C141.778 27.1621 141.859 27.1393 141.918 27.0938C141.977 27.0482 142.045 26.9473 142.123 26.791H142.445ZM146.732 22.1133C147.006 22.1133 147.237 22.2109 147.426 22.4062C147.621 22.5951 147.719 22.8262 147.719 23.0996C147.719 23.373 147.621 23.6074 147.426 23.8027C147.237 23.998 147.006 24.0957 146.732 24.0957C146.459 24.0957 146.225 23.998 146.029 23.8027C145.834 23.6074 145.736 23.373 145.736 23.0996C145.736 22.8262 145.831 22.5951 146.02 22.4062C146.215 22.2109 146.452 22.1133 146.732 22.1133ZM147.543 26.791V33.9785C147.543 34.5384 147.582 34.9128 147.66 35.1016C147.745 35.2839 147.865 35.4206 148.021 35.5117C148.184 35.6029 148.477 35.6484 148.9 35.6484V36H144.555V35.6484C144.991 35.6484 145.284 35.6061 145.434 35.5215C145.583 35.4368 145.701 35.2969 145.785 35.1016C145.876 34.9062 145.922 34.5319 145.922 33.9785V30.5312C145.922 29.5612 145.893 28.9329 145.834 28.6465C145.788 28.4382 145.717 28.2949 145.619 28.2168C145.521 28.1322 145.388 28.0898 145.219 28.0898C145.036 28.0898 144.815 28.1387 144.555 28.2363L144.418 27.8848L147.113 26.791H147.543ZM152.621 24.1152V27.0547H154.711V27.7383H152.621V33.5391C152.621 34.1185 152.702 34.5091 152.865 34.7109C153.035 34.9128 153.249 35.0137 153.51 35.0137C153.725 35.0137 153.933 34.9486 154.135 34.8184C154.337 34.6816 154.493 34.4831 154.604 34.2227H154.984C154.757 34.8607 154.434 35.3424 154.018 35.668C153.601 35.987 153.171 36.1465 152.729 36.1465C152.429 36.1465 152.136 36.0651 151.85 35.9023C151.563 35.7331 151.352 35.4954 151.215 35.1895C151.078 34.877 151.01 34.3984 151.01 33.7539V27.7383H149.594V27.416C149.952 27.2728 150.316 27.0319 150.688 26.6934C151.065 26.3483 151.4 25.9414 151.693 25.4727C151.843 25.2253 152.051 24.7728 152.318 24.1152H152.621ZM155.082 27.0547H159.252V27.416H159.047C158.754 27.416 158.533 27.4811 158.383 27.6113C158.24 27.735 158.168 27.8913 158.168 28.0801C158.168 28.334 158.275 28.6855 158.49 29.1348L160.668 33.6465L162.67 28.7051C162.781 28.4382 162.836 28.1745 162.836 27.9141C162.836 27.7969 162.813 27.709 162.768 27.6504C162.715 27.5788 162.634 27.5234 162.523 27.4844C162.413 27.4388 162.217 27.416 161.938 27.416V27.0547H164.848V27.416C164.607 27.4421 164.421 27.4941 164.291 27.5723C164.161 27.6504 164.018 27.7969 163.861 28.0117C163.803 28.1029 163.692 28.3535 163.529 28.7637L159.887 37.6895C159.535 38.5553 159.073 39.2096 158.5 39.6523C157.934 40.0951 157.387 40.3164 156.859 40.3164C156.475 40.3164 156.16 40.2057 155.912 39.9844C155.665 39.763 155.541 39.5091 155.541 39.2227C155.541 38.9492 155.629 38.7279 155.805 38.5586C155.987 38.3958 156.234 38.3145 156.547 38.3145C156.762 38.3145 157.055 38.3861 157.426 38.5293C157.686 38.627 157.849 38.6758 157.914 38.6758C158.109 38.6758 158.321 38.5749 158.549 38.373C158.783 38.1712 159.018 37.7806 159.252 37.2012L159.887 35.6484L156.674 28.9004C156.576 28.6986 156.42 28.4479 156.205 28.1484C156.042 27.9206 155.909 27.7676 155.805 27.6895C155.655 27.5853 155.414 27.4941 155.082 27.416V27.0547ZM174.965 26.791C176.319 26.791 177.406 27.3053 178.227 28.334C178.923 29.2129 179.271 30.222 179.271 31.3613C179.271 32.1621 179.079 32.9727 178.695 33.793C178.311 34.6133 177.781 35.2318 177.104 35.6484C176.433 36.0651 175.684 36.2734 174.857 36.2734C173.51 36.2734 172.439 35.7363 171.645 34.6621C170.974 33.7572 170.639 32.7415 170.639 31.6152C170.639 30.7949 170.84 29.9811 171.244 29.1738C171.654 28.36 172.191 27.7611 172.855 27.377C173.52 26.9863 174.223 26.791 174.965 26.791ZM174.662 27.4258C174.317 27.4258 173.969 27.5299 173.617 27.7383C173.272 27.9401 172.992 28.2982 172.777 28.8125C172.562 29.3268 172.455 29.9876 172.455 30.7949C172.455 32.097 172.712 33.2201 173.227 34.1641C173.747 35.1081 174.431 35.5801 175.277 35.5801C175.909 35.5801 176.43 35.3197 176.84 34.7988C177.25 34.278 177.455 33.3828 177.455 32.1133C177.455 30.5247 177.113 29.2747 176.43 28.3633C175.967 27.7383 175.378 27.4258 174.662 27.4258ZM184.086 27.7578V33.6367C184.086 34.4701 184.177 34.9974 184.359 35.2188C184.6 35.5052 184.923 35.6484 185.326 35.6484H186.137V36H180.795V35.6484H181.195C181.456 35.6484 181.693 35.5833 181.908 35.4531C182.123 35.3229 182.27 35.1471 182.348 34.9258C182.432 34.7044 182.475 34.2747 182.475 33.6367V27.7578H180.736V27.0547H182.475V26.4688C182.475 25.5768 182.618 24.8216 182.904 24.2031C183.191 23.5846 183.627 23.0866 184.213 22.709C184.805 22.3249 185.469 22.1328 186.205 22.1328C186.889 22.1328 187.517 22.3542 188.09 22.7969C188.467 23.0898 188.656 23.4186 188.656 23.7832C188.656 23.9785 188.572 24.1641 188.402 24.3398C188.233 24.5091 188.051 24.5938 187.855 24.5938C187.706 24.5938 187.546 24.5417 187.377 24.4375C187.214 24.3268 187.012 24.0957 186.771 23.7441C186.531 23.3861 186.309 23.1452 186.107 23.0215C185.906 22.8978 185.681 22.8359 185.434 22.8359C185.134 22.8359 184.88 22.9173 184.672 23.0801C184.464 23.2363 184.314 23.4837 184.223 23.8223C184.132 24.1543 184.086 25.0169 184.086 26.4102V27.0547H186.391V27.7578H184.086ZM199.662 31.5664H194.535L193.637 33.6562C193.415 34.1706 193.305 34.5547 193.305 34.8086C193.305 35.0104 193.399 35.1895 193.588 35.3457C193.783 35.4954 194.2 35.5931 194.838 35.6387V36H190.668V35.6387C191.221 35.541 191.579 35.4141 191.742 35.2578C192.074 34.9453 192.442 34.3105 192.846 33.3535L197.504 22.4551H197.846L202.455 33.4707C202.826 34.3561 203.161 34.9323 203.461 35.1992C203.767 35.4596 204.19 35.6061 204.73 35.6387V36H199.506V35.6387C200.033 35.6126 200.388 35.5247 200.57 35.375C200.759 35.2253 200.854 35.043 200.854 34.8281C200.854 34.5417 200.723 34.0892 200.463 33.4707L199.662 31.5664ZM199.389 30.8438L197.143 25.4922L194.838 30.8438H199.389ZM204.945 27.9434L207.699 26.8301H208.07V28.9199C208.533 28.1322 208.995 27.582 209.457 27.2695C209.926 26.9505 210.417 26.791 210.932 26.791C211.83 26.791 212.579 27.1426 213.178 27.8457C213.913 28.7051 214.281 29.8249 214.281 31.2051C214.281 32.748 213.839 34.0241 212.953 35.0332C212.224 35.86 211.306 36.2734 210.199 36.2734C209.717 36.2734 209.301 36.2051 208.949 36.0684C208.689 35.9707 208.396 35.7754 208.07 35.4824V38.207C208.07 38.819 208.106 39.2064 208.178 39.3691C208.256 39.5384 208.386 39.6719 208.568 39.7695C208.757 39.8672 209.096 39.916 209.584 39.916V40.2773H204.896V39.916H205.141C205.499 39.9225 205.805 39.8542 206.059 39.7109C206.182 39.6393 206.277 39.5221 206.342 39.3594C206.413 39.2031 206.449 38.7995 206.449 38.1484V29.6914C206.449 29.112 206.423 28.7441 206.371 28.5879C206.319 28.4316 206.234 28.3145 206.117 28.2363C206.007 28.1582 205.854 28.1191 205.658 28.1191C205.502 28.1191 205.303 28.1647 205.062 28.2559L204.945 27.9434ZM208.07 29.4961V32.8359C208.07 33.5586 208.1 34.0339 208.158 34.2617C208.249 34.6393 208.471 34.9714 208.822 35.2578C209.18 35.5443 209.63 35.6875 210.17 35.6875C210.821 35.6875 211.348 35.4336 211.752 34.9258C212.279 34.2617 212.543 33.3275 212.543 32.123C212.543 30.7559 212.243 29.7044 211.645 28.9688C211.228 28.4609 210.733 28.207 210.16 28.207C209.848 28.207 209.538 28.2852 209.232 28.4414C208.998 28.5586 208.611 28.9102 208.07 29.4961ZM214.945 27.9434L217.699 26.8301H218.07V28.9199C218.533 28.1322 218.995 27.582 219.457 27.2695C219.926 26.9505 220.417 26.791 220.932 26.791C221.83 26.791 222.579 27.1426 223.178 27.8457C223.913 28.7051 224.281 29.8249 224.281 31.2051C224.281 32.748 223.839 34.0241 222.953 35.0332C222.224 35.86 221.306 36.2734 220.199 36.2734C219.717 36.2734 219.301 36.2051 218.949 36.0684C218.689 35.9707 218.396 35.7754 218.07 35.4824V38.207C218.07 38.819 218.106 39.2064 218.178 39.3691C218.256 39.5384 218.386 39.6719 218.568 39.7695C218.757 39.8672 219.096 39.916 219.584 39.916V40.2773H214.896V39.916H215.141C215.499 39.9225 215.805 39.8542 216.059 39.7109C216.182 39.6393 216.277 39.5221 216.342 39.3594C216.413 39.2031 216.449 38.7995 216.449 38.1484V29.6914C216.449 29.112 216.423 28.7441 216.371 28.5879C216.319 28.4316 216.234 28.3145 216.117 28.2363C216.007 28.1582 215.854 28.1191 215.658 28.1191C215.502 28.1191 215.303 28.1647 215.062 28.2559L214.945 27.9434ZM218.07 29.4961V32.8359C218.07 33.5586 218.1 34.0339 218.158 34.2617C218.249 34.6393 218.471 34.9714 218.822 35.2578C219.18 35.5443 219.63 35.6875 220.17 35.6875C220.821 35.6875 221.348 35.4336 221.752 34.9258C222.279 34.2617 222.543 33.3275 222.543 32.123C222.543 30.7559 222.243 29.7044 221.645 28.9688C221.228 28.4609 220.733 28.207 220.16 28.207C219.848 28.207 219.538 28.2852 219.232 28.4414C218.998 28.5586 218.611 28.9102 218.07 29.4961ZM228.666 22.1133V33.9785C228.666 34.5384 228.705 34.9095 228.783 35.0918C228.868 35.2741 228.995 35.4141 229.164 35.5117C229.333 35.6029 229.649 35.6484 230.111 35.6484V36H225.727V35.6484C226.137 35.6484 226.417 35.6061 226.566 35.5215C226.716 35.4368 226.833 35.2969 226.918 35.1016C227.003 34.9062 227.045 34.5319 227.045 33.9785V25.8535C227.045 24.8444 227.022 24.2259 226.977 23.998C226.931 23.7637 226.856 23.6042 226.752 23.5195C226.654 23.4349 226.527 23.3926 226.371 23.3926C226.202 23.3926 225.987 23.4447 225.727 23.5488L225.561 23.207L228.227 22.1133H228.666ZM233.432 22.1133C233.705 22.1133 233.936 22.2109 234.125 22.4062C234.32 22.5951 234.418 22.8262 234.418 23.0996C234.418 23.373 234.32 23.6074 234.125 23.8027C233.936 23.998 233.705 24.0957 233.432 24.0957C233.158 24.0957 232.924 23.998 232.729 23.8027C232.533 23.6074 232.436 23.373 232.436 23.0996C232.436 22.8262 232.53 22.5951 232.719 22.4062C232.914 22.2109 233.152 22.1133 233.432 22.1133ZM234.242 26.791V33.9785C234.242 34.5384 234.281 34.9128 234.359 35.1016C234.444 35.2839 234.564 35.4206 234.721 35.5117C234.883 35.6029 235.176 35.6484 235.6 35.6484V36H231.254V35.6484C231.69 35.6484 231.983 35.6061 232.133 35.5215C232.283 35.4368 232.4 35.2969 232.484 35.1016C232.576 34.9062 232.621 34.5319 232.621 33.9785V30.5312C232.621 29.5612 232.592 28.9329 232.533 28.6465C232.488 28.4382 232.416 28.2949 232.318 28.2168C232.221 28.1322 232.087 28.0898 231.918 28.0898C231.736 28.0898 231.514 28.1387 231.254 28.2363L231.117 27.8848L233.812 26.791H234.242ZM238.227 30.4238C238.22 31.752 238.542 32.7936 239.193 33.5488C239.844 34.304 240.609 34.6816 241.488 34.6816C242.074 34.6816 242.582 34.5221 243.012 34.2031C243.448 33.8776 243.812 33.3242 244.105 32.543L244.408 32.7383C244.271 33.6302 243.874 34.444 243.217 35.1797C242.559 35.9089 241.736 36.2734 240.746 36.2734C239.672 36.2734 238.751 35.8568 237.982 35.0234C237.221 34.1836 236.84 33.0573 236.84 31.6445C236.84 30.1146 237.23 28.9232 238.012 28.0703C238.799 27.2109 239.786 26.7812 240.971 26.7812C241.973 26.7812 242.797 27.1133 243.441 27.7773C244.086 28.4349 244.408 29.3171 244.408 30.4238H238.227ZM238.227 29.8574H242.367C242.335 29.2845 242.266 28.8809 242.162 28.6465C241.999 28.2819 241.755 27.9954 241.43 27.7871C241.111 27.5788 240.775 27.4746 240.424 27.4746C239.883 27.4746 239.398 27.6862 238.969 28.1094C238.546 28.526 238.298 29.1087 238.227 29.8574ZM251.928 34.9941C251.492 35.4499 251.065 35.7786 250.648 35.9805C250.232 36.1758 249.783 36.2734 249.301 36.2734C248.324 36.2734 247.471 35.8665 246.742 35.0527C246.013 34.2324 245.648 33.181 245.648 31.8984C245.648 30.6159 246.052 29.444 246.859 28.3828C247.667 27.3151 248.705 26.7812 249.975 26.7812C250.762 26.7812 251.413 27.0319 251.928 27.5332V25.8828C251.928 24.8607 251.902 24.2324 251.85 23.998C251.804 23.7637 251.729 23.6042 251.625 23.5195C251.521 23.4349 251.391 23.3926 251.234 23.3926C251.065 23.3926 250.84 23.4447 250.561 23.5488L250.434 23.207L253.1 22.1133H253.539V32.4551C253.539 33.5033 253.562 34.1445 253.607 34.3789C253.66 34.6068 253.738 34.7663 253.842 34.8574C253.952 34.9486 254.079 34.9941 254.223 34.9941C254.398 34.9941 254.633 34.9388 254.926 34.8281L255.033 35.1699L252.377 36.2734H251.928V34.9941ZM251.928 34.3105V29.7012C251.889 29.2585 251.771 28.8548 251.576 28.4902C251.381 28.1257 251.12 27.8522 250.795 27.6699C250.476 27.4811 250.163 27.3867 249.857 27.3867C249.285 27.3867 248.773 27.6439 248.324 28.1582C247.732 28.8353 247.436 29.8249 247.436 31.127C247.436 32.4421 247.722 33.4512 248.295 34.1543C248.868 34.8509 249.506 35.1992 250.209 35.1992C250.801 35.1992 251.374 34.903 251.928 34.3105ZM269.154 22.4551V27.0352H268.793C268.676 26.1562 268.464 25.4564 268.158 24.9355C267.859 24.4147 267.429 24.0013 266.869 23.6953C266.309 23.3893 265.73 23.2363 265.131 23.2363C264.454 23.2363 263.894 23.4447 263.451 23.8613C263.008 24.2715 262.787 24.7402 262.787 25.2676C262.787 25.6712 262.927 26.0391 263.207 26.3711C263.611 26.8594 264.571 27.5104 266.088 28.3242C267.325 28.9883 268.168 29.4993 268.617 29.8574C269.073 30.209 269.421 30.6257 269.662 31.1074C269.91 31.5892 270.033 32.0938 270.033 32.6211C270.033 33.6237 269.643 34.4896 268.861 35.2188C268.087 35.9414 267.087 36.3027 265.863 36.3027C265.479 36.3027 265.118 36.2734 264.779 36.2148C264.577 36.1823 264.158 36.0651 263.52 35.8633C262.888 35.6549 262.488 35.5508 262.318 35.5508C262.156 35.5508 262.025 35.5996 261.928 35.6973C261.837 35.7949 261.768 35.9967 261.723 36.3027H261.361V31.7617H261.723C261.892 32.7122 262.12 33.4251 262.406 33.9004C262.693 34.3691 263.129 34.7598 263.715 35.0723C264.307 35.3848 264.955 35.541 265.658 35.541C266.472 35.541 267.113 35.3262 267.582 34.8965C268.057 34.4668 268.295 33.959 268.295 33.373C268.295 33.0475 268.204 32.7188 268.021 32.3867C267.846 32.0547 267.569 31.7454 267.191 31.459C266.938 31.2637 266.244 30.8503 265.111 30.2188C263.979 29.5807 263.171 29.0729 262.689 28.6953C262.214 28.3177 261.853 27.901 261.605 27.4453C261.358 26.9896 261.234 26.4883 261.234 25.9414C261.234 24.9909 261.599 24.1738 262.328 23.4902C263.057 22.8001 263.985 22.4551 265.111 22.4551C265.814 22.4551 266.56 22.6276 267.348 22.9727C267.712 23.1354 267.969 23.2168 268.119 23.2168C268.288 23.2168 268.425 23.168 268.529 23.0703C268.64 22.9661 268.728 22.7611 268.793 22.4551H269.154ZM279.34 32.6016C279.099 33.7799 278.627 34.6882 277.924 35.3262C277.221 35.9577 276.443 36.2734 275.59 36.2734C274.574 36.2734 273.689 35.847 272.934 34.9941C272.178 34.1413 271.801 32.9889 271.801 31.5371C271.801 30.1309 272.217 28.9883 273.051 28.1094C273.891 27.2305 274.896 26.791 276.068 26.791C276.947 26.791 277.67 27.0254 278.236 27.4941C278.803 27.9564 279.086 28.4382 279.086 28.9395C279.086 29.1868 279.005 29.3887 278.842 29.5449C278.686 29.6947 278.464 29.7695 278.178 29.7695C277.794 29.7695 277.504 29.6458 277.309 29.3984C277.198 29.2617 277.123 29.0013 277.084 28.6172C277.051 28.2331 276.921 27.9401 276.693 27.7383C276.465 27.543 276.15 27.4453 275.746 27.4453C275.095 27.4453 274.571 27.6862 274.174 28.168C273.646 28.806 273.383 29.6491 273.383 30.6973C273.383 31.765 273.643 32.709 274.164 33.5293C274.691 34.3431 275.401 34.75 276.293 34.75C276.931 34.75 277.504 34.5319 278.012 34.0957C278.37 33.7962 278.718 33.2526 279.057 32.4648L279.34 32.6016ZM282.904 22.1133C283.178 22.1133 283.409 22.2109 283.598 22.4062C283.793 22.5951 283.891 22.8262 283.891 23.0996C283.891 23.373 283.793 23.6074 283.598 23.8027C283.409 23.998 283.178 24.0957 282.904 24.0957C282.631 24.0957 282.396 23.998 282.201 23.8027C282.006 23.6074 281.908 23.373 281.908 23.0996C281.908 22.8262 282.003 22.5951 282.191 22.4062C282.387 22.2109 282.624 22.1133 282.904 22.1133ZM283.715 26.791V33.9785C283.715 34.5384 283.754 34.9128 283.832 35.1016C283.917 35.2839 284.037 35.4206 284.193 35.5117C284.356 35.6029 284.649 35.6484 285.072 35.6484V36H280.727V35.6484C281.163 35.6484 281.456 35.6061 281.605 35.5215C281.755 35.4368 281.872 35.2969 281.957 35.1016C282.048 34.9062 282.094 34.5319 282.094 33.9785V30.5312C282.094 29.5612 282.064 28.9329 282.006 28.6465C281.96 28.4382 281.889 28.2949 281.791 28.2168C281.693 28.1322 281.56 28.0898 281.391 28.0898C281.208 28.0898 280.987 28.1387 280.727 28.2363L280.59 27.8848L283.285 26.791H283.715ZM287.699 30.4238C287.693 31.752 288.015 32.7936 288.666 33.5488C289.317 34.304 290.082 34.6816 290.961 34.6816C291.547 34.6816 292.055 34.5221 292.484 34.2031C292.921 33.8776 293.285 33.3242 293.578 32.543L293.881 32.7383C293.744 33.6302 293.347 34.444 292.689 35.1797C292.032 35.9089 291.208 36.2734 290.219 36.2734C289.145 36.2734 288.223 35.8568 287.455 35.0234C286.693 34.1836 286.312 33.0573 286.312 31.6445C286.312 30.1146 286.703 28.9232 287.484 28.0703C288.272 27.2109 289.258 26.7812 290.443 26.7812C291.446 26.7812 292.27 27.1133 292.914 27.7773C293.559 28.4349 293.881 29.3171 293.881 30.4238H287.699ZM287.699 29.8574H291.84C291.807 29.2845 291.739 28.8809 291.635 28.6465C291.472 28.2819 291.228 27.9954 290.902 27.7871C290.583 27.5788 290.248 27.4746 289.896 27.4746C289.356 27.4746 288.871 27.6862 288.441 28.1094C288.018 28.526 287.771 29.1087 287.699 29.8574ZM297.689 28.6855C298.738 27.4225 299.737 26.791 300.688 26.791C301.176 26.791 301.596 26.9147 301.947 27.1621C302.299 27.403 302.579 27.8034 302.787 28.3633C302.93 28.7539 303.002 29.3529 303.002 30.1602V33.9785C303.002 34.5449 303.048 34.929 303.139 35.1309C303.21 35.2936 303.324 35.4206 303.48 35.5117C303.643 35.6029 303.939 35.6484 304.369 35.6484V36H299.945V35.6484H300.131C300.548 35.6484 300.837 35.5866 301 35.4629C301.169 35.3327 301.286 35.1439 301.352 34.8965C301.378 34.7988 301.391 34.4928 301.391 33.9785V30.3164C301.391 29.5026 301.283 28.9134 301.068 28.5488C300.86 28.1777 300.505 27.9922 300.004 27.9922C299.229 27.9922 298.458 28.4154 297.689 29.2617V33.9785C297.689 34.584 297.725 34.9583 297.797 35.1016C297.888 35.2904 298.012 35.4303 298.168 35.5215C298.331 35.6061 298.656 35.6484 299.145 35.6484V36H294.721V35.6484H294.916C295.372 35.6484 295.678 35.5345 295.834 35.3066C295.997 35.0723 296.078 34.6296 296.078 33.9785V30.6582C296.078 29.584 296.052 28.9297 296 28.6953C295.954 28.4609 295.88 28.3014 295.775 28.2168C295.678 28.1322 295.544 28.0898 295.375 28.0898C295.193 28.0898 294.975 28.1387 294.721 28.2363L294.574 27.8848L297.27 26.791H297.689V28.6855ZM312.68 32.6016C312.439 33.7799 311.967 34.6882 311.264 35.3262C310.561 35.9577 309.783 36.2734 308.93 36.2734C307.914 36.2734 307.029 35.847 306.273 34.9941C305.518 34.1413 305.141 32.9889 305.141 31.5371C305.141 30.1309 305.557 28.9883 306.391 28.1094C307.23 27.2305 308.236 26.791 309.408 26.791C310.287 26.791 311.01 27.0254 311.576 27.4941C312.143 27.9564 312.426 28.4382 312.426 28.9395C312.426 29.1868 312.344 29.3887 312.182 29.5449C312.025 29.6947 311.804 29.7695 311.518 29.7695C311.133 29.7695 310.844 29.6458 310.648 29.3984C310.538 29.2617 310.463 29.0013 310.424 28.6172C310.391 28.2331 310.261 27.9401 310.033 27.7383C309.805 27.543 309.49 27.4453 309.086 27.4453C308.435 27.4453 307.911 27.6862 307.514 28.168C306.986 28.806 306.723 29.6491 306.723 30.6973C306.723 31.765 306.983 32.709 307.504 33.5293C308.031 34.3431 308.741 34.75 309.633 34.75C310.271 34.75 310.844 34.5319 311.352 34.0957C311.71 33.7962 312.058 33.2526 312.396 32.4648L312.68 32.6016ZM315.473 30.4238C315.466 31.752 315.788 32.7936 316.439 33.5488C317.09 34.304 317.855 34.6816 318.734 34.6816C319.32 34.6816 319.828 34.5221 320.258 34.2031C320.694 33.8776 321.059 33.3242 321.352 32.543L321.654 32.7383C321.518 33.6302 321.12 34.444 320.463 35.1797C319.805 35.9089 318.982 36.2734 317.992 36.2734C316.918 36.2734 315.997 35.8568 315.229 35.0234C314.467 34.1836 314.086 33.0573 314.086 31.6445C314.086 30.1146 314.477 28.9232 315.258 28.0703C316.046 27.2109 317.032 26.7812 318.217 26.7812C319.219 26.7812 320.043 27.1133 320.688 27.7773C321.332 28.4349 321.654 29.3171 321.654 30.4238H315.473ZM315.473 29.8574H319.613C319.581 29.2845 319.512 28.8809 319.408 28.6465C319.245 28.2819 319.001 27.9954 318.676 27.7871C318.357 27.5788 318.021 27.4746 317.67 27.4746C317.13 27.4746 316.645 27.6862 316.215 28.1094C315.792 28.526 315.544 29.1087 315.473 29.8574ZM328.637 26.791V29.8379H328.314C328.067 28.8809 327.748 28.2298 327.357 27.8848C326.973 27.5397 326.482 27.3672 325.883 27.3672C325.427 27.3672 325.059 27.4876 324.779 27.7285C324.499 27.9694 324.359 28.2363 324.359 28.5293C324.359 28.8939 324.464 29.2064 324.672 29.4668C324.874 29.7337 325.284 30.0169 325.902 30.3164L327.328 31.0098C328.65 31.6543 329.311 32.5039 329.311 33.5586C329.311 34.3724 329.001 35.0299 328.383 35.5312C327.771 36.026 327.084 36.2734 326.322 36.2734C325.775 36.2734 325.15 36.1758 324.447 35.9805C324.232 35.9154 324.057 35.8828 323.92 35.8828C323.77 35.8828 323.653 35.9674 323.568 36.1367H323.246V32.9434H323.568C323.751 33.8548 324.099 34.5417 324.613 35.0039C325.128 35.4661 325.704 35.6973 326.342 35.6973C326.791 35.6973 327.156 35.5671 327.436 35.3066C327.722 35.0397 327.865 34.7207 327.865 34.3496C327.865 33.9004 327.706 33.5228 327.387 33.2168C327.074 32.9108 326.446 32.5234 325.502 32.0547C324.558 31.5859 323.939 31.1628 323.646 30.7852C323.354 30.4141 323.207 29.9453 323.207 29.3789C323.207 28.6432 323.458 28.028 323.959 27.5332C324.467 27.0384 325.121 26.791 325.922 26.791C326.273 26.791 326.7 26.8659 327.201 27.0156C327.533 27.1133 327.755 27.1621 327.865 27.1621C327.969 27.1621 328.051 27.1393 328.109 27.0938C328.168 27.0482 328.236 26.9473 328.314 26.791H328.637Z" fill="white"/>
</svg>
