<svg width="586" height="876" viewBox="0 0 586 876" fill="none" xmlns="http://www.w3.org/2000/svg">
<rect width="586" height="876" fill="black"/>
<path d="M14.0967 81.3538H20.6167V69.3938C20.6167 65.9938 20.2567 60.6338 20.2567 60.6338H20.3367C20.3367 60.6338 22.6567 65.5938 24.4567 68.5938L32.2167 81.3538H39.2167V51.5938H32.6967V63.6338C32.6967 67.0338 33.0567 72.3538 33.0567 72.3538H32.9767C32.9767 72.3538 30.6567 67.5138 28.8967 64.5138L21.0567 51.5938H14.0967V81.3538ZM63.5739 81.3538V60.0738H57.3739V72.1138C57.3739 74.7538 55.8139 76.6738 53.2939 76.6738C51.0539 76.6738 49.8939 75.3138 49.8939 72.9538V60.0738H43.6139V74.1538C43.6139 78.8338 46.2539 81.9538 51.0939 81.9538C54.0139 81.9538 55.9339 80.7938 57.4939 78.3138H57.6139V81.3538H63.5739ZM77.9192 82.0338C83.8392 82.0338 87.6792 78.2738 87.8792 73.4338H81.8392C81.5592 75.8738 80.1592 77.2738 77.8392 77.2738C74.6792 77.2738 73.0792 74.6338 73.0792 70.7538C73.0792 66.7538 74.6792 64.1538 77.8392 64.1538C79.9192 64.1538 81.1992 65.3938 81.6392 67.3538H87.7192C86.9592 62.7138 83.4392 59.4738 77.7592 59.4738C71.0792 59.4738 66.7192 64.3538 66.7192 70.7538C66.7192 77.1138 71.1192 82.0338 77.9192 82.0338ZM90.8851 81.3538H97.2051V51.5938H90.8851V81.3538ZM111.631 81.9938C117.111 81.9938 120.591 79.1138 121.671 75.3538H115.591C114.911 76.6738 113.671 77.4338 111.711 77.4338C108.671 77.4338 106.951 75.5138 106.551 72.3138H122.071C122.111 68.1138 121.031 64.5138 118.631 62.1938C116.751 60.4738 114.351 59.4738 111.311 59.4738C104.831 59.4738 100.391 64.3538 100.391 70.7538C100.391 77.1138 104.671 81.9938 111.631 81.9938ZM111.311 63.9138C113.791 63.9138 115.471 65.7138 115.671 68.6738H106.591C106.991 65.7538 108.431 63.9138 111.311 63.9138ZM138.859 81.3538H144.979V80.9938C144.419 80.6338 144.179 79.7138 144.179 78.0338V67.1138C144.179 64.2338 143.139 62.0338 140.939 60.7538C139.459 59.8738 137.539 59.4738 134.819 59.4738C128.499 59.4738 125.539 62.8738 125.379 66.5138H131.179C131.339 64.8338 132.499 63.7138 134.899 63.7138C137.059 63.7138 138.059 64.7538 138.059 66.2738C138.059 67.8738 136.499 68.4738 132.699 68.9938C128.059 69.5538 124.339 70.7538 124.339 75.4738C124.339 79.6738 127.419 81.9138 131.619 81.9138C134.899 81.9138 136.659 80.7138 138.059 78.7538H138.139C138.259 79.9538 138.539 80.8738 138.859 81.3538ZM133.579 77.7938C131.859 77.7938 130.459 77.1138 130.459 75.2738C130.459 73.4338 131.779 72.7538 134.539 72.1538C135.939 71.8338 137.299 71.5138 138.219 70.9538V73.7138C138.219 76.0338 136.379 77.7938 133.579 77.7938ZM154.462 60.0738H148.422V81.3538H154.702V71.4738C154.702 67.3138 156.942 65.1938 160.342 65.2338C160.782 65.2338 161.222 65.2738 161.662 65.3538H161.822V59.8738C161.542 59.7538 161.102 59.7138 160.502 59.7138C157.862 59.7138 155.942 60.9138 154.582 63.8738H154.462V60.0738ZM174.917 81.3538H181.717V69.9938H186.757C190.037 69.9938 191.517 71.5138 191.877 74.4738C192.237 77.7538 192.157 80.9138 192.957 81.3538H199.677V81.0338C198.717 80.6338 198.957 77.2738 198.397 73.2338C197.997 70.0338 196.677 68.3938 193.717 67.4738V67.3538C197.517 66.1138 199.237 63.5938 199.237 60.1138C199.237 54.6738 194.877 51.5938 189.077 51.5938H174.917V81.3538ZM181.717 56.9938H187.957C190.957 56.9938 192.437 58.5938 192.437 61.0338C192.437 63.3938 190.797 64.9538 187.757 64.9538H181.717V56.9938ZM213.115 81.9938C218.595 81.9938 222.075 79.1138 223.155 75.3538H217.075C216.395 76.6738 215.155 77.4338 213.195 77.4338C210.155 77.4338 208.435 75.5138 208.035 72.3138H223.555C223.595 68.1138 222.515 64.5138 220.115 62.1938C218.235 60.4738 215.835 59.4738 212.795 59.4738C206.315 59.4738 201.875 64.3538 201.875 70.7538C201.875 77.1138 206.155 81.9938 213.115 81.9938ZM212.795 63.9138C215.275 63.9138 216.955 65.7138 217.155 68.6738H208.075C208.475 65.7538 209.915 63.9138 212.795 63.9138ZM236.904 82.0338C242.824 82.0338 246.664 78.2738 246.864 73.4338H240.824C240.544 75.8738 239.144 77.2738 236.824 77.2738C233.664 77.2738 232.064 74.6338 232.064 70.7538C232.064 66.7538 233.664 64.1538 236.824 64.1538C238.904 64.1538 240.184 65.3938 240.624 67.3538H246.704C245.944 62.7138 242.424 59.4738 236.744 59.4738C230.064 59.4738 225.704 64.3538 225.704 70.7538C225.704 77.1138 230.104 82.0338 236.904 82.0338ZM269.589 81.3538V60.0738H263.389V72.1138C263.389 74.7538 261.829 76.6738 259.309 76.6738C257.069 76.6738 255.909 75.3138 255.909 72.9538V60.0738H249.629V74.1538C249.629 78.8338 252.269 81.9538 257.109 81.9538C260.029 81.9538 261.949 80.7938 263.509 78.3138H263.629V81.3538H269.589ZM279.775 60.0738H273.735V81.3538H280.015V71.4738C280.015 67.3138 282.255 65.1938 285.655 65.2338C286.095 65.2338 286.535 65.2738 286.975 65.3538H287.135V59.8738C286.855 59.7538 286.415 59.7138 285.815 59.7138C283.175 59.7138 281.255 60.9138 279.895 63.8738H279.775V60.0738ZM298.981 82.0338C304.501 82.0338 308.581 79.6338 308.581 75.0338C308.581 69.6738 304.261 68.6738 300.461 67.9938C297.541 67.4738 295.221 67.2338 295.221 65.6338C295.221 64.2738 296.461 63.4738 298.381 63.4738C300.381 63.4738 301.581 64.2338 301.981 65.7538H307.821C307.261 62.0338 304.301 59.4738 298.381 59.4738C293.381 59.4738 289.421 61.7538 289.421 66.1138C289.421 71.0738 293.261 72.0338 297.061 72.7538C300.021 73.3138 302.541 73.5538 302.541 75.4738C302.541 76.9938 301.261 77.9138 299.021 77.9138C296.581 77.9138 295.061 76.7938 294.701 74.7938H288.781C289.101 79.0738 292.821 82.0338 298.981 82.0338ZM311.664 57.0738H318.024V51.5938H311.664V57.0738ZM311.704 81.3538H317.984V60.0738H311.704V81.3538ZM327.613 81.3538H334.373L341.813 60.0738H335.493L332.813 68.6338C331.933 71.4738 331.133 76.0738 331.133 76.0738H331.013C331.013 76.0738 330.213 71.4738 329.333 68.6338L326.733 60.0738H320.253L327.613 81.3538ZM344.046 57.0738H350.406V51.5938H344.046V57.0738ZM344.086 81.3538H350.366V60.0738H344.086V81.3538ZM353.276 64.0738H356.476V75.9938C356.476 80.3138 359.156 81.5938 363.116 81.5938C364.796 81.5938 366.076 81.3938 366.756 81.2738V76.5938H366.436C366.036 76.6338 365.396 76.6738 364.996 76.6738C363.516 76.6738 362.636 76.2338 362.636 74.6338V64.0738H366.796V60.0738H362.636V53.2738H356.476V60.0738H353.276V64.0738ZM375.289 88.4738C379.369 88.4738 381.329 86.7938 383.049 81.8738L390.649 60.0738H384.409L381.809 68.2338C380.889 71.0738 379.929 75.6338 379.929 75.6338H379.849C379.849 75.6338 379.049 71.1138 378.089 68.2338L375.369 60.0738H368.769L375.369 77.0738C376.129 78.9938 376.489 80.6338 376.489 81.3538C376.369 82.7938 375.409 83.5138 373.449 83.5138C373.289 83.5138 371.489 83.5138 371.409 83.4738H371.089V88.3938C371.209 88.4338 375.089 88.4738 375.289 88.4738ZM416.203 81.3538H422.323V80.9938C421.763 80.6338 421.523 79.7138 421.523 78.0338V67.1138C421.523 64.2338 420.483 62.0338 418.283 60.7538C416.803 59.8738 414.883 59.4738 412.163 59.4738C405.843 59.4738 402.883 62.8738 402.723 66.5138H408.523C408.683 64.8338 409.843 63.7138 412.243 63.7138C414.403 63.7138 415.403 64.7538 415.403 66.2738C415.403 67.8738 413.843 68.4738 410.043 68.9938C405.403 69.5538 401.683 70.7538 401.683 75.4738C401.683 79.6738 404.763 81.9138 408.963 81.9138C412.243 81.9138 414.003 80.7138 415.403 78.7538H415.483C415.603 79.9538 415.883 80.8738 416.203 81.3538ZM410.923 77.7938C409.203 77.7938 407.803 77.1138 407.803 75.2738C407.803 73.4338 409.123 72.7538 411.883 72.1538C413.283 71.8338 414.643 71.5138 415.563 70.9538V73.7138C415.563 76.0338 413.723 77.7938 410.923 77.7938ZM431.846 60.0738H425.766V81.3538H432.046V69.3538C432.046 66.6338 433.686 64.6738 436.126 64.6738C438.446 64.6738 439.686 66.2338 439.686 68.5538V81.3538H445.926V67.3538C445.926 62.5938 443.206 59.4738 438.526 59.4738C435.566 59.4738 433.286 60.7538 431.966 63.3138H431.846V60.0738ZM458.027 82.0338C460.907 82.0338 463.267 80.8338 464.507 78.2338H464.587V81.3538H470.627V51.5938H464.347V58.1138C464.347 59.9138 464.427 61.7138 464.507 63.0338H464.427C462.987 60.8338 461.027 59.4738 458.107 59.4738C452.587 59.4738 448.907 64.1938 448.907 70.7138C448.907 77.7538 452.507 82.0338 458.027 82.0338ZM459.707 76.9938C456.787 76.9938 455.307 74.5138 455.307 70.6738C455.307 66.8738 456.787 64.2338 459.747 64.2338C462.987 64.2338 464.547 66.9538 464.547 70.7138C464.547 74.4338 462.747 76.9938 459.707 76.9938ZM25.7767 130.074C32.5767 130.074 37.7767 126.634 37.7767 120.474C37.7767 114.194 32.8567 112.434 27.4967 111.234C22.8167 110.194 20.2567 109.674 20.2567 107.354C20.2567 105.474 22.1367 104.274 24.9367 104.274C27.8967 104.274 29.7367 105.634 30.0967 107.954H36.7767C36.3367 102.114 31.6967 99.0738 25.1367 99.0738C18.5767 99.0738 13.5367 101.874 13.5367 108.034C13.5367 114.234 18.2567 115.674 24.0567 116.994C28.3767 117.994 30.8967 118.554 30.8967 121.154C30.8967 123.594 28.4167 124.634 25.7767 124.634C21.9367 124.634 19.8167 123.194 19.4567 119.954H12.5767C12.7767 126.394 17.8167 130.074 25.7767 130.074ZM51.7092 129.994C57.1892 129.994 60.6692 127.114 61.7492 123.354H55.6692C54.9892 124.674 53.7492 125.434 51.7892 125.434C48.7492 125.434 47.0292 123.514 46.6292 120.314H62.1492C62.1892 116.114 61.1092 112.514 58.7092 110.194C56.8292 108.474 54.4292 107.474 51.3892 107.474C44.9092 107.474 40.4692 112.354 40.4692 118.754C40.4692 125.114 44.7492 129.994 51.7092 129.994ZM51.3892 111.914C53.8692 111.914 55.5492 113.714 55.7492 116.674H46.6692C47.0692 113.754 48.5092 111.914 51.3892 111.914ZM65.2573 105.074H71.6173V99.5938H65.2573V105.074ZM65.2973 129.354H71.5773V108.074H65.2973V129.354ZM84.567 130.034C90.087 130.034 94.167 127.634 94.167 123.034C94.167 117.674 89.847 116.674 86.047 115.994C83.127 115.474 80.807 115.234 80.807 113.634C80.807 112.274 82.047 111.474 83.967 111.474C85.967 111.474 87.167 112.234 87.567 113.754H93.407C92.847 110.034 89.887 107.474 83.967 107.474C78.967 107.474 75.007 109.754 75.007 114.114C75.007 119.074 78.847 120.034 82.647 120.754C85.607 121.314 88.127 121.554 88.127 123.474C88.127 124.994 86.847 125.914 84.607 125.914C82.167 125.914 80.647 124.794 80.287 122.794H74.367C74.687 127.074 78.407 130.034 84.567 130.034ZM97.2895 129.354H103.569V117.234C103.569 114.514 105.049 112.634 107.249 112.634C109.329 112.634 110.369 114.034 110.369 116.354V129.354H116.649V117.234C116.649 114.514 118.049 112.634 120.289 112.634C122.329 112.634 123.449 114.034 123.449 116.354V129.354H129.689V115.314C129.689 110.594 127.249 107.474 122.529 107.474C119.849 107.474 117.529 108.674 115.769 111.514H115.689C114.609 108.874 112.649 107.474 109.849 107.474C106.849 107.474 104.809 108.874 103.449 111.394H103.329V108.074H97.2895V129.354ZM133.656 105.074H140.016V99.5938H133.656V105.074ZM133.696 129.354H139.976V108.074H133.696V129.354ZM154.325 130.034C160.245 130.034 164.085 126.274 164.285 121.434H158.245C157.965 123.874 156.565 125.274 154.245 125.274C151.085 125.274 149.485 122.634 149.485 118.754C149.485 114.754 151.085 112.154 154.245 112.154C156.325 112.154 157.605 113.394 158.045 115.354H164.125C163.365 110.714 159.845 107.474 154.165 107.474C147.485 107.474 143.125 112.354 143.125 118.754C143.125 125.114 147.525 130.034 154.325 130.034ZM175.18 129.354H182.02L183.86 123.674H194.66L196.54 129.354H203.74L192.98 99.5938H185.9L175.18 129.354ZM187.3 113.234C188.26 110.314 189.3 105.314 189.3 105.314H189.38C189.38 105.314 190.02 109.154 191.3 113.234L193.1 118.794H185.46L187.3 113.234ZM208.69 129.354H214.53L216.85 120.674C217.49 118.234 218.25 114.154 218.25 114.154H218.33C218.33 114.154 219.01 118.274 219.65 120.674L221.89 129.354H227.81L234.41 108.074H228.21L225.93 116.354C225.21 118.914 224.65 122.994 224.65 122.994H224.57C224.57 122.994 223.89 118.834 223.17 116.274L220.93 108.074H215.61L213.45 116.274C212.77 118.834 212.09 122.954 212.09 122.954H212.01C212.01 122.954 211.45 118.874 210.77 116.354L208.53 108.074H202.13L208.69 129.354ZM249.679 129.354H255.799V128.994C255.239 128.634 254.999 127.714 254.999 126.034V115.114C254.999 112.234 253.959 110.034 251.759 108.754C250.279 107.874 248.359 107.474 245.639 107.474C239.319 107.474 236.359 110.874 236.199 114.514H241.999C242.159 112.834 243.319 111.714 245.719 111.714C247.879 111.714 248.879 112.754 248.879 114.274C248.879 115.874 247.319 116.474 243.519 116.994C238.879 117.554 235.159 118.754 235.159 123.474C235.159 127.674 238.239 129.914 242.439 129.914C245.719 129.914 247.479 128.714 248.879 126.754H248.959C249.079 127.954 249.359 128.874 249.679 129.354ZM244.399 125.794C242.679 125.794 241.279 125.114 241.279 123.274C241.279 121.434 242.599 120.754 245.359 120.154C246.759 119.834 248.119 119.514 249.039 118.954V121.714C249.039 124.034 247.199 125.794 244.399 125.794ZM273.123 129.354H280.403L271.923 115.954L279.523 108.074H272.243L265.243 115.714C265.323 114.354 265.443 111.994 265.443 108.874V99.5938H259.243V129.354H265.443V122.274L267.563 120.074L273.123 129.354ZM291.475 129.994C296.955 129.994 300.435 127.114 301.515 123.354H295.435C294.755 124.674 293.515 125.434 291.555 125.434C288.515 125.434 286.795 123.514 286.395 120.314H301.915C301.955 116.114 300.875 112.514 298.475 110.194C296.595 108.474 294.195 107.474 291.155 107.474C284.675 107.474 280.235 112.354 280.235 118.754C280.235 125.114 284.515 129.994 291.475 129.994ZM291.155 111.914C293.635 111.914 295.315 113.714 295.515 116.674H286.435C286.835 113.754 288.275 111.914 291.155 111.914ZM311.143 108.074H305.063V129.354H311.343V117.354C311.343 114.634 312.983 112.674 315.423 112.674C317.743 112.674 318.983 114.234 318.983 116.554V129.354H325.223V115.354C325.223 110.594 322.503 107.474 317.823 107.474C314.863 107.474 312.583 108.754 311.263 111.314H311.143V108.074ZM329.164 105.074H335.524V99.5938H329.164V105.074ZM329.204 129.354H335.484V108.074H329.204V129.354ZM345.713 108.074H339.633V129.354H345.913V117.354C345.913 114.634 347.553 112.674 349.993 112.674C352.313 112.674 353.553 114.234 353.553 116.554V129.354H359.793V115.354C359.793 110.594 357.073 107.474 352.393 107.474C349.433 107.474 347.153 108.754 345.833 111.314H345.713V108.074ZM373.654 136.754C376.774 136.754 379.494 136.034 381.334 134.434C383.054 132.914 384.094 130.634 384.094 127.474V108.074H378.094V110.794H378.014C376.814 108.434 374.774 107.474 371.894 107.474C366.654 107.474 362.934 111.754 362.934 117.954C362.934 124.394 367.294 128.034 372.214 128.034C374.854 128.034 376.734 126.994 377.974 124.914H378.134C378.054 125.634 378.014 126.634 378.014 127.714V128.154C378.014 130.754 376.534 132.274 373.574 132.274C371.134 132.274 369.934 131.394 369.534 130.114H363.414C364.054 134.314 367.814 136.754 373.654 136.754ZM373.614 123.314C370.814 123.314 369.094 121.154 369.094 117.794C369.094 114.394 370.814 112.234 373.574 112.234C376.654 112.234 378.214 114.594 378.214 117.754C378.214 120.914 376.814 123.314 373.614 123.314Z" fill="white"/>
<path d="M20.7466 23.0494V27.6295H20.3853C20.2681 26.7506 20.0565 26.0507 19.7505 25.5299C19.451 25.0091 19.0213 24.5957 18.4614 24.2897C17.9015 23.9837 17.3221 23.8307 16.7232 23.8307C16.0461 23.8307 15.4862 24.039 15.0435 24.4557C14.6008 24.8658 14.3794 25.3346 14.3794 25.8619C14.3794 26.2656 14.5194 26.6334 14.7993 26.9655C15.203 27.4537 16.1633 28.1048 17.6802 28.9186C18.9172 29.5826 19.7603 30.0937 20.2095 30.4518C20.6652 30.8033 21.0135 31.22 21.2544 31.7018C21.5018 32.1836 21.6255 32.6881 21.6255 33.2155C21.6255 34.2181 21.2349 35.0839 20.4536 35.8131C19.6789 36.5358 18.6795 36.8971 17.4556 36.8971C17.0715 36.8971 16.7101 36.8678 16.3716 36.8092C16.1698 36.7767 15.7499 36.6595 15.1118 36.4576C14.4803 36.2493 14.0799 36.1451 13.9107 36.1451C13.7479 36.1451 13.6177 36.194 13.52 36.2916C13.4289 36.3893 13.3605 36.5911 13.315 36.8971H12.9536V32.3561H13.315C13.4842 33.3066 13.7121 34.0195 13.9986 34.4948C14.285 34.9635 14.7212 35.3541 15.3071 35.6666C15.8996 35.9791 16.5474 36.1354 17.2505 36.1354C18.0643 36.1354 18.7056 35.9205 19.1743 35.4908C19.6496 35.0612 19.8872 34.5533 19.8872 33.9674C19.8872 33.6419 19.7961 33.3131 19.6138 32.9811C19.438 32.649 19.1613 32.3398 18.7837 32.0533C18.5298 31.858 17.8364 31.4446 16.7036 30.8131C15.5708 30.1751 14.7635 29.6673 14.2818 29.2897C13.8065 28.9121 13.4452 28.4954 13.1978 28.0397C12.9504 27.5839 12.8267 27.0826 12.8267 26.5358C12.8267 25.5852 13.1913 24.7682 13.9204 24.0846C14.6496 23.3945 15.5773 23.0494 16.7036 23.0494C17.4068 23.0494 18.1522 23.222 18.94 23.567C19.3045 23.7298 19.5617 23.8112 19.7114 23.8112C19.8807 23.8112 20.0174 23.7623 20.1216 23.6647C20.2323 23.5605 20.3202 23.3554 20.3853 23.0494H20.7466ZM28.4028 35.3053C27.4849 36.0149 26.9087 36.4251 26.6743 36.5358C26.3228 36.6985 25.9484 36.7799 25.5513 36.7799C24.9328 36.7799 24.4217 36.5683 24.0181 36.1451C23.6209 35.722 23.4224 35.1653 23.4224 34.4752C23.4224 34.039 23.52 33.6614 23.7153 33.3424C23.9823 32.8997 24.4445 32.483 25.1021 32.0924C25.7661 31.7018 26.8664 31.2265 28.4028 30.6666V30.3151C28.4028 29.4231 28.2596 28.8112 27.9732 28.4791C27.6932 28.1471 27.2831 27.9811 26.7427 27.9811C26.3325 27.9811 26.007 28.0918 25.7661 28.3131C25.5187 28.5345 25.395 28.7884 25.395 29.0748L25.4146 29.6412C25.4146 29.9407 25.3364 30.1718 25.1802 30.3346C25.0305 30.4974 24.8319 30.5787 24.5845 30.5787C24.3436 30.5787 24.145 30.4941 23.9888 30.3248C23.839 30.1556 23.7642 29.9244 23.7642 29.6315C23.7642 29.0716 24.0506 28.5573 24.6236 28.0885C25.1965 27.6198 26.0005 27.3854 27.0357 27.3854C27.8299 27.3854 28.481 27.5188 28.9888 27.7858C29.3729 27.9876 29.6561 28.3033 29.8384 28.733C29.9556 29.013 30.0142 29.5859 30.0142 30.4518V33.4889C30.0142 34.3418 30.0305 34.8658 30.063 35.0612C30.0956 35.25 30.1476 35.3769 30.2193 35.442C30.2974 35.5071 30.3853 35.5397 30.4829 35.5397C30.5871 35.5397 30.6782 35.5169 30.7564 35.4713C30.8931 35.3867 31.1568 35.149 31.5474 34.7584V35.3053C30.8182 36.2819 30.1216 36.7701 29.4575 36.7701C29.1385 36.7701 28.8846 36.6595 28.6958 36.4381C28.507 36.2168 28.4094 35.8392 28.4028 35.3053ZM28.4028 34.6705V31.2623C27.4198 31.653 26.785 31.9296 26.4986 32.0924C25.9842 32.3789 25.6164 32.6783 25.395 32.9908C25.1737 33.3033 25.063 33.6451 25.063 34.0162C25.063 34.485 25.203 34.8756 25.4829 35.1881C25.7629 35.4941 26.0851 35.6471 26.4497 35.6471C26.9445 35.6471 27.5956 35.3216 28.4028 34.6705ZM34.6724 29.192C35.5383 27.9876 36.4725 27.3854 37.4751 27.3854C38.3931 27.3854 39.1939 27.7793 39.8775 28.567C40.5611 29.3483 40.9028 30.4192 40.9028 31.7799C40.9028 33.3684 40.3755 34.6477 39.3208 35.6178C38.4159 36.4511 37.4068 36.8678 36.2935 36.8678C35.7726 36.8678 35.242 36.7734 34.7017 36.5846C34.1678 36.3958 33.6209 36.1126 33.0611 35.735V26.4674C33.0611 25.4518 33.035 24.8268 32.9829 24.5924C32.9374 24.358 32.8625 24.1985 32.7583 24.1139C32.6541 24.0293 32.5239 23.9869 32.3677 23.9869C32.1854 23.9869 31.9575 24.039 31.6841 24.1432L31.5474 23.8014L34.2329 22.7076H34.6724V29.192ZM34.6724 29.817V35.1686C35.0044 35.4941 35.3462 35.7415 35.6978 35.9108C36.0558 36.0735 36.4204 36.1549 36.7915 36.1549C37.384 36.1549 37.9341 35.8294 38.4419 35.1783C38.9562 34.5273 39.2134 33.58 39.2134 32.3365C39.2134 31.1907 38.9562 30.3118 38.4419 29.6998C37.9341 29.0813 37.3547 28.7721 36.7036 28.7721C36.3586 28.7721 36.0135 28.86 35.6685 29.0358C35.4081 29.166 35.076 29.4264 34.6724 29.817ZM50.063 27.649V33.069C50.063 34.1041 50.0858 34.7389 50.1314 34.9733C50.1834 35.2011 50.2616 35.3606 50.3657 35.4518C50.4764 35.5429 50.6034 35.5885 50.7466 35.5885C50.9484 35.5885 51.1763 35.5332 51.4302 35.4225L51.5669 35.7643L48.8911 36.8678H48.4517V34.9733C47.6834 35.8066 47.0975 36.3307 46.6939 36.5455C46.2902 36.7604 45.8638 36.8678 45.4146 36.8678C44.9133 36.8678 44.4771 36.7246 44.106 36.4381C43.7414 36.1451 43.4875 35.7708 43.3443 35.3151C43.201 34.8593 43.1294 34.2148 43.1294 33.3815V29.3873C43.1294 28.9642 43.0838 28.6712 42.9927 28.5084C42.9015 28.3457 42.7648 28.222 42.5825 28.1373C42.4068 28.0462 42.0845 28.0039 41.6157 28.0104V27.649H44.7505V33.6354C44.7505 34.4687 44.8937 35.0156 45.1802 35.276C45.4732 35.5364 45.8247 35.6666 46.2349 35.6666C46.5148 35.6666 46.8306 35.5787 47.1821 35.403C47.5402 35.2272 47.9634 34.8919 48.4517 34.3971V29.3287C48.4517 28.8209 48.3573 28.4791 48.1685 28.3033C47.9862 28.1211 47.6021 28.0234 47.0161 28.0104V27.649H50.063ZM62.5728 29.2506L67.4556 34.1041C68.2564 34.9049 68.94 35.4518 69.5064 35.7448C70.0728 36.0312 70.6392 36.194 71.2056 36.233V36.5944H64.9068V36.233C65.2844 36.233 65.5545 36.1712 65.7173 36.0475C65.8866 35.9173 65.9712 35.774 65.9712 35.6178C65.9712 35.4615 65.9387 35.3216 65.8736 35.1979C65.815 35.0742 65.6131 34.8431 65.2681 34.5045L60.6978 29.983V34.2506C60.6978 34.9212 60.7401 35.3639 60.8247 35.5787C60.8898 35.7415 61.0265 35.8815 61.2349 35.9987C61.5148 36.1549 61.8111 36.233 62.1236 36.233H62.5728V36.5944H56.9282V36.233H57.397C57.9439 36.233 58.341 36.0735 58.5884 35.7545C58.7446 35.5462 58.8228 35.0449 58.8228 34.2506V25.6959C58.8228 25.0253 58.7805 24.5794 58.6958 24.358C58.6307 24.2018 58.4972 24.0651 58.2954 23.9479C58.009 23.7916 57.7095 23.7135 57.397 23.7135H56.9282V23.3522H62.5728V23.7135H62.1236C61.8176 23.7135 61.5213 23.7884 61.2349 23.9381C61.0331 24.0423 60.8931 24.1985 60.815 24.4069C60.7368 24.6152 60.6978 25.0449 60.6978 25.6959V29.7487C60.828 29.625 61.2739 29.2115 62.0357 28.5084C63.9693 26.7376 65.1379 25.5559 65.5415 24.9635C65.7173 24.7031 65.8052 24.4752 65.8052 24.2799C65.8052 24.1302 65.7368 24 65.6001 23.8893C65.4634 23.7721 65.2323 23.7135 64.9068 23.7135H64.604V23.3522H69.4673V23.7135C69.1808 23.72 68.9204 23.7591 68.6861 23.8307C68.4517 23.9023 68.1652 24.0423 67.8267 24.2506C67.4881 24.4524 67.0715 24.7812 66.5767 25.2369C66.4334 25.3671 65.7726 26.0345 64.5943 27.2389L62.5728 29.2506ZM76.0493 27.3854C77.4035 27.3854 78.4907 27.8997 79.3111 28.9283C80.0077 29.8073 80.356 30.8164 80.356 31.9557C80.356 32.7565 80.1639 33.567 79.7798 34.3873C79.3957 35.2076 78.8651 35.8261 78.188 36.2428C77.5174 36.6595 76.7687 36.8678 75.9419 36.8678C74.5943 36.8678 73.5233 36.3307 72.729 35.2565C72.0584 34.3515 71.7232 33.3359 71.7232 32.2096C71.7232 31.3893 71.925 30.5755 72.3286 29.7682C72.7388 28.9544 73.2759 28.3554 73.94 27.9713C74.604 27.5807 75.3071 27.3854 76.0493 27.3854ZM75.7466 28.0201C75.4015 28.0201 75.0532 28.1243 74.7017 28.3326C74.3566 28.5345 74.0767 28.8925 73.8618 29.4069C73.647 29.9212 73.5396 30.582 73.5396 31.3893C73.5396 32.6914 73.7967 33.8144 74.3111 34.7584C74.8319 35.7024 75.5155 36.1744 76.3618 36.1744C76.9933 36.1744 77.5142 35.914 77.9243 35.3932C78.3345 34.8724 78.5396 33.9772 78.5396 32.7076C78.5396 31.1191 78.1978 29.8691 77.5142 28.9576C77.0519 28.3326 76.4627 28.0201 75.7466 28.0201ZM84.3013 22.7076V29.2506C85.0239 28.4563 85.5969 27.9485 86.02 27.7272C86.4432 27.4993 86.8664 27.3854 87.2896 27.3854C87.7974 27.3854 88.2336 27.5253 88.5982 27.8053C88.9627 28.0852 89.2329 28.5247 89.4087 29.1237C89.5324 29.5403 89.5943 30.302 89.5943 31.4088V34.5729C89.5943 35.1393 89.6398 35.5267 89.731 35.735C89.7961 35.8912 89.9068 36.0149 90.063 36.1061C90.2193 36.1972 90.5057 36.2428 90.9224 36.2428V36.5944H86.5278V36.2428H86.7329C87.1496 36.2428 87.4393 36.1809 87.6021 36.0573C87.7648 35.927 87.8788 35.7382 87.9439 35.4908C87.9634 35.3867 87.9732 35.0807 87.9732 34.5729V31.4088C87.9732 30.4323 87.9211 29.791 87.8169 29.485C87.7193 29.179 87.5597 28.9511 87.3384 28.8014C87.117 28.6451 86.8501 28.567 86.5376 28.567C86.2186 28.567 85.8866 28.6517 85.5415 28.8209C85.1965 28.9902 84.7831 29.332 84.3013 29.8463V34.5729C84.3013 35.1849 84.3338 35.5657 84.3989 35.7155C84.4706 35.8652 84.5975 35.9921 84.7798 36.0963C84.9686 36.194 85.2909 36.2428 85.7466 36.2428V36.5944H81.313V36.2428C81.7101 36.2428 82.0226 36.1809 82.2505 36.0573C82.3807 35.9921 82.4849 35.8684 82.563 35.6862C82.6411 35.5039 82.6802 35.1328 82.6802 34.5729V26.4772C82.6802 25.455 82.6541 24.8268 82.6021 24.5924C82.5565 24.358 82.4816 24.1985 82.3775 24.1139C82.2798 24.0293 82.1463 23.9869 81.9771 23.9869C81.8403 23.9869 81.619 24.039 81.313 24.1432L81.1763 23.8014L83.8521 22.7076H84.3013ZM97.4556 27.3854V30.4323H97.1333C96.8859 29.4752 96.5669 28.8242 96.1763 28.4791C95.7922 28.1341 95.3006 27.9615 94.7017 27.9615C94.2459 27.9615 93.8781 28.082 93.5982 28.3229C93.3182 28.5638 93.1782 28.8307 93.1782 29.1237C93.1782 29.4882 93.2824 29.8007 93.4907 30.0612C93.6926 30.3281 94.1027 30.6113 94.7212 30.9108L96.147 31.6041C97.4686 32.2487 98.1294 33.0983 98.1294 34.153C98.1294 34.9668 97.8202 35.6243 97.2017 36.1256C96.5897 36.6204 95.9028 36.8678 95.1411 36.8678C94.5943 36.8678 93.9693 36.7701 93.2661 36.5748C93.0513 36.5097 92.8755 36.4772 92.7388 36.4772C92.589 36.4772 92.4719 36.5618 92.3872 36.7311H92.065V33.5377H92.3872C92.5695 34.4492 92.9178 35.136 93.4321 35.5983C93.9465 36.0605 94.5226 36.2916 95.1607 36.2916C95.6099 36.2916 95.9745 36.1614 96.2544 35.901C96.5409 35.6341 96.6841 35.3151 96.6841 34.944C96.6841 34.4948 96.5246 34.1171 96.2056 33.8112C95.8931 33.5052 95.2648 33.1178 94.3208 32.649C93.3768 32.1803 92.7583 31.7571 92.4653 31.3795C92.1724 31.0084 92.0259 30.5397 92.0259 29.9733C92.0259 29.2376 92.2765 28.6224 92.7778 28.1276C93.2857 27.6328 93.94 27.3854 94.7407 27.3854C95.0923 27.3854 95.5187 27.4602 96.02 27.61C96.3521 27.7076 96.5734 27.7565 96.6841 27.7565C96.7883 27.7565 96.8696 27.7337 96.9282 27.6881C96.9868 27.6425 97.0552 27.5416 97.1333 27.3854H97.4556ZM103.842 27.3854C105.196 27.3854 106.284 27.8997 107.104 28.9283C107.801 29.8073 108.149 30.8164 108.149 31.9557C108.149 32.7565 107.957 33.567 107.573 34.3873C107.189 35.2076 106.658 35.8261 105.981 36.2428C105.31 36.6595 104.562 36.8678 103.735 36.8678C102.387 36.8678 101.316 36.3307 100.522 35.2565C99.8514 34.3515 99.5161 33.3359 99.5161 32.2096C99.5161 31.3893 99.718 30.5755 100.122 29.7682C100.532 28.9544 101.069 28.3554 101.733 27.9713C102.397 27.5807 103.1 27.3854 103.842 27.3854ZM103.54 28.0201C103.195 28.0201 102.846 28.1243 102.495 28.3326C102.15 28.5345 101.87 28.8925 101.655 29.4069C101.44 29.9212 101.333 30.582 101.333 31.3893C101.333 32.6914 101.59 33.8144 102.104 34.7584C102.625 35.7024 103.308 36.1744 104.155 36.1744C104.786 36.1744 105.307 35.914 105.717 35.3932C106.127 34.8724 106.333 33.9772 106.333 32.7076C106.333 31.1191 105.991 29.8691 105.307 28.9576C104.845 28.3326 104.256 28.0201 103.54 28.0201Z" fill="white"/>
</svg>
