<svg width="468" height="714" viewBox="0 0 468 714" fill="none" xmlns="http://www.w3.org/2000/svg">
<rect width="468" height="714" fill="black"/>
<path d="M11.7655 73.5212H26.2055C29.3655 73.5212 31.8055 72.7612 33.5655 71.3212C35.4455 69.8412 36.4855 67.6812 36.4855 64.8412C36.4855 61.2012 34.3655 58.5212 30.5255 57.6012V57.4412C33.7255 56.4412 35.3255 54.4412 35.3255 51.4812C35.3255 49.1212 34.4455 47.2412 32.8055 45.8012C31.2855 44.4812 28.9255 43.7612 25.8455 43.7612H11.7655V73.5212ZM18.5255 55.7212V49.0412H24.9655C27.2855 49.0412 28.7655 50.2412 28.7655 52.4012C28.7655 54.6012 27.2055 55.7212 24.8855 55.7212H18.5255ZM18.5255 68.1612V60.4812H25.3655C27.8455 60.4812 29.7255 61.7612 29.7255 64.3612C29.7255 65.4812 29.3255 66.4412 28.6455 67.0812C27.9255 67.7612 26.8455 68.1612 25.4855 68.1612H18.5255ZM53.5593 73.5212H59.6793V73.1612C59.1193 72.8012 58.8793 71.8812 58.8793 70.2012V59.2812C58.8793 56.4012 57.8393 54.2012 55.6393 52.9212C54.1593 52.0412 52.2393 51.6412 49.5193 51.6412C43.1993 51.6412 40.2393 55.0412 40.0793 58.6812H45.8793C46.0393 57.0012 47.1993 55.8812 49.5993 55.8812C51.7593 55.8812 52.7593 56.9212 52.7593 58.4412C52.7593 60.0412 51.1993 60.6412 47.3993 61.1612C42.7593 61.7212 39.0393 62.9212 39.0393 67.6412C39.0393 71.8412 42.1193 74.0812 46.3193 74.0812C49.5993 74.0812 51.3593 72.8812 52.7593 70.9212H52.8393C52.9593 72.1212 53.2393 73.0412 53.5593 73.5212ZM48.2793 69.9612C46.5593 69.9612 45.1593 69.2812 45.1593 67.4412C45.1593 65.6012 46.4793 64.9212 49.2393 64.3212C50.6393 64.0012 51.9993 63.6812 52.9193 63.1212V65.8812C52.9193 68.2012 51.0793 69.9612 48.2793 69.9612ZM82.9224 73.5212V52.2412H76.7224V64.2812C76.7224 66.9212 75.1624 68.8412 72.6424 68.8412C70.4024 68.8412 69.2424 67.4812 69.2424 65.1212V52.2412H62.9624V66.3212C62.9624 71.0012 65.6024 74.1212 70.4424 74.1212C73.3624 74.1212 75.2824 72.9612 76.8424 70.4812H76.9624V73.5212H82.9224ZM93.3477 51.9612V43.7612H87.0677V73.5212H93.3477V61.5212C93.3477 58.8012 94.9877 56.8412 97.4277 56.8412C99.7477 56.8412 100.988 58.4012 100.988 60.7212V73.5212H107.228V59.5212C107.228 54.7612 104.508 51.6412 99.8277 51.6412C96.8677 51.6412 94.7077 53.0012 93.4277 55.2812H93.3077C93.3477 53.8812 93.3477 52.1612 93.3477 51.9612ZM124.848 73.5212H130.968V73.1612C130.408 72.8012 130.168 71.8812 130.168 70.2012V59.2812C130.168 56.4012 129.128 54.2012 126.928 52.9212C125.448 52.0412 123.528 51.6412 120.808 51.6412C114.488 51.6412 111.528 55.0412 111.368 58.6812H117.168C117.328 57.0012 118.488 55.8812 120.888 55.8812C123.048 55.8812 124.048 56.9212 124.048 58.4412C124.048 60.0412 122.488 60.6412 118.688 61.1612C114.048 61.7212 110.328 62.9212 110.328 67.6412C110.328 71.8412 113.408 74.0812 117.608 74.0812C120.888 74.0812 122.648 72.8812 124.048 70.9212H124.128C124.248 72.1212 124.528 73.0412 124.848 73.5212ZM119.568 69.9612C117.848 69.9612 116.448 69.2812 116.448 67.4412C116.448 65.6012 117.768 64.9212 120.528 64.3212C121.928 64.0012 123.288 63.6812 124.208 63.1212V65.8812C124.208 68.2012 122.368 69.9612 119.568 69.9612ZM154.211 73.5212V52.2412H148.011V64.2812C148.011 66.9212 146.451 68.8412 143.931 68.8412C141.691 68.8412 140.531 67.4812 140.531 65.1212V52.2412H134.251V66.3212C134.251 71.0012 136.891 74.1212 141.731 74.1212C144.651 74.1212 146.571 72.9612 148.131 70.4812H148.251V73.5212H154.211ZM167.197 74.2012C172.717 74.2012 176.797 71.8012 176.797 67.2012C176.797 61.8412 172.477 60.8412 168.677 60.1612C165.757 59.6412 163.437 59.4012 163.437 57.8012C163.437 56.4412 164.677 55.6412 166.597 55.6412C168.597 55.6412 169.797 56.4012 170.197 57.9212H176.037C175.477 54.2012 172.517 51.6412 166.597 51.6412C161.597 51.6412 157.637 53.9212 157.637 58.2812C157.637 63.2412 161.477 64.2012 165.277 64.9212C168.237 65.4812 170.757 65.7212 170.757 67.6412C170.757 69.1612 169.477 70.0812 167.237 70.0812C164.797 70.0812 163.277 68.9612 162.917 66.9612H156.997C157.317 71.2412 161.037 74.2012 167.197 74.2012ZM190.008 73.5212H210.528V67.6812H196.808V43.7612H190.008V73.5212ZM227.739 73.5212H233.859V73.1612C233.299 72.8012 233.059 71.8812 233.059 70.2012V59.2812C233.059 56.4012 232.019 54.2012 229.819 52.9212C228.339 52.0412 226.419 51.6412 223.699 51.6412C217.379 51.6412 214.419 55.0412 214.259 58.6812H220.059C220.219 57.0012 221.379 55.8812 223.779 55.8812C225.939 55.8812 226.939 56.9212 226.939 58.4412C226.939 60.0412 225.379 60.6412 221.579 61.1612C216.939 61.7212 213.219 62.9212 213.219 67.6412C213.219 71.8412 216.299 74.0812 220.499 74.0812C223.779 74.0812 225.539 72.8812 226.939 70.9212H227.019C227.139 72.1212 227.419 73.0412 227.739 73.5212ZM222.459 69.9612C220.739 69.9612 219.339 69.2812 219.339 67.4412C219.339 65.6012 220.659 64.9212 223.419 64.3212C224.819 64.0012 226.179 63.6812 227.099 63.1212V65.8812C227.099 68.2012 225.259 69.9612 222.459 69.9612ZM249.902 74.2012C255.422 74.2012 259.022 69.9212 259.022 62.8812C259.022 56.3612 255.382 51.6412 249.862 51.6412C246.902 51.6412 244.942 53.0412 243.502 55.2012H243.382C243.462 53.9212 243.582 52.0812 243.582 50.2812V43.7612H237.302V73.5212H243.342V70.4012H243.422C244.662 73.0012 247.062 74.2012 249.902 74.2012ZM248.222 69.1612C245.182 69.1612 243.382 66.6012 243.382 62.8812C243.382 59.2012 244.902 56.4012 248.182 56.4012C251.142 56.4012 252.622 59.0412 252.622 62.8412C252.622 66.6812 251.142 69.1612 248.222 69.1612ZM270.954 73.5212H292.714V68.0812H279.674V67.9612C281.914 65.2012 286.234 63.4012 289.194 60.7212C291.274 58.9612 292.754 56.8012 292.754 53.5212C292.754 48.4412 289.074 44.4412 282.434 44.4412C278.034 44.4412 274.954 46.0012 273.314 48.4012C271.994 50.2412 271.394 52.3612 271.394 55.2012H277.594C277.594 53.4812 277.994 52.0412 278.914 51.0412C279.674 50.1212 280.754 49.7212 282.234 49.7212C284.714 49.7212 286.154 51.3212 286.154 53.7212C286.154 55.7212 285.074 57.0012 283.234 58.3212C280.354 60.4012 276.594 62.6812 273.954 65.6012C272.074 67.7212 270.994 70.0012 270.954 73.5212ZM308.124 74.2012C315.644 74.2012 320.564 68.4012 320.564 59.3212C320.564 50.2012 315.684 44.4412 308.164 44.4412C300.804 44.4412 295.764 50.2412 295.764 59.3212C295.764 68.4012 300.804 74.2012 308.124 74.2012ZM308.164 69.0412C304.164 69.0412 302.484 65.1212 302.484 59.3212C302.484 53.4812 304.164 49.5212 308.164 49.5212C312.204 49.5212 313.844 53.4812 313.844 59.3212C313.844 65.1612 312.244 69.0412 308.164 69.0412ZM322.868 73.5212H344.628V68.0812H331.588V67.9612C333.828 65.2012 338.148 63.4012 341.108 60.7212C343.188 58.9612 344.668 56.8012 344.668 53.5212C344.668 48.4412 340.988 44.4412 334.348 44.4412C329.948 44.4412 326.868 46.0012 325.228 48.4012C323.908 50.2412 323.308 52.3612 323.308 55.2012H329.508C329.508 53.4812 329.908 52.0412 330.828 51.0412C331.588 50.1212 332.668 49.7212 334.148 49.7212C336.628 49.7212 338.068 51.3212 338.068 53.7212C338.068 55.7212 336.988 57.0012 335.148 58.3212C332.268 60.4012 328.508 62.6812 325.868 65.6012C323.988 67.7212 322.908 70.0012 322.868 73.5212ZM359.002 74.2012C364.962 74.2012 370.162 71.4012 370.162 65.3612C370.162 61.5612 368.042 59.2412 364.442 58.2412V58.1612C367.402 57.1612 369.282 55.4012 369.282 52.4412C369.282 47.4012 364.962 44.4412 358.922 44.4412C351.922 44.4412 348.002 48.4812 347.882 53.6412H353.962C354.122 51.4412 355.562 49.2812 358.802 49.2812C361.282 49.2812 362.882 50.6812 362.882 52.8012C362.882 55.1212 361.082 56.3612 358.162 56.3612H356.602V60.9212H358.322C361.682 60.9212 363.562 62.2812 363.562 64.9212C363.562 67.5612 361.802 69.1612 358.762 69.1612C354.962 69.1612 353.402 66.9212 353.202 64.1612H347.042C347.082 67.1612 348.202 69.9212 350.482 71.7212C352.562 73.3212 355.282 74.2012 359.002 74.2012ZM373.313 60.6812H379.953V54.1212H373.313V60.6812ZM373.313 73.5212H379.953V66.9612H373.313V73.5212ZM25.1255 122.201C29.2855 122.201 32.3255 121.041 34.5655 118.841C36.6055 116.841 37.9655 114.081 38.1655 111.121H31.3255C31.0055 114.201 28.7655 116.561 25.1255 116.561C20.4455 116.561 17.4855 112.441 17.4855 106.761C17.4855 101.121 20.0055 96.9212 25.0855 96.9212C28.4455 96.9212 30.6855 99.0012 31.0855 101.801H37.8855C37.5255 98.4412 35.9655 95.5212 33.2855 93.5612C31.2455 92.0412 28.4055 91.2412 25.1255 91.2412C16.2455 91.2412 10.5255 97.8812 10.5255 106.761C10.5255 115.641 16.4455 122.201 25.1255 122.201ZM51.9571 122.201C58.7171 122.201 63.1571 117.281 63.1571 110.921C63.1571 104.521 58.7171 99.6412 51.9571 99.6412C45.1571 99.6412 40.6771 104.521 40.6771 110.921C40.6771 117.281 45.1571 122.201 51.9571 122.201ZM51.9171 117.641C48.7171 117.641 47.0371 114.921 47.0371 110.921C47.0371 106.881 48.7171 104.121 51.9171 104.121C55.0371 104.121 56.7971 106.881 56.7971 110.921C56.7971 114.921 55.0371 117.641 51.9171 117.641ZM72.4055 100.241H66.3255V121.521H72.6055V109.521C72.6055 106.801 74.2455 104.841 76.6855 104.841C79.0055 104.841 80.2455 106.401 80.2455 108.721V121.521H86.4855V107.521C86.4855 102.761 83.7655 99.6412 79.0855 99.6412C76.1255 99.6412 73.8455 100.921 72.5255 103.481H72.4055V100.241ZM100.666 122.201C106.586 122.201 110.426 118.441 110.626 113.601H104.586C104.306 116.041 102.906 117.441 100.586 117.441C97.4262 117.441 95.8262 114.801 95.8262 110.921C95.8262 106.921 97.4262 104.321 100.586 104.321C102.666 104.321 103.946 105.561 104.386 107.521H110.466C109.706 102.881 106.186 99.6412 100.506 99.6412C93.8262 99.6412 89.4662 104.521 89.4662 110.921C89.4662 117.281 93.8662 122.201 100.666 122.201ZM119.592 100.241H113.552V121.521H119.832V111.641C119.832 107.481 122.072 105.361 125.472 105.401C125.912 105.401 126.352 105.441 126.792 105.521H126.952V100.041C126.672 99.9212 126.232 99.8812 125.632 99.8812C122.992 99.8812 121.072 101.081 119.712 104.041H119.592V100.241ZM139.808 122.161C145.288 122.161 148.768 119.281 149.848 115.521H143.768C143.088 116.841 141.848 117.601 139.888 117.601C136.848 117.601 135.128 115.681 134.728 112.481H150.248C150.288 108.281 149.208 104.681 146.808 102.361C144.928 100.641 142.528 99.6412 139.488 99.6412C133.008 99.6412 128.568 104.521 128.568 110.921C128.568 117.281 132.848 122.161 139.808 122.161ZM139.488 104.081C141.968 104.081 143.648 105.881 143.848 108.841H134.768C135.168 105.921 136.608 104.081 139.488 104.081ZM151.765 104.241H154.965V116.161C154.965 120.481 157.645 121.761 161.605 121.761C163.285 121.761 164.565 121.561 165.245 121.441V116.761H164.925C164.525 116.801 163.885 116.841 163.485 116.841C162.005 116.841 161.125 116.401 161.125 114.801V104.241H165.285V100.241H161.125V93.4412H154.965V100.241H151.765V104.241ZM178.792 122.161C184.272 122.161 187.752 119.281 188.832 115.521H182.752C182.072 116.841 180.832 117.601 178.872 117.601C175.832 117.601 174.112 115.681 173.712 112.481H189.232C189.272 108.281 188.192 104.681 185.792 102.361C183.912 100.641 181.512 99.6412 178.472 99.6412C171.992 99.6412 167.552 104.521 167.552 110.921C167.552 117.281 171.832 122.161 178.792 122.161ZM178.472 104.081C180.952 104.081 182.632 105.881 182.832 108.841H173.752C174.152 105.921 175.592 104.081 178.472 104.081ZM200.349 121.521H207.189L209.029 115.841H219.829L221.709 121.521H228.909L218.149 91.7612H211.069L200.349 121.521ZM212.469 105.401C213.429 102.481 214.469 97.4812 214.469 97.4812H214.549C214.549 97.4812 215.189 101.321 216.469 105.401L218.269 110.961H210.629L212.469 105.401ZM237.562 100.241H231.482V121.521H237.762V109.521C237.762 106.801 239.402 104.841 241.842 104.841C244.162 104.841 245.402 106.401 245.402 108.721V121.521H251.642V107.521C251.642 102.761 248.922 99.6412 244.242 99.6412C241.282 99.6412 239.002 100.921 237.682 103.481H237.562V100.241ZM253.992 104.241H257.192V116.161C257.192 120.481 259.872 121.761 263.832 121.761C265.512 121.761 266.792 121.561 267.472 121.441V116.761H267.152C266.752 116.801 266.112 116.841 265.712 116.841C264.232 116.841 263.352 116.401 263.352 114.801V104.241H267.512V100.241H263.352V93.4412H257.192V100.241H253.992V104.241ZM284.809 121.521H290.929V121.161C290.369 120.801 290.129 119.881 290.129 118.201V107.281C290.129 104.401 289.089 102.201 286.889 100.921C285.409 100.041 283.489 99.6412 280.769 99.6412C274.449 99.6412 271.489 103.041 271.329 106.681H277.129C277.289 105.001 278.449 103.881 280.849 103.881C283.009 103.881 284.009 104.921 284.009 106.441C284.009 108.041 282.449 108.641 278.649 109.161C274.009 109.721 270.289 110.921 270.289 115.641C270.289 119.841 273.369 122.081 277.569 122.081C280.849 122.081 282.609 120.881 284.009 118.921H284.089C284.209 120.121 284.489 121.041 284.809 121.521ZM279.529 117.961C277.809 117.961 276.409 117.281 276.409 115.441C276.409 113.601 277.729 112.921 280.489 112.321C281.889 112.001 283.249 111.681 284.169 111.121V113.881C284.169 116.201 282.329 117.961 279.529 117.961ZM300.412 100.241H294.372V121.521H300.652V111.641C300.652 107.481 302.892 105.361 306.292 105.401C306.732 105.401 307.172 105.441 307.612 105.521H307.772V100.041C307.492 99.9212 307.052 99.8812 306.452 99.8812C303.812 99.8812 301.892 101.081 300.532 104.041H300.412V100.241ZM320.588 122.201C326.508 122.201 330.348 118.441 330.548 113.601H324.508C324.228 116.041 322.828 117.441 320.508 117.441C317.348 117.441 315.748 114.801 315.748 110.921C315.748 106.921 317.348 104.321 320.508 104.321C322.588 104.321 323.868 105.561 324.308 107.521H330.388C329.628 102.881 326.108 99.6412 320.428 99.6412C313.748 99.6412 309.388 104.521 309.388 110.921C309.388 117.281 313.788 122.201 320.588 122.201ZM332.234 104.241H335.434V116.161C335.434 120.481 338.114 121.761 342.074 121.761C343.754 121.761 345.034 121.561 345.714 121.441V116.761H345.394C344.994 116.801 344.354 116.841 343.954 116.841C342.474 116.841 341.594 116.401 341.594 114.801V104.241H345.754V100.241H341.594V93.4412H335.434V100.241H332.234V104.241ZM348.981 97.2412H355.341V91.7612H348.981V97.2412ZM349.021 121.521H355.301V100.241H349.021V121.521ZM369.651 122.201C375.571 122.201 379.411 118.441 379.611 113.601H373.571C373.291 116.041 371.891 117.441 369.571 117.441C366.411 117.441 364.811 114.801 364.811 110.921C364.811 106.921 366.411 104.321 369.571 104.321C371.651 104.321 372.931 105.561 373.371 107.521H379.451C378.691 102.881 375.171 99.6412 369.491 99.6412C362.811 99.6412 358.451 104.521 358.451 110.921C358.451 117.281 362.851 122.201 369.651 122.201Z" fill="white"/>
<path d="M18.4838 26.3978C19.4018 26.5931 20.0886 26.9056 20.5444 27.3353C21.1759 27.9343 21.4916 28.6667 21.4916 29.5326C21.4916 30.1901 21.2833 30.8217 20.8666 31.4271C20.45 32.0261 19.8771 32.4655 19.1479 32.7455C18.4252 33.0189 17.3185 33.1556 15.8276 33.1556H9.57758V32.7943H10.0756C10.629 32.7943 11.0261 32.6185 11.267 32.267C11.4168 32.0391 11.4916 31.5541 11.4916 30.8119V22.2572C11.4916 21.4369 11.3972 20.9193 11.2084 20.7045C10.9545 20.418 10.5769 20.2748 10.0756 20.2748H9.57758V19.9135H15.3002C16.3679 19.9135 17.2241 19.9916 17.8686 20.1478C18.8452 20.3822 19.5906 20.7989 20.1049 21.3978C20.6192 21.9903 20.8764 22.6739 20.8764 23.4486C20.8764 24.1127 20.6746 24.7084 20.2709 25.2357C19.8673 25.7566 19.2716 26.1439 18.4838 26.3978ZM13.3666 25.8705C13.6075 25.9161 13.881 25.9519 14.187 25.9779C14.4995 25.9974 14.8412 26.0072 15.2123 26.0072C16.1629 26.0072 16.8758 25.9063 17.351 25.7045C17.8328 25.4961 18.2006 25.1804 18.4545 24.7572C18.7084 24.334 18.8354 23.8718 18.8354 23.3705C18.8354 22.5957 18.5196 21.9349 17.8881 21.3881C17.2566 20.8412 16.3354 20.5677 15.1245 20.5677C14.4734 20.5677 13.8875 20.6394 13.3666 20.7826V25.8705ZM13.3666 32.1986C14.1218 32.3744 14.8673 32.4623 15.603 32.4623C16.7814 32.4623 17.6798 32.1986 18.2983 31.6713C18.9168 31.1374 19.226 30.4799 19.226 29.6986C19.226 29.1843 19.086 28.6895 18.8061 28.2142C18.5261 27.739 18.0704 27.3646 17.4389 27.0912C16.8074 26.8177 16.0261 26.681 15.0952 26.681C14.6915 26.681 14.3465 26.6875 14.06 26.7006C13.7735 26.7136 13.5424 26.7364 13.3666 26.7689V32.1986ZM28.2787 31.8666C27.3608 32.5762 26.7846 32.9864 26.5502 33.097C26.1987 33.2598 25.8243 33.3412 25.4272 33.3412C24.8087 33.3412 24.2976 33.1296 23.894 32.7064C23.4968 32.2832 23.2983 31.7266 23.2983 31.0365C23.2983 30.6003 23.3959 30.2227 23.5912 29.9037C23.8582 29.461 24.3204 29.0443 24.978 28.6537C25.642 28.2631 26.7423 27.7878 28.2787 27.2279V26.8763C28.2787 25.9844 28.1355 25.3724 27.8491 25.0404C27.5691 24.7084 27.159 24.5424 26.6186 24.5424C26.2084 24.5424 25.8829 24.653 25.642 24.8744C25.3946 25.0957 25.2709 25.3497 25.2709 25.6361L25.2905 26.2025C25.2905 26.502 25.2123 26.7331 25.0561 26.8959C24.9064 27.0586 24.7078 27.14 24.4604 27.14C24.2195 27.14 24.0209 27.0554 23.8647 26.8861C23.7149 26.7168 23.6401 26.4857 23.6401 26.1927C23.6401 25.6329 23.9265 25.1185 24.4995 24.6498C25.0724 24.181 25.8764 23.9467 26.9116 23.9467C27.7058 23.9467 28.3569 24.0801 28.8647 24.347C29.2488 24.5489 29.532 24.8646 29.7143 25.2943C29.8315 25.5743 29.8901 26.1472 29.8901 27.0131V30.0502C29.8901 30.903 29.9064 31.4271 29.9389 31.6224C29.9715 31.8112 30.0235 31.9382 30.0952 32.0033C30.1733 32.0684 30.2612 32.101 30.3588 32.101C30.463 32.101 30.5541 32.0782 30.6323 32.0326C30.769 31.948 31.0327 31.7103 31.4233 31.3197V31.8666C30.6941 32.8431 29.9975 33.3314 29.3334 33.3314C29.0144 33.3314 28.7605 33.2207 28.5717 32.9994C28.3829 32.778 28.2853 32.4004 28.2787 31.8666ZM28.2787 31.2318V27.8236C27.2957 28.2142 26.6609 28.4909 26.3745 28.6537C25.8601 28.9401 25.4923 29.2396 25.2709 29.5521C25.0496 29.8646 24.9389 30.2064 24.9389 30.5775C24.9389 31.0463 25.0789 31.4369 25.3588 31.7494C25.6388 32.0554 25.961 32.2084 26.3256 32.2084C26.8204 32.2084 27.4715 31.8829 28.2787 31.2318ZM39.9389 24.2103V29.6302C39.9389 30.6654 39.9617 31.3002 40.0073 31.5345C40.0593 31.7624 40.1375 31.9219 40.2416 32.0131C40.3523 32.1042 40.4793 32.1498 40.6225 32.1498C40.8243 32.1498 41.0522 32.0944 41.3061 31.9838L41.4428 32.3256L38.767 33.4291H38.3276V31.5345C37.5593 32.3679 36.9734 32.892 36.5698 33.1068C36.1661 33.3217 35.7397 33.4291 35.2905 33.4291C34.7892 33.4291 34.353 33.2858 33.9819 32.9994C33.6173 32.7064 33.3634 32.3321 33.2202 31.8763C33.0769 31.4206 33.0053 30.7761 33.0053 29.9427V25.9486C33.0053 25.5254 32.9597 25.2325 32.8686 25.0697C32.7774 24.9069 32.6407 24.7832 32.4584 24.6986C32.2827 24.6075 31.9604 24.5651 31.4916 24.5717V24.2103H34.6264V30.1967C34.6264 31.03 34.7696 31.5769 35.0561 31.8373C35.3491 32.0977 35.7006 32.2279 36.1108 32.2279C36.3907 32.2279 36.7065 32.14 37.058 31.9642C37.4161 31.7885 37.8393 31.4532 38.3276 30.9584V25.89C38.3276 25.3822 38.2332 25.0404 38.0444 24.8646C37.8621 24.6823 37.478 24.5847 36.892 24.5717V24.2103H39.9389ZM44.7241 19.2689V25.8119C45.4467 25.0176 46.0196 24.5098 46.4428 24.2885C46.866 24.0606 47.2892 23.9467 47.7123 23.9467C48.2202 23.9467 48.6564 24.0866 49.0209 24.3666C49.3855 24.6465 49.6557 25.086 49.8315 25.6849C49.9552 26.1016 50.017 26.8633 50.017 27.9701V31.1342C50.017 31.7006 50.0626 32.0879 50.1537 32.2963C50.2189 32.4525 50.3295 32.5762 50.4858 32.6674C50.642 32.7585 50.9285 32.8041 51.3452 32.8041V33.1556H46.9506V32.8041H47.1557C47.5724 32.8041 47.8621 32.7422 48.0248 32.6185C48.1876 32.4883 48.3015 32.2995 48.3666 32.0521C48.3862 31.948 48.3959 31.642 48.3959 31.1342V27.9701C48.3959 26.9935 48.3439 26.3523 48.2397 26.0463C48.142 25.7403 47.9825 25.5124 47.7612 25.3627C47.5398 25.2064 47.2729 25.1283 46.9604 25.1283C46.6414 25.1283 46.3093 25.2129 45.9643 25.3822C45.6192 25.5515 45.2058 25.8933 44.7241 26.4076V31.1342C44.7241 31.7461 44.7566 32.127 44.8217 32.2767C44.8933 32.4265 45.0203 32.5534 45.2026 32.6576C45.3914 32.7552 45.7136 32.8041 46.1694 32.8041V33.1556H41.7358V32.8041C42.1329 32.8041 42.4454 32.7422 42.6733 32.6185C42.8035 32.5534 42.9077 32.4297 42.9858 32.2474C43.0639 32.0651 43.103 31.6941 43.103 31.1342V23.0385C43.103 22.0163 43.0769 21.3881 43.0248 21.1537C42.9793 20.9193 42.9044 20.7598 42.8002 20.6752C42.7026 20.5905 42.5691 20.5482 42.3998 20.5482C42.2631 20.5482 42.0418 20.6003 41.7358 20.7045L41.5991 20.3627L44.2748 19.2689H44.7241ZM57.1655 31.8666C56.2475 32.5762 55.6713 32.9864 55.437 33.097C55.0854 33.2598 54.711 33.3412 54.3139 33.3412C53.6954 33.3412 53.1843 33.1296 52.7807 32.7064C52.3836 32.2832 52.185 31.7266 52.185 31.0365C52.185 30.6003 52.2827 30.2227 52.478 29.9037C52.7449 29.461 53.2071 29.0443 53.8647 28.6537C54.5287 28.2631 55.629 27.7878 57.1655 27.2279V26.8763C57.1655 25.9844 57.0222 25.3724 56.7358 25.0404C56.4558 24.7084 56.0457 24.5424 55.5053 24.5424C55.0952 24.5424 54.7696 24.653 54.5287 24.8744C54.2814 25.0957 54.1577 25.3497 54.1577 25.6361L54.1772 26.2025C54.1772 26.502 54.0991 26.7331 53.9428 26.8959C53.7931 27.0586 53.5945 27.14 53.3471 27.14C53.1062 27.14 52.9077 27.0554 52.7514 26.8861C52.6017 26.7168 52.5268 26.4857 52.5268 26.1927C52.5268 25.6329 52.8133 25.1185 53.3862 24.6498C53.9591 24.181 54.7631 23.9467 55.7983 23.9467C56.5925 23.9467 57.2436 24.0801 57.7514 24.347C58.1355 24.5489 58.4187 24.8646 58.601 25.2943C58.7182 25.5743 58.7768 26.1472 58.7768 27.0131V30.0502C58.7768 30.903 58.7931 31.4271 58.8256 31.6224C58.8582 31.8112 58.9103 31.9382 58.9819 32.0033C59.06 32.0684 59.1479 32.101 59.2455 32.101C59.3497 32.101 59.4409 32.0782 59.519 32.0326C59.6557 31.948 59.9194 31.7103 60.31 31.3197V31.8666C59.5808 32.8431 58.8842 33.3314 58.2202 33.3314C57.9011 33.3314 57.6472 33.2207 57.4584 32.9994C57.2696 32.778 57.172 32.4004 57.1655 31.8666ZM57.1655 31.2318V27.8236C56.1824 28.2142 55.5476 28.4909 55.2612 28.6537C54.7468 28.9401 54.379 29.2396 54.1577 29.5521C53.9363 29.8646 53.8256 30.2064 53.8256 30.5775C53.8256 31.0463 53.9656 31.4369 54.2455 31.7494C54.5255 32.0554 54.8478 32.2084 55.2123 32.2084C55.7071 32.2084 56.3582 31.8829 57.1655 31.2318ZM68.8256 24.2103V29.6302C68.8256 30.6654 68.8484 31.3002 68.894 31.5345C68.9461 31.7624 69.0242 31.9219 69.1284 32.0131C69.239 32.1042 69.366 32.1498 69.5092 32.1498C69.711 32.1498 69.9389 32.0944 70.1928 31.9838L70.3295 32.3256L67.6537 33.4291H67.2143V31.5345C66.4461 32.3679 65.8601 32.892 65.4565 33.1068C65.0528 33.3217 64.6264 33.4291 64.1772 33.4291C63.6759 33.4291 63.2397 33.2858 62.8686 32.9994C62.504 32.7064 62.2501 32.3321 62.1069 31.8763C61.9636 31.4206 61.892 30.7761 61.892 29.9427V25.9486C61.892 25.5254 61.8465 25.2325 61.7553 25.0697C61.6642 24.9069 61.5274 24.7832 61.3452 24.6986C61.1694 24.6075 60.8471 24.5651 60.3784 24.5717V24.2103H63.5131V30.1967C63.5131 31.03 63.6564 31.5769 63.9428 31.8373C64.2358 32.0977 64.5873 32.2279 64.9975 32.2279C65.2774 32.2279 65.5932 32.14 65.9448 31.9642C66.3028 31.7885 66.726 31.4532 67.2143 30.9584V25.89C67.2143 25.3822 67.1199 25.0404 66.9311 24.8646C66.7488 24.6823 66.3647 24.5847 65.7787 24.5717V24.2103H68.8256ZM76.7651 23.9467V26.9935H76.4428C76.1954 26.0365 75.8764 25.3855 75.4858 25.0404C75.1017 24.6954 74.6101 24.5228 74.0112 24.5228C73.5554 24.5228 73.1876 24.6433 72.9077 24.8842C72.6277 25.125 72.4877 25.392 72.4877 25.6849C72.4877 26.0495 72.5919 26.362 72.8002 26.6224C73.0021 26.8894 73.4122 27.1726 74.0307 27.472L75.4565 28.1654C76.7781 28.8099 77.4389 29.6595 77.4389 30.7142C77.4389 31.528 77.1297 32.1856 76.5112 32.6869C75.8992 33.1817 75.2123 33.4291 74.4506 33.4291C73.9037 33.4291 73.2787 33.3314 72.5756 33.1361C72.3608 33.071 72.185 33.0385 72.0483 33.0385C71.8985 33.0385 71.7814 33.1231 71.6967 33.2924H71.3745V30.099H71.6967C71.879 31.0105 72.2273 31.6973 72.7416 32.1595C73.256 32.6218 73.8321 32.8529 74.4702 32.8529C74.9194 32.8529 75.284 32.7227 75.5639 32.4623C75.8504 32.1954 75.9936 31.8763 75.9936 31.5052C75.9936 31.056 75.8341 30.6784 75.5151 30.3724C75.2026 30.0664 74.5743 29.6791 73.6303 29.2103C72.6863 28.7416 72.0678 28.3184 71.7748 27.9408C71.4819 27.5697 71.3354 27.101 71.3354 26.5345C71.3354 25.7989 71.586 25.1836 72.0873 24.6888C72.5952 24.1941 73.2495 23.9467 74.0502 23.9467C74.4018 23.9467 74.8282 24.0215 75.3295 24.1713C75.6616 24.2689 75.8829 24.3177 75.9936 24.3177C76.0978 24.3177 76.1791 24.295 76.2377 24.2494C76.2963 24.2038 76.3647 24.1029 76.4428 23.9467H76.7651ZM83.4936 33.1556V32.7943H83.9916C84.5515 32.7943 84.9487 32.6153 85.183 32.2572C85.3263 32.0424 85.3979 31.5606 85.3979 30.8119V22.2572C85.3979 21.4304 85.3067 20.9128 85.1245 20.7045C84.8705 20.418 84.4929 20.2748 83.9916 20.2748H83.4936V19.9135H88.8842C90.8634 19.9135 92.3673 20.1381 93.3959 20.5873C94.4311 21.0365 95.2612 21.7852 95.8862 22.8334C96.5177 23.8816 96.8334 25.0925 96.8334 26.4662C96.8334 28.3086 96.2735 29.8483 95.1537 31.0853C93.8972 32.4655 91.9832 33.1556 89.4116 33.1556H83.4936ZM87.2729 32.1986C88.0997 32.3809 88.7931 32.472 89.353 32.472C90.8634 32.472 92.1166 31.9414 93.1127 30.8802C94.1088 29.8191 94.6069 28.3802 94.6069 26.5638C94.6069 24.7344 94.1088 23.2924 93.1127 22.2377C92.1166 21.183 90.8373 20.6556 89.2748 20.6556C88.6889 20.6556 88.0216 20.75 87.2729 20.9388V32.1986ZM99.7338 27.5795C99.7273 28.9076 100.05 29.9493 100.701 30.7045C101.352 31.4597 102.117 31.8373 102.996 31.8373C103.581 31.8373 104.089 31.6778 104.519 31.3588C104.955 31.0332 105.32 30.4799 105.613 29.6986L105.915 29.8939C105.779 30.7858 105.382 31.5997 104.724 32.3353C104.067 33.0645 103.243 33.4291 102.253 33.4291C101.179 33.4291 100.258 33.0124 99.4897 32.1791C98.728 31.3392 98.3471 30.2129 98.3471 28.8002C98.3471 27.2702 98.7377 26.0788 99.519 25.226C100.307 24.3666 101.293 23.9369 102.478 23.9369C103.481 23.9369 104.304 24.2689 104.949 24.933C105.593 25.5905 105.915 26.4727 105.915 27.5795H99.7338ZM99.7338 27.0131H103.874C103.842 26.4401 103.774 26.0365 103.669 25.8021C103.507 25.4375 103.262 25.1511 102.937 24.9427C102.618 24.7344 102.283 24.6302 101.931 24.6302C101.391 24.6302 100.906 24.8418 100.476 25.265C100.053 25.6817 99.8054 26.2644 99.7338 27.0131ZM112.898 23.9467V26.9935H112.576C112.328 26.0365 112.009 25.3855 111.619 25.0404C111.234 24.6954 110.743 24.5228 110.144 24.5228C109.688 24.5228 109.32 24.6433 109.04 24.8842C108.761 25.125 108.621 25.392 108.621 25.6849C108.621 26.0495 108.725 26.362 108.933 26.6224C109.135 26.8894 109.545 27.1726 110.164 27.472L111.589 28.1654C112.911 28.8099 113.572 29.6595 113.572 30.7142C113.572 31.528 113.262 32.1856 112.644 32.6869C112.032 33.1817 111.345 33.4291 110.583 33.4291C110.037 33.4291 109.412 33.3314 108.708 33.1361C108.494 33.071 108.318 33.0385 108.181 33.0385C108.031 33.0385 107.914 33.1231 107.83 33.2924H107.507V30.099H107.83C108.012 31.0105 108.36 31.6973 108.874 32.1595C109.389 32.6218 109.965 32.8529 110.603 32.8529C111.052 32.8529 111.417 32.7227 111.697 32.4623C111.983 32.1954 112.126 31.8763 112.126 31.5052C112.126 31.056 111.967 30.6784 111.648 30.3724C111.335 30.0664 110.707 29.6791 109.763 29.2103C108.819 28.7416 108.201 28.3184 107.908 27.9408C107.615 27.5697 107.468 27.101 107.468 26.5345C107.468 25.7989 107.719 25.1836 108.22 24.6888C108.728 24.1941 109.382 23.9467 110.183 23.9467C110.535 23.9467 110.961 24.0215 111.462 24.1713C111.794 24.2689 112.016 24.3177 112.126 24.3177C112.231 24.3177 112.312 24.295 112.371 24.2494C112.429 24.2038 112.497 24.1029 112.576 23.9467H112.898ZM120.691 23.9467V26.9935H120.369C120.121 26.0365 119.802 25.3855 119.412 25.0404C119.027 24.6954 118.536 24.5228 117.937 24.5228C117.481 24.5228 117.113 24.6433 116.833 24.8842C116.553 25.125 116.414 25.392 116.414 25.6849C116.414 26.0495 116.518 26.362 116.726 26.6224C116.928 26.8894 117.338 27.1726 117.956 27.472L119.382 28.1654C120.704 28.8099 121.365 29.6595 121.365 30.7142C121.365 31.528 121.055 32.1856 120.437 32.6869C119.825 33.1817 119.138 33.4291 118.376 33.4291C117.83 33.4291 117.205 33.3314 116.501 33.1361C116.287 33.071 116.111 33.0385 115.974 33.0385C115.824 33.0385 115.707 33.1231 115.622 33.2924H115.3V30.099H115.622C115.805 31.0105 116.153 31.6973 116.667 32.1595C117.182 32.6218 117.758 32.8529 118.396 32.8529C118.845 32.8529 119.21 32.7227 119.49 32.4623C119.776 32.1954 119.919 31.8763 119.919 31.5052C119.919 31.056 119.76 30.6784 119.441 30.3724C119.128 30.0664 118.5 29.6791 117.556 29.2103C116.612 28.7416 115.994 28.3184 115.701 27.9408C115.408 27.5697 115.261 27.101 115.261 26.5345C115.261 25.7989 115.512 25.1836 116.013 24.6888C116.521 24.1941 117.175 23.9467 117.976 23.9467C118.328 23.9467 118.754 24.0215 119.255 24.1713C119.587 24.2689 119.809 24.3177 119.919 24.3177C120.024 24.3177 120.105 24.295 120.164 24.2494C120.222 24.2038 120.29 24.1029 120.369 23.9467H120.691ZM127.771 31.8666C126.853 32.5762 126.277 32.9864 126.042 33.097C125.691 33.2598 125.317 33.3412 124.919 33.3412C124.301 33.3412 123.79 33.1296 123.386 32.7064C122.989 32.2832 122.79 31.7266 122.79 31.0365C122.79 30.6003 122.888 30.2227 123.083 29.9037C123.35 29.461 123.813 29.0443 124.47 28.6537C125.134 28.2631 126.234 27.7878 127.771 27.2279V26.8763C127.771 25.9844 127.628 25.3724 127.341 25.0404C127.061 24.7084 126.651 24.5424 126.111 24.5424C125.701 24.5424 125.375 24.653 125.134 24.8744C124.887 25.0957 124.763 25.3497 124.763 25.6361L124.783 26.2025C124.783 26.502 124.705 26.7331 124.548 26.8959C124.399 27.0586 124.2 27.14 123.953 27.14C123.712 27.14 123.513 27.0554 123.357 26.8861C123.207 26.7168 123.132 26.4857 123.132 26.1927C123.132 25.6329 123.419 25.1185 123.992 24.6498C124.565 24.181 125.369 23.9467 126.404 23.9467C127.198 23.9467 127.849 24.0801 128.357 24.347C128.741 24.5489 129.024 24.8646 129.206 25.2943C129.324 25.5743 129.382 26.1472 129.382 27.0131V30.0502C129.382 30.903 129.399 31.4271 129.431 31.6224C129.464 31.8112 129.516 31.9382 129.587 32.0033C129.665 32.0684 129.753 32.101 129.851 32.101C129.955 32.101 130.046 32.0782 130.124 32.0326C130.261 31.948 130.525 31.7103 130.915 31.3197V31.8666C130.186 32.8431 129.49 33.3314 128.826 33.3314C128.507 33.3314 128.253 33.2207 128.064 32.9994C127.875 32.778 127.777 32.4004 127.771 31.8666ZM127.771 31.2318V27.8236C126.788 28.2142 126.153 28.4909 125.867 28.6537C125.352 28.9401 124.984 29.2396 124.763 29.5521C124.542 29.8646 124.431 30.2064 124.431 30.5775C124.431 31.0463 124.571 31.4369 124.851 31.7494C125.131 32.0554 125.453 32.2084 125.818 32.2084C126.313 32.2084 126.964 31.8829 127.771 31.2318ZM139.431 24.2103V29.6302C139.431 30.6654 139.454 31.3002 139.499 31.5345C139.552 31.7624 139.63 31.9219 139.734 32.0131C139.845 32.1042 139.971 32.1498 140.115 32.1498C140.317 32.1498 140.544 32.0944 140.798 31.9838L140.935 32.3256L138.259 33.4291H137.82V31.5345C137.052 32.3679 136.466 32.892 136.062 33.1068C135.658 33.3217 135.232 33.4291 134.783 33.4291C134.281 33.4291 133.845 33.2858 133.474 32.9994C133.109 32.7064 132.856 32.3321 132.712 31.8763C132.569 31.4206 132.497 30.7761 132.497 29.9427V25.9486C132.497 25.5254 132.452 25.2325 132.361 25.0697C132.27 24.9069 132.133 24.7832 131.951 24.6986C131.775 24.6075 131.453 24.5651 130.984 24.5717V24.2103H134.119V30.1967C134.119 31.03 134.262 31.5769 134.548 31.8373C134.841 32.0977 135.193 32.2279 135.603 32.2279C135.883 32.2279 136.199 32.14 136.55 31.9642C136.908 31.7885 137.331 31.4532 137.82 30.9584V25.89C137.82 25.3822 137.725 25.0404 137.537 24.8646C137.354 24.6823 136.97 24.5847 136.384 24.5717V24.2103H139.431ZM150.056 20.6361V25.8412H152.468C153.022 25.8412 153.425 25.7207 153.679 25.4799C153.94 25.2325 154.112 24.7474 154.197 24.0248H154.558V28.5072H154.197C154.19 27.9929 154.122 27.6153 153.992 27.3744C153.868 27.1335 153.692 26.9545 153.464 26.8373C153.243 26.7136 152.911 26.6517 152.468 26.6517H150.056V30.8119C150.056 31.4825 150.098 31.9252 150.183 32.14C150.248 32.3028 150.385 32.4427 150.593 32.5599C150.88 32.7162 151.179 32.7943 151.492 32.7943H151.97V33.1556H146.287V32.7943H146.755C147.302 32.7943 147.699 32.6348 147.947 32.3158C148.103 32.1075 148.181 31.6062 148.181 30.8119V22.2572C148.181 21.5866 148.139 21.1439 148.054 20.9291C147.989 20.7663 147.856 20.6263 147.654 20.5092C147.374 20.3529 147.074 20.2748 146.755 20.2748H146.287V19.9135H156.14L156.267 22.8236H155.925C155.756 22.2051 155.557 21.7526 155.33 21.4662C155.108 21.1732 154.831 20.9616 154.499 20.8314C154.174 20.7012 153.666 20.6361 152.976 20.6361H150.056ZM162.097 23.9467C163.451 23.9467 164.539 24.461 165.359 25.4896C166.055 26.3685 166.404 27.3776 166.404 28.517C166.404 29.3177 166.212 30.1283 165.828 30.9486C165.443 31.7689 164.913 32.3874 164.236 32.8041C163.565 33.2207 162.817 33.4291 161.99 33.4291C160.642 33.4291 159.571 32.892 158.777 31.8177C158.106 30.9128 157.771 29.8972 157.771 28.7709C157.771 27.9506 157.973 27.1368 158.376 26.3295C158.787 25.5157 159.324 24.9167 159.988 24.5326C160.652 24.142 161.355 23.9467 162.097 23.9467ZM161.794 24.5814C161.449 24.5814 161.101 24.6856 160.749 24.8939C160.404 25.0957 160.124 25.4538 159.91 25.9681C159.695 26.4825 159.587 27.1433 159.587 27.9506C159.587 29.2526 159.845 30.3757 160.359 31.3197C160.88 32.2637 161.563 32.7357 162.41 32.7357C163.041 32.7357 163.562 32.4753 163.972 31.9545C164.382 31.4336 164.587 30.5385 164.587 29.2689C164.587 27.6804 164.246 26.4304 163.562 25.5189C163.1 24.8939 162.511 24.5814 161.794 24.5814ZM175.564 24.2103V29.6302C175.564 30.6654 175.587 31.3002 175.632 31.5345C175.684 31.7624 175.762 31.9219 175.867 32.0131C175.977 32.1042 176.104 32.1498 176.247 32.1498C176.449 32.1498 176.677 32.0944 176.931 31.9838L177.068 32.3256L174.392 33.4291H173.953V31.5345C173.184 32.3679 172.598 32.892 172.195 33.1068C171.791 33.3217 171.365 33.4291 170.915 33.4291C170.414 33.4291 169.978 33.2858 169.607 32.9994C169.242 32.7064 168.988 32.3321 168.845 31.8763C168.702 31.4206 168.63 30.7761 168.63 29.9427V25.9486C168.63 25.5254 168.585 25.2325 168.494 25.0697C168.402 24.9069 168.266 24.7832 168.083 24.6986C167.908 24.6075 167.585 24.5651 167.117 24.5717V24.2103H170.251V30.1967C170.251 31.03 170.395 31.5769 170.681 31.8373C170.974 32.0977 171.326 32.2279 171.736 32.2279C172.016 32.2279 172.331 32.14 172.683 31.9642C173.041 31.7885 173.464 31.4532 173.953 30.9584V25.89C173.953 25.3822 173.858 25.0404 173.669 24.8646C173.487 24.6823 173.103 24.5847 172.517 24.5717V24.2103H175.564ZM180.33 25.8412C181.378 24.5782 182.377 23.9467 183.328 23.9467C183.816 23.9467 184.236 24.0704 184.587 24.3177C184.939 24.5586 185.219 24.959 185.427 25.5189C185.57 25.9095 185.642 26.5085 185.642 27.3158V31.1342C185.642 31.7006 185.688 32.0847 185.779 32.2865C185.85 32.4493 185.964 32.5762 186.121 32.6674C186.283 32.7585 186.58 32.8041 187.009 32.8041V33.1556H182.585V32.8041H182.771C183.188 32.8041 183.477 32.7422 183.64 32.6185C183.809 32.4883 183.927 32.2995 183.992 32.0521C184.018 31.9545 184.031 31.6485 184.031 31.1342V27.472C184.031 26.6582 183.923 26.0691 183.708 25.7045C183.5 25.3334 183.145 25.1478 182.644 25.1478C181.869 25.1478 181.098 25.571 180.33 26.4174V31.1342C180.33 31.7396 180.365 32.114 180.437 32.2572C180.528 32.446 180.652 32.586 180.808 32.6771C180.971 32.7618 181.296 32.8041 181.785 32.8041V33.1556H177.361V32.8041H177.556C178.012 32.8041 178.318 32.6901 178.474 32.4623C178.637 32.2279 178.718 31.7852 178.718 31.1342V27.8138C178.718 26.7396 178.692 26.0853 178.64 25.851C178.595 25.6166 178.52 25.4571 178.415 25.3724C178.318 25.2878 178.184 25.2455 178.015 25.2455C177.833 25.2455 177.615 25.2943 177.361 25.392L177.214 25.0404L179.91 23.9467H180.33V25.8412ZM194.04 32.1498C193.604 32.6055 193.178 32.9343 192.761 33.1361C192.345 33.3314 191.895 33.4291 191.414 33.4291C190.437 33.4291 189.584 33.0222 188.855 32.2084C188.126 31.3881 187.761 30.3366 187.761 29.0541C187.761 27.7715 188.165 26.5997 188.972 25.5385C189.779 24.4707 190.818 23.9369 192.087 23.9369C192.875 23.9369 193.526 24.1875 194.04 24.6888V23.0385C194.04 22.0163 194.014 21.3881 193.962 21.1537C193.917 20.9193 193.842 20.7598 193.738 20.6752C193.634 20.5905 193.503 20.5482 193.347 20.5482C193.178 20.5482 192.953 20.6003 192.673 20.7045L192.546 20.3627L195.212 19.2689H195.652V29.6107C195.652 30.6589 195.675 31.3002 195.72 31.5345C195.772 31.7624 195.85 31.9219 195.955 32.0131C196.065 32.1042 196.192 32.1498 196.335 32.1498C196.511 32.1498 196.746 32.0944 197.039 31.9838L197.146 32.3256L194.49 33.4291H194.04V32.1498ZM194.04 31.4662V26.8568C194.001 26.4141 193.884 26.0105 193.689 25.6459C193.494 25.2813 193.233 25.0079 192.908 24.8256C192.589 24.6368 192.276 24.5424 191.97 24.5424C191.397 24.5424 190.886 24.7995 190.437 25.3138C189.845 25.9909 189.548 26.9805 189.548 28.2826C189.548 29.5977 189.835 30.6068 190.408 31.3099C190.981 32.0066 191.619 32.3549 192.322 32.3549C192.914 32.3549 193.487 32.0586 194.04 31.4662ZM202.79 31.8666C201.872 32.5762 201.296 32.9864 201.062 33.097C200.71 33.2598 200.336 33.3412 199.939 33.3412C199.32 33.3412 198.809 33.1296 198.406 32.7064C198.009 32.2832 197.81 31.7266 197.81 31.0365C197.81 30.6003 197.908 30.2227 198.103 29.9037C198.37 29.461 198.832 29.0443 199.49 28.6537C200.154 28.2631 201.254 27.7878 202.79 27.2279V26.8763C202.79 25.9844 202.647 25.3724 202.361 25.0404C202.081 24.7084 201.671 24.5424 201.13 24.5424C200.72 24.5424 200.395 24.653 200.154 24.8744C199.906 25.0957 199.783 25.3497 199.783 25.6361L199.802 26.2025C199.802 26.502 199.724 26.7331 199.568 26.8959C199.418 27.0586 199.22 27.14 198.972 27.14C198.731 27.14 198.533 27.0554 198.376 26.8861C198.227 26.7168 198.152 26.4857 198.152 26.1927C198.152 25.6329 198.438 25.1185 199.011 24.6498C199.584 24.181 200.388 23.9467 201.423 23.9467C202.218 23.9467 202.869 24.0801 203.376 24.347C203.761 24.5489 204.044 24.8646 204.226 25.2943C204.343 25.5743 204.402 26.1472 204.402 27.0131V30.0502C204.402 30.903 204.418 31.4271 204.451 31.6224C204.483 31.8112 204.535 31.9382 204.607 32.0033C204.685 32.0684 204.773 32.101 204.871 32.101C204.975 32.101 205.066 32.0782 205.144 32.0326C205.281 31.948 205.544 31.7103 205.935 31.3197V31.8666C205.206 32.8431 204.509 33.3314 203.845 33.3314C203.526 33.3314 203.272 33.2207 203.083 32.9994C202.895 32.778 202.797 32.4004 202.79 31.8666ZM202.79 31.2318V27.8236C201.807 28.2142 201.173 28.4909 200.886 28.6537C200.372 28.9401 200.004 29.2396 199.783 29.5521C199.561 29.8646 199.451 30.2064 199.451 30.5775C199.451 31.0463 199.591 31.4369 199.871 31.7494C200.15 32.0554 200.473 32.2084 200.837 32.2084C201.332 32.2084 201.983 31.8829 202.79 31.2318ZM209.206 21.2709V24.2103H211.296V24.8939H209.206V30.6947C209.206 31.2741 209.288 31.6648 209.451 31.8666C209.62 32.0684 209.835 32.1693 210.095 32.1693C210.31 32.1693 210.518 32.1042 210.72 31.974C210.922 31.8373 211.078 31.6387 211.189 31.3783H211.57C211.342 32.0163 211.02 32.4981 210.603 32.8236C210.186 33.1426 209.757 33.3021 209.314 33.3021C209.014 33.3021 208.721 33.2207 208.435 33.058C208.149 32.8887 207.937 32.6511 207.8 32.3451C207.664 32.0326 207.595 31.5541 207.595 30.9095V24.8939H206.179V24.5717C206.537 24.4284 206.902 24.1875 207.273 23.849C207.65 23.5039 207.986 23.097 208.279 22.6283C208.428 22.3809 208.637 21.9284 208.904 21.2709H209.206ZM214.451 19.2689C214.724 19.2689 214.955 19.3666 215.144 19.5619C215.339 19.7507 215.437 19.9818 215.437 20.2552C215.437 20.5287 215.339 20.7631 215.144 20.9584C214.955 21.1537 214.724 21.2513 214.451 21.2513C214.177 21.2513 213.943 21.1537 213.747 20.9584C213.552 20.7631 213.455 20.5287 213.455 20.2552C213.455 19.9818 213.549 19.7507 213.738 19.5619C213.933 19.3666 214.171 19.2689 214.451 19.2689ZM215.261 23.9467V31.1342C215.261 31.6941 215.3 32.0684 215.378 32.2572C215.463 32.4395 215.583 32.5762 215.74 32.6674C215.902 32.7585 216.195 32.8041 216.619 32.8041V33.1556H212.273V32.8041C212.709 32.8041 213.002 32.7618 213.152 32.6771C213.302 32.5925 213.419 32.4525 213.503 32.2572C213.595 32.0619 213.64 31.6875 213.64 31.1342V27.6869C213.64 26.7168 213.611 26.0886 213.552 25.8021C213.507 25.5938 213.435 25.4506 213.337 25.3724C213.24 25.2878 213.106 25.2455 212.937 25.2455C212.755 25.2455 212.533 25.2943 212.273 25.392L212.136 25.0404L214.831 23.9467H215.261ZM222.117 23.9467C223.471 23.9467 224.558 24.461 225.378 25.4896C226.075 26.3685 226.423 27.3776 226.423 28.517C226.423 29.3177 226.231 30.1283 225.847 30.9486C225.463 31.7689 224.932 32.3874 224.255 32.8041C223.585 33.2207 222.836 33.4291 222.009 33.4291C220.662 33.4291 219.591 32.892 218.796 31.8177C218.126 30.9128 217.79 29.8972 217.79 28.7709C217.79 27.9506 217.992 27.1368 218.396 26.3295C218.806 25.5157 219.343 24.9167 220.007 24.5326C220.671 24.142 221.374 23.9467 222.117 23.9467ZM221.814 24.5814C221.469 24.5814 221.121 24.6856 220.769 24.8939C220.424 25.0957 220.144 25.4538 219.929 25.9681C219.714 26.4825 219.607 27.1433 219.607 27.9506C219.607 29.2526 219.864 30.3757 220.378 31.3197C220.899 32.2637 221.583 32.7357 222.429 32.7357C223.061 32.7357 223.581 32.4753 223.992 31.9545C224.402 31.4336 224.607 30.5385 224.607 29.2689C224.607 27.6804 224.265 26.4304 223.581 25.5189C223.119 24.8939 222.53 24.5814 221.814 24.5814ZM230.349 25.8412C231.397 24.5782 232.397 23.9467 233.347 23.9467C233.835 23.9467 234.255 24.0704 234.607 24.3177C234.958 24.5586 235.238 24.959 235.447 25.5189C235.59 25.9095 235.662 26.5085 235.662 27.3158V31.1342C235.662 31.7006 235.707 32.0847 235.798 32.2865C235.87 32.4493 235.984 32.5762 236.14 32.6674C236.303 32.7585 236.599 32.8041 237.029 32.8041V33.1556H232.605V32.8041H232.79C233.207 32.8041 233.497 32.7422 233.66 32.6185C233.829 32.4883 233.946 32.2995 234.011 32.0521C234.037 31.9545 234.05 31.6485 234.05 31.1342V27.472C234.05 26.6582 233.943 26.0691 233.728 25.7045C233.52 25.3334 233.165 25.1478 232.664 25.1478C231.889 25.1478 231.117 25.571 230.349 26.4174V31.1342C230.349 31.7396 230.385 32.114 230.456 32.2572C230.548 32.446 230.671 32.586 230.828 32.6771C230.99 32.7618 231.316 32.8041 231.804 32.8041V33.1556H227.38V32.8041H227.576C228.031 32.8041 228.337 32.6901 228.494 32.4623C228.656 32.2279 228.738 31.7852 228.738 31.1342V27.8138C228.738 26.7396 228.712 26.0853 228.66 25.851C228.614 25.6166 228.539 25.4571 228.435 25.3724C228.337 25.2878 228.204 25.2455 228.035 25.2455C227.852 25.2455 227.634 25.2943 227.38 25.392L227.234 25.0404L229.929 23.9467H230.349V25.8412Z" fill="white"/>
<a href="https://www.e-flux.com/institutions/82623/bauhaus-dessau-foundation/">
<rect fill="black" fill-opacity="0" y="0.000976562" width="227.871" height="22.998"/>
</a>
</svg>
