<svg width="468" height="312" viewBox="0 0 468 312" fill="none" xmlns="http://www.w3.org/2000/svg">
<rect width="468" height="312" fill="black"/>
<path d="M20.4455 54.645C24.0455 54.645 26.7255 53.405 28.3255 51.405C29.6055 49.885 30.2055 47.885 30.2055 45.405V24.325H23.3655V45.245C23.3655 47.645 22.3255 49.005 20.0455 49.005C17.8055 49.005 16.5255 47.885 16.5255 44.925V42.805H10.2455V45.085C10.2455 50.965 13.6455 54.645 20.4455 54.645ZM44.7696 54.765C51.5296 54.765 55.9696 49.845 55.9696 43.485C55.9696 37.085 51.5296 32.205 44.7696 32.205C37.9696 32.205 33.4896 37.085 33.4896 43.485C33.4896 49.845 37.9696 54.765 44.7696 54.765ZM44.7296 50.205C41.5296 50.205 39.8496 47.485 39.8496 43.485C39.8496 39.445 41.5296 36.685 44.7296 36.685C47.8496 36.685 49.6096 39.445 49.6096 43.485C49.6096 47.485 47.8496 50.205 44.7296 50.205ZM72.778 54.085H78.898V53.725C78.338 53.365 78.098 52.445 78.098 50.765V39.845C78.098 36.965 77.058 34.765 74.858 33.485C73.378 32.605 71.458 32.205 68.738 32.205C62.418 32.205 59.458 35.605 59.298 39.245H65.098C65.258 37.565 66.418 36.445 68.818 36.445C70.978 36.445 71.978 37.485 71.978 39.005C71.978 40.605 70.418 41.205 66.618 41.725C61.978 42.285 58.258 43.485 58.258 48.205C58.258 52.405 61.338 54.645 65.538 54.645C68.818 54.645 70.578 53.445 71.978 51.485H72.058C72.178 52.685 72.458 53.605 72.778 54.085ZM67.498 50.525C65.778 50.525 64.378 49.845 64.378 48.005C64.378 46.165 65.698 45.485 68.458 44.885C69.858 44.565 71.218 44.245 72.138 43.685V46.445C72.138 48.765 70.298 50.525 67.498 50.525ZM88.3812 32.805H82.3412V54.085H88.6212V44.205C88.6212 40.045 90.8612 37.925 94.2612 37.965C94.7012 37.965 95.1412 38.005 95.5812 38.085H95.7412V32.605C95.4612 32.485 95.0212 32.445 94.4212 32.445C91.7812 32.445 89.8612 33.645 88.5012 36.605H88.3812V32.805ZM108.836 54.085H115.356V42.125C115.356 38.725 114.996 33.365 114.996 33.365H115.076C115.076 33.365 117.396 38.325 119.196 41.325L126.956 54.085H133.956V24.325H127.436V36.365C127.436 39.765 127.796 45.085 127.796 45.085H127.716C127.716 45.085 125.396 40.245 123.636 37.245L115.796 24.325H108.836V54.085ZM152.153 54.085H158.273V53.725C157.713 53.365 157.473 52.445 157.473 50.765V39.845C157.473 36.965 156.433 34.765 154.233 33.485C152.753 32.605 150.833 32.205 148.113 32.205C141.793 32.205 138.833 35.605 138.673 39.245H144.473C144.633 37.565 145.793 36.445 148.193 36.445C150.353 36.445 151.353 37.485 151.353 39.005C151.353 40.605 149.793 41.205 145.993 41.725C141.353 42.285 137.633 43.485 137.633 48.205C137.633 52.405 140.713 54.645 144.913 54.645C148.193 54.645 149.953 53.445 151.353 51.485H151.433C151.553 52.685 151.833 53.605 152.153 54.085ZM146.873 50.525C145.153 50.525 143.753 49.845 143.753 48.005C143.753 46.165 145.073 45.485 147.833 44.885C149.233 44.565 150.593 44.245 151.513 43.685V46.445C151.513 48.765 149.673 50.525 146.873 50.525ZM167.796 32.805H161.716V54.085H167.996V42.085C167.996 39.365 169.636 37.405 172.076 37.405C174.396 37.405 175.636 38.965 175.636 41.285V54.085H181.876V40.085C181.876 35.325 179.156 32.205 174.476 32.205C171.516 32.205 169.236 33.485 167.916 36.045H167.796V32.805ZM195.737 61.485C198.857 61.485 201.577 60.765 203.417 59.165C205.137 57.645 206.177 55.365 206.177 52.205V32.805H200.177V35.525H200.097C198.897 33.165 196.857 32.205 193.977 32.205C188.737 32.205 185.017 36.485 185.017 42.685C185.017 49.125 189.377 52.765 194.297 52.765C196.937 52.765 198.817 51.725 200.057 49.645H200.217C200.137 50.365 200.097 51.365 200.097 52.445V52.885C200.097 55.485 198.617 57.005 195.657 57.005C193.217 57.005 192.017 56.125 191.617 54.845H185.497C186.137 59.045 189.897 61.485 195.737 61.485ZM195.697 48.045C192.897 48.045 191.177 45.885 191.177 42.525C191.177 39.125 192.897 36.965 195.657 36.965C198.737 36.965 200.297 39.325 200.297 42.485C200.297 45.645 198.897 48.045 195.697 48.045ZM220.668 54.765C227.428 54.765 231.868 49.845 231.868 43.485C231.868 37.085 227.428 32.205 220.668 32.205C213.868 32.205 209.388 37.085 209.388 43.485C209.388 49.845 213.868 54.765 220.668 54.765ZM220.628 50.205C217.428 50.205 215.748 47.485 215.748 43.485C215.748 39.445 217.428 36.685 220.628 36.685C223.748 36.685 225.508 39.445 225.508 43.485C225.508 47.485 223.748 50.205 220.628 50.205ZM234.836 41.245H241.476V34.685H234.836V41.245ZM234.836 54.085H241.476V47.525H234.836V54.085ZM33.9255 102.085H38.6455V86.165H26.2055V91.245H32.2055V91.365C32.1655 94.365 29.6455 97.205 25.4455 97.205C20.5655 97.205 17.5255 93.045 17.5255 87.325C17.5255 81.725 20.0855 77.445 25.3655 77.445C28.7655 77.445 30.6455 79.285 31.3655 81.485H38.1655C37.0855 75.805 32.6855 71.805 25.1655 71.805C21.2455 71.805 18.1655 72.965 15.7655 75.005C12.4455 77.805 10.6055 82.245 10.6055 87.325C10.6055 91.885 11.9655 95.805 14.5655 98.605C17.0055 101.205 20.4455 102.765 24.6855 102.765C28.3255 102.765 31.4855 101.365 33.2455 98.085H33.3655L33.9255 102.085ZM42.848 77.805H49.208V72.325H42.848V77.805ZM42.888 102.085H49.168V80.805H42.888V102.085ZM59.3577 80.805H53.3177V102.085H59.5977V92.205C59.5977 88.045 61.8377 85.925 65.2377 85.965C65.6777 85.965 66.1177 86.005 66.5577 86.085H66.7177V80.605C66.4377 80.485 65.9977 80.445 65.3977 80.445C62.7577 80.445 60.8377 81.645 59.4777 84.605H59.3577V80.805ZM69.724 109.325C71.644 109.325 73.244 108.885 74.404 107.725C75.404 106.765 76.004 105.325 76.004 102.605V80.805H69.724V102.365C69.724 103.925 69.124 104.405 67.884 104.525C67.444 104.565 66.964 104.565 66.404 104.565H66.164V109.005C67.124 109.205 68.604 109.325 69.724 109.325ZM69.684 77.805H76.044V72.325H69.684V77.805ZM90.3937 102.725C95.8737 102.725 99.3537 99.845 100.434 96.085H94.3537C93.6737 97.405 92.4337 98.165 90.4737 98.165C87.4337 98.165 85.7137 96.245 85.3137 93.045H100.834C100.874 88.845 99.7937 85.245 97.3937 82.925C95.5137 81.205 93.1137 80.205 90.0737 80.205C83.5937 80.205 79.1537 85.085 79.1537 91.485C79.1537 97.845 83.4337 102.725 90.3937 102.725ZM90.0737 84.645C92.5537 84.645 94.2337 86.445 94.4337 89.405H85.3537C85.7537 86.485 87.1937 84.645 90.0737 84.645ZM113.862 109.485C116.982 109.485 119.702 108.765 121.542 107.165C123.262 105.645 124.302 103.365 124.302 100.205V80.805H118.302V83.525H118.222C117.022 81.165 114.982 80.205 112.102 80.205C106.862 80.205 103.142 84.485 103.142 90.685C103.142 97.125 107.502 100.765 112.422 100.765C115.062 100.765 116.942 99.725 118.182 97.645H118.342C118.262 98.365 118.222 99.365 118.222 100.445V100.885C118.222 103.485 116.742 105.005 113.782 105.005C111.342 105.005 110.142 104.125 109.742 102.845H103.622C104.262 107.045 108.022 109.485 113.862 109.485ZM113.822 96.045C111.022 96.045 109.302 93.885 109.302 90.525C109.302 87.125 111.022 84.965 113.782 84.965C116.862 84.965 118.422 87.325 118.422 90.485C118.422 93.645 117.022 96.045 113.822 96.045ZM148.313 102.085V80.805H142.113V92.845C142.113 95.485 140.553 97.405 138.033 97.405C135.793 97.405 134.633 96.045 134.633 93.685V80.805H128.353V94.885C128.353 99.565 130.993 102.685 135.833 102.685C138.753 102.685 140.673 101.525 142.233 99.045H142.353V102.085H148.313ZM152.458 102.085H158.738V89.965C158.738 87.245 160.218 85.365 162.418 85.365C164.498 85.365 165.538 86.765 165.538 89.085V102.085H171.818V89.965C171.818 87.245 173.218 85.365 175.458 85.365C177.498 85.365 178.618 86.765 178.618 89.085V102.085H184.858V88.045C184.858 83.325 182.418 80.205 177.698 80.205C175.018 80.205 172.698 81.405 170.938 84.245H170.858C169.778 81.605 167.818 80.205 165.018 80.205C162.018 80.205 159.978 81.605 158.618 84.125H158.498V80.805H152.458V102.085ZM188.865 109.165H195.145V104.085C195.145 101.805 195.025 100.245 194.945 99.445H195.025C196.265 101.525 198.505 102.765 201.305 102.765C206.985 102.765 210.665 98.365 210.665 91.445C210.665 84.925 207.145 80.205 201.505 80.205C198.585 80.205 196.465 81.405 195.025 83.845H194.905V80.805H188.865V109.165ZM199.825 97.885C196.625 97.885 194.945 95.285 194.945 91.645C194.945 88.045 196.505 85.205 199.745 85.205C202.825 85.205 204.305 87.845 204.305 91.645C204.305 95.445 202.665 97.885 199.825 97.885ZM213.786 77.805H220.146V72.325H213.786V77.805ZM213.826 102.085H220.106V80.805H213.826V102.085Z" fill="white"/>
<path d="M18.3959 20.1891H13.269L12.3705 22.2789C12.1492 22.7933 12.0385 23.1774 12.0385 23.4313C12.0385 23.6331 12.1329 23.8121 12.3217 23.9684C12.517 24.1181 12.9337 24.2158 13.5717 24.2614V24.6227H9.40179V24.2614C9.95518 24.1637 10.3133 24.0367 10.476 23.8805C10.808 23.568 11.1759 22.9332 11.5795 21.9762L16.2377 11.0778H16.5795L21.1889 22.0934C21.56 22.9788 21.8953 23.555 22.1948 23.8219C22.5008 24.0823 22.9239 24.2288 23.4643 24.2614V24.6227H18.2397V24.2614C18.767 24.2353 19.1218 24.1474 19.3041 23.9977C19.4929 23.8479 19.5873 23.6656 19.5873 23.4508C19.5873 23.1643 19.4571 22.7119 19.1967 22.0934L18.3959 20.1891ZM18.1225 19.4664L15.8764 14.1149L13.5717 19.4664H18.1225ZM26.9409 15.4137V17.4254C27.6896 16.0843 28.4578 15.4137 29.2455 15.4137C29.6036 15.4137 29.8998 15.5244 30.1342 15.7457C30.3686 15.9606 30.4858 16.2112 30.4858 16.4977C30.4858 16.7516 30.4011 16.9664 30.2319 17.1422C30.0626 17.318 29.8608 17.4059 29.6264 17.4059C29.3985 17.4059 29.1414 17.2952 28.8549 17.0739C28.575 16.846 28.3666 16.7321 28.2299 16.7321C28.1127 16.7321 27.9858 16.7972 27.8491 16.9274C27.5561 17.1943 27.2534 17.6337 26.9409 18.2457V22.5328C26.9409 23.0276 27.0027 23.402 27.1264 23.6559C27.211 23.8317 27.3608 23.9781 27.5756 24.0953C27.7905 24.2125 28.0997 24.2711 28.5034 24.2711V24.6227H23.9233V24.2711C24.379 24.2711 24.7175 24.1995 24.9389 24.0563C25.1017 23.9521 25.2156 23.7861 25.2807 23.5582C25.3133 23.4476 25.3295 23.1318 25.3295 22.611V19.1442C25.3295 18.1025 25.3067 17.484 25.2612 17.2887C25.2221 17.0869 25.144 16.9404 25.0268 16.8492C24.9161 16.7581 24.7761 16.7125 24.6069 16.7125C24.405 16.7125 24.1772 16.7614 23.9233 16.859L23.8256 16.5074L26.5307 15.4137H26.9409ZM33.6303 10.736V19.6324L35.9057 17.5621C36.3875 17.1194 36.6674 16.8395 36.7455 16.7223C36.7976 16.6442 36.8237 16.566 36.8237 16.4879C36.8237 16.3577 36.7683 16.247 36.6577 16.1559C36.5535 16.0582 36.3777 16.0029 36.1303 15.9899V15.6774H40.017V15.9899C39.4832 16.0029 39.0372 16.0843 38.6791 16.234C38.3276 16.3837 37.9402 16.6507 37.517 17.0348L35.2221 19.1539L37.517 22.0543C38.155 22.8551 38.5847 23.3629 38.8061 23.5778C39.1186 23.8837 39.392 24.0823 39.6264 24.1735C39.7892 24.2386 40.0724 24.2711 40.476 24.2711V24.6227H36.1303V24.2711C36.3777 24.2646 36.5437 24.2288 36.6284 24.1637C36.7195 24.0921 36.7651 23.9944 36.7651 23.8707C36.7651 23.721 36.6349 23.4801 36.3745 23.1481L33.6303 19.6422V22.611C33.6303 23.1904 33.6694 23.5712 33.7475 23.7535C33.8321 23.9358 33.9493 24.066 34.0991 24.1442C34.2488 24.2223 34.5743 24.2646 35.0756 24.2711V24.6227H30.5248V24.2711C30.9806 24.2711 31.3224 24.2158 31.5502 24.1051C31.687 24.0335 31.7911 23.9228 31.8627 23.7731C31.9604 23.5582 32.0092 23.1871 32.0092 22.6598V14.5153C32.0092 13.4801 31.9864 12.8486 31.9409 12.6207C31.8953 12.3864 31.8204 12.2268 31.7162 12.1422C31.6121 12.0511 31.4754 12.0055 31.3061 12.0055C31.1694 12.0055 30.9643 12.0608 30.6909 12.1715L30.5248 11.8297L33.1811 10.736H33.6303ZM40.7006 24.6227V24.2614H41.1987C41.7586 24.2614 42.1557 24.0823 42.3901 23.7242C42.5333 23.5094 42.6049 23.0276 42.6049 22.2789V13.7242C42.6049 12.8974 42.5138 12.3798 42.3315 12.1715C42.0776 11.8851 41.7 11.7418 41.1987 11.7418H40.7006V11.3805H46.0912C48.0704 11.3805 49.5743 11.6051 50.603 12.0543C51.6381 12.5035 52.4682 13.2522 53.0932 14.3004C53.7247 15.3486 54.0405 16.5595 54.0405 17.9332C54.0405 19.7757 53.4806 21.3154 52.3608 22.5524C51.1043 23.9326 49.1902 24.6227 46.6186 24.6227H40.7006ZM44.4799 23.6656C45.3067 23.8479 46.0001 23.9391 46.56 23.9391C48.0704 23.9391 49.3237 23.4085 50.3198 22.3473C51.3159 21.2861 51.8139 19.8473 51.8139 18.0309C51.8139 16.2015 51.3159 14.7594 50.3198 13.7047C49.3237 12.65 48.0444 12.1227 46.4819 12.1227C45.8959 12.1227 45.2286 12.2171 44.4799 12.4059V23.6656ZM56.9409 19.0465C56.9343 20.3746 57.2566 21.4163 57.9077 22.1715C58.5587 22.9267 59.3237 23.3043 60.2026 23.3043C60.7885 23.3043 61.2963 23.1448 61.726 22.8258C62.1622 22.5003 62.5268 21.9469 62.8198 21.1656L63.1225 21.361C62.9858 22.2529 62.5886 23.0667 61.9311 23.8024C61.2735 24.5315 60.45 24.8961 59.4604 24.8961C58.3862 24.8961 57.4649 24.4795 56.6967 23.6461C55.935 22.8063 55.5541 21.68 55.5541 20.2672C55.5541 18.7373 55.9448 17.5459 56.726 16.693C57.5138 15.8336 58.5001 15.4039 59.685 15.4039C60.6876 15.4039 61.5112 15.736 62.1557 16.4C62.8002 17.0576 63.1225 17.9397 63.1225 19.0465H56.9409ZM56.9409 18.4801H61.0815C61.0489 17.9072 60.9806 17.5035 60.8764 17.2692C60.7136 16.9046 60.4695 16.6181 60.144 16.4098C59.825 16.2015 59.4897 16.0973 59.1381 16.0973C58.5978 16.0973 58.1127 16.3089 57.683 16.7321C57.2599 17.1487 57.0125 17.7314 56.9409 18.4801ZM70.1049 15.4137V18.4606H69.7827C69.5353 17.5035 69.2162 16.8525 68.8256 16.5074C68.4415 16.1624 67.95 15.9899 67.351 15.9899C66.8953 15.9899 66.5274 16.1103 66.2475 16.3512C65.9675 16.5921 65.8276 16.859 65.8276 17.152C65.8276 17.5166 65.9317 17.8291 66.1401 18.0895C66.3419 18.3564 66.7521 18.6396 67.3705 18.9391L68.7963 19.6324C70.1179 20.277 70.7787 21.1266 70.7787 22.1813C70.7787 22.9951 70.4695 23.6526 69.851 24.1539C69.239 24.6487 68.5522 24.8961 67.7905 24.8961C67.2436 24.8961 66.6186 24.7985 65.9155 24.6031C65.7006 24.538 65.5248 24.5055 65.3881 24.5055C65.2384 24.5055 65.1212 24.5901 65.0366 24.7594H64.7143V21.566H65.0366C65.2189 22.4775 65.5672 23.1643 66.0815 23.6266C66.5958 24.0888 67.172 24.3199 67.81 24.3199C68.2592 24.3199 68.6238 24.1897 68.9037 23.9293C69.1902 23.6624 69.3334 23.3434 69.3334 22.9723C69.3334 22.5231 69.1739 22.1455 68.8549 21.8395C68.5424 21.5335 67.9142 21.1461 66.9702 20.6774C66.0261 20.2086 65.4077 19.7854 65.1147 19.4078C64.8217 19.0367 64.6752 18.568 64.6752 18.0016C64.6752 17.2659 64.9259 16.6507 65.4272 16.1559C65.935 15.6611 66.5893 15.4137 67.3901 15.4137C67.7416 15.4137 68.1681 15.4886 68.6694 15.6383C69.0014 15.736 69.2228 15.7848 69.3334 15.7848C69.4376 15.7848 69.519 15.762 69.5776 15.7164C69.6362 15.6709 69.7045 15.5699 69.7827 15.4137H70.1049Z" fill="white"/>
</svg>
