<svg width="1063" height="685" viewBox="0 0 1063 685" fill="none" xmlns="http://www.w3.org/2000/svg">
<rect width="1063" height="685" fill="black"/>
<path d="M23.52 72.1191H29.64V58.7991C29.64 55.0391 29.16 48.0791 29.16 48.0791H29.24C29.24 48.0791 30.52 54.4391 31.56 57.9591L35.84 72.1191H41.44L45.68 57.9591C46.72 54.4391 48 48.0791 48 48.0791H48.08C48.08 48.0791 47.6 55.0391 47.6 58.7991V72.1191H53.88V42.3591H44.6L40.96 54.7591C39.88 58.4791 38.76 65.3591 38.76 65.3591H38.64C38.64 65.3591 37.48 58.4791 36.4 54.7591L32.68 42.3591H23.52V72.1191ZM68.7116 72.7991C75.4716 72.7991 79.9116 67.8791 79.9116 61.5191C79.9116 55.1191 75.4716 50.2391 68.7116 50.2391C61.9116 50.2391 57.4316 55.1191 57.4316 61.5191C57.4316 67.8791 61.9116 72.7991 68.7116 72.7991ZM68.6716 68.2391C65.4716 68.2391 63.7916 65.5191 63.7916 61.5191C63.7916 57.4791 65.4716 54.7191 68.6716 54.7191C71.7916 54.7191 73.5516 57.4791 73.5516 61.5191C73.5516 65.5191 71.7916 68.2391 68.6716 68.2391ZM81.4494 54.8391H84.6494V66.7591C84.6494 71.0791 87.3294 72.3591 91.2894 72.3591C92.9694 72.3591 94.2494 72.1591 94.9294 72.0391V67.3591H94.6094C94.2094 67.3991 93.5694 67.4391 93.1694 67.4391C91.6894 67.4391 90.8094 66.9991 90.8094 65.3991V54.8391H94.9694V50.8391H90.8094V44.0391H84.6494V50.8391H81.4494V54.8391ZM104.516 50.5591V42.3591H98.2363V72.1191H104.516V60.1191C104.516 57.3991 106.156 55.4391 108.596 55.4391C110.916 55.4391 112.156 56.9991 112.156 59.3191V72.1191H118.396V58.1191C118.396 53.3591 115.676 50.2391 110.996 50.2391C108.036 50.2391 105.876 51.5991 104.596 53.8791H104.476C104.516 52.4791 104.516 50.7591 104.516 50.5591ZM132.617 72.7591C138.097 72.7591 141.577 69.8791 142.657 66.1191H136.577C135.897 67.4391 134.657 68.1991 132.697 68.1991C129.657 68.1991 127.937 66.2791 127.537 63.0791H143.057C143.097 58.8791 142.017 55.2791 139.617 52.9591C137.737 51.2391 135.337 50.2391 132.297 50.2391C125.817 50.2391 121.377 55.1191 121.377 61.5191C121.377 67.8791 125.657 72.7591 132.617 72.7591ZM132.297 54.6791C134.777 54.6791 136.457 56.4791 136.657 59.4391H127.577C127.977 56.5191 129.417 54.6791 132.297 54.6791ZM152.245 50.8391H146.205V72.1191H152.485V62.2391C152.485 58.0791 154.725 55.9591 158.125 55.9991C158.565 55.9991 159.005 56.0391 159.445 56.1191H159.605V50.6391C159.325 50.5191 158.885 50.4791 158.285 50.4791C155.645 50.4791 153.725 51.6791 152.365 54.6391H152.245V50.8391ZM162.571 47.8391H168.931V42.3591H162.571V47.8391ZM162.611 72.1191H168.891V50.8391H162.611V72.1191ZM179.121 50.8391H173.041V72.1191H179.321V60.1191C179.321 57.3991 180.961 55.4391 183.401 55.4391C185.721 55.4391 186.961 56.9991 186.961 59.3191V72.1191H193.201V58.1191C193.201 53.3591 190.481 50.2391 185.801 50.2391C182.841 50.2391 180.561 51.5191 179.241 54.0791H179.121V50.8391ZM207.062 79.5191C210.182 79.5191 212.902 78.7991 214.742 77.1991C216.462 75.6791 217.502 73.3991 217.502 70.2391V50.8391H211.502V53.5591H211.422C210.222 51.1991 208.182 50.2391 205.302 50.2391C200.062 50.2391 196.342 54.5191 196.342 60.7191C196.342 67.1591 200.702 70.7991 205.622 70.7991C208.262 70.7991 210.142 69.7591 211.382 67.6791H211.542C211.462 68.3991 211.422 69.3991 211.422 70.4791V70.9191C211.422 73.5191 209.942 75.0391 206.982 75.0391C204.542 75.0391 203.342 74.1591 202.942 72.8791H196.822C197.462 77.0791 201.222 79.5191 207.062 79.5191ZM207.022 66.0791C204.222 66.0791 202.502 63.9191 202.502 60.5591C202.502 57.1591 204.222 54.9991 206.982 54.9991C210.062 54.9991 211.622 57.3591 211.622 60.5191C211.622 63.6791 210.222 66.0791 207.022 66.0791ZM245.001 72.1191H251.121V71.7591C250.561 71.3991 250.321 70.4791 250.321 68.7991V57.8791C250.321 54.9991 249.281 52.7991 247.081 51.5191C245.601 50.6391 243.681 50.2391 240.961 50.2391C234.641 50.2391 231.681 53.6391 231.521 57.2791H237.321C237.481 55.5991 238.641 54.4791 241.041 54.4791C243.201 54.4791 244.201 55.5191 244.201 57.0391C244.201 58.6391 242.641 59.2391 238.841 59.7591C234.201 60.3191 230.481 61.5191 230.481 66.2391C230.481 70.4391 233.561 72.6791 237.761 72.6791C241.041 72.6791 242.801 71.4791 244.201 69.5191H244.281C244.401 70.7191 244.681 71.6391 245.001 72.1191ZM239.721 68.5591C238.001 68.5591 236.601 67.8791 236.601 66.0391C236.601 64.1991 237.921 63.5191 240.681 62.9191C242.081 62.5991 243.441 62.2791 244.361 61.7191V64.4791C244.361 66.7991 242.521 68.5591 239.721 68.5591ZM264.653 72.1191H270.773V58.7991C270.773 55.0391 270.293 48.0791 270.293 48.0791H270.373C270.373 48.0791 271.653 54.4391 272.693 57.9591L276.973 72.1191H282.573L286.813 57.9591C287.853 54.4391 289.133 48.0791 289.133 48.0791H289.213C289.213 48.0791 288.733 55.0391 288.733 58.7991V72.1191H295.013V42.3591H285.733L282.093 54.7591C281.013 58.4791 279.893 65.3591 279.893 65.3591H279.773C279.773 65.3591 278.613 58.4791 277.533 54.7591L273.813 42.3591H264.653V72.1191ZM309.844 72.7991C316.604 72.7991 321.044 67.8791 321.044 61.5191C321.044 55.1191 316.604 50.2391 309.844 50.2391C303.044 50.2391 298.564 55.1191 298.564 61.5191C298.564 67.8791 303.044 72.7991 309.844 72.7991ZM309.804 68.2391C306.604 68.2391 304.924 65.5191 304.924 61.5191C304.924 57.4791 306.604 54.7191 309.804 54.7191C312.924 54.7191 314.684 57.4791 314.684 61.5191C314.684 65.5191 312.924 68.2391 309.804 68.2391ZM328.912 72.1191H335.672L343.112 50.8391H336.792L334.112 59.3991C333.232 62.2391 332.432 66.8391 332.432 66.8391H332.312C332.312 66.8391 331.512 62.2391 330.632 59.3991L328.032 50.8391H321.552L328.912 72.1191ZM354.843 72.7591C360.323 72.7591 363.803 69.8791 364.883 66.1191H358.803C358.123 67.4391 356.883 68.1991 354.923 68.1991C351.883 68.1991 350.163 66.2791 349.763 63.0791H365.283C365.323 58.8791 364.243 55.2791 361.843 52.9591C359.963 51.2391 357.563 50.2391 354.523 50.2391C348.043 50.2391 343.603 55.1191 343.603 61.5191C343.603 67.8791 347.883 72.7591 354.843 72.7591ZM354.523 54.6791C357.003 54.6791 358.683 56.4791 358.883 59.4391H349.803C350.203 56.5191 351.643 54.6791 354.523 54.6791ZM368.432 72.1191H374.712V59.9991C374.712 57.2791 376.192 55.3991 378.392 55.3991C380.472 55.3991 381.512 56.7991 381.512 59.1191V72.1191H387.792V59.9991C387.792 57.2791 389.192 55.3991 391.432 55.3991C393.472 55.3991 394.592 56.7991 394.592 59.1191V72.1191H400.832V58.0791C400.832 53.3591 398.392 50.2391 393.672 50.2391C390.992 50.2391 388.672 51.4391 386.912 54.2791H386.832C385.752 51.6391 383.792 50.2391 380.992 50.2391C377.992 50.2391 375.952 51.6391 374.592 54.1591H374.472V50.8391H368.432V72.1191ZM415.078 72.7591C420.558 72.7591 424.038 69.8791 425.118 66.1191H419.038C418.358 67.4391 417.118 68.1991 415.158 68.1991C412.118 68.1991 410.398 66.2791 409.998 63.0791H425.518C425.558 58.8791 424.478 55.2791 422.078 52.9591C420.198 51.2391 417.798 50.2391 414.758 50.2391C408.278 50.2391 403.838 55.1191 403.838 61.5191C403.838 67.8791 408.118 72.7591 415.078 72.7591ZM414.758 54.6791C417.238 54.6791 418.918 56.4791 419.118 59.4391H410.038C410.438 56.5191 411.878 54.6791 414.758 54.6791ZM434.746 50.8391H428.666V72.1191H434.946V60.1191C434.946 57.3991 436.586 55.4391 439.026 55.4391C441.346 55.4391 442.586 56.9991 442.586 59.3191V72.1191H448.826V58.1191C448.826 53.3591 446.106 50.2391 441.426 50.2391C438.466 50.2391 436.186 51.5191 434.866 54.0791H434.746V50.8391ZM451.176 54.8391H454.376V66.7591C454.376 71.0791 457.056 72.3591 461.016 72.3591C462.696 72.3591 463.976 72.1591 464.656 72.0391V67.3591H464.336C463.936 67.3991 463.296 67.4391 462.896 67.4391C461.416 67.4391 460.536 66.9991 460.536 65.3991V54.8391H464.696V50.8391H460.536V44.0391H454.376V50.8391H451.176V54.8391ZM468.153 59.2791H474.793V52.7191H468.153V59.2791ZM468.153 72.1191H474.793V65.5591H468.153V72.1191ZM488.872 72.1191H495.392V60.1591C495.392 56.7591 495.032 51.3991 495.032 51.3991H495.112C495.112 51.3991 497.432 56.3591 499.232 59.3591L506.992 72.1191H513.992V42.3591H507.472V54.3991C507.472 57.7991 507.832 63.1191 507.832 63.1191H507.752C507.752 63.1191 505.432 58.2791 503.672 55.2791L495.832 42.3591H488.872V72.1191ZM528.829 72.7991C535.589 72.7991 540.029 67.8791 540.029 61.5191C540.029 55.1191 535.589 50.2391 528.829 50.2391C522.029 50.2391 517.549 55.1191 517.549 61.5191C517.549 67.8791 522.029 72.7991 528.829 72.7991ZM528.789 68.2391C525.589 68.2391 523.909 65.5191 523.909 61.5191C523.909 57.4791 525.589 54.7191 528.789 54.7191C531.909 54.7191 533.669 57.4791 533.669 61.5191C533.669 65.5191 531.909 68.2391 528.789 68.2391ZM541.567 54.8391H544.767V66.7591C544.767 71.0791 547.447 72.3591 551.407 72.3591C553.087 72.3591 554.367 72.1591 555.047 72.0391V67.3591H554.727C554.327 67.3991 553.687 67.4391 553.287 67.4391C551.807 67.4391 550.927 66.9991 550.927 65.3991V54.8391H555.087V50.8391H550.927V44.0391H544.767V50.8391H541.567V54.8391ZM568.593 72.7591C574.073 72.7591 577.553 69.8791 578.633 66.1191H572.553C571.873 67.4391 570.633 68.1991 568.673 68.1991C565.633 68.1991 563.913 66.2791 563.513 63.0791H579.033C579.073 58.8791 577.993 55.2791 575.593 52.9591C573.713 51.2391 571.313 50.2391 568.273 50.2391C561.793 50.2391 557.353 55.1191 557.353 61.5191C557.353 67.8791 561.633 72.7591 568.593 72.7591ZM568.273 54.6791C570.753 54.6791 572.433 56.4791 572.633 59.4391H563.553C563.953 56.5191 565.393 54.6791 568.273 54.6791ZM591.022 72.7991C596.542 72.7991 600.622 70.3991 600.622 65.7991C600.622 60.4391 596.302 59.4391 592.502 58.7591C589.582 58.2391 587.262 57.9991 587.262 56.3991C587.262 55.0391 588.502 54.2391 590.422 54.2391C592.422 54.2391 593.622 54.9991 594.022 56.5191H599.862C599.302 52.7991 596.342 50.2391 590.422 50.2391C585.422 50.2391 581.462 52.5191 581.462 56.8791C581.462 61.8391 585.302 62.7991 589.102 63.5191C592.062 64.0791 594.582 64.3191 594.582 66.2391C594.582 67.7591 593.302 68.6791 591.062 68.6791C588.622 68.6791 587.102 67.5591 586.742 65.5591H580.822C581.142 69.8391 584.862 72.7991 591.022 72.7991ZM612.113 54.9191H615.313V72.1191H621.592V54.9191H626.033V50.8391H621.592V49.4791C621.592 47.0791 622.873 46.8791 626.033 46.9991V42.5191C625.153 42.3991 624.273 42.3591 623.433 42.3591C620.713 42.3191 618.513 42.7991 617.113 44.0391C615.873 45.1591 615.313 46.7591 615.313 49.0391V50.8391H612.113V54.9191ZM635.214 50.8391H629.174V72.1191H635.454V62.2391C635.454 58.0791 637.694 55.9591 641.094 55.9991C641.534 55.9991 641.974 56.0391 642.414 56.1191H642.574V50.6391C642.294 50.5191 641.854 50.4791 641.254 50.4791C638.614 50.4791 636.694 51.6791 635.334 54.6391H635.214V50.8391ZM655.469 72.7991C662.229 72.7991 666.669 67.8791 666.669 61.5191C666.669 55.1191 662.229 50.2391 655.469 50.2391C648.669 50.2391 644.189 55.1191 644.189 61.5191C644.189 67.8791 648.669 72.7991 655.469 72.7991ZM655.429 68.2391C652.229 68.2391 650.549 65.5191 650.549 61.5191C650.549 57.4791 652.229 54.7191 655.429 54.7191C658.549 54.7191 660.309 57.4791 660.309 61.5191C660.309 65.5191 658.549 68.2391 655.429 68.2391ZM669.838 72.1191H676.118V59.9991C676.118 57.2791 677.598 55.3991 679.798 55.3991C681.878 55.3991 682.918 56.7991 682.918 59.1191V72.1191H689.198V59.9991C689.198 57.2791 690.598 55.3991 692.838 55.3991C694.878 55.3991 695.998 56.7991 695.998 59.1191V72.1191H702.238V58.0791C702.238 53.3591 699.798 50.2391 695.078 50.2391C692.398 50.2391 690.078 51.4391 688.318 54.2791H688.238C687.158 51.6391 685.198 50.2391 682.398 50.2391C679.398 50.2391 677.358 51.6391 675.998 54.1591H675.878V50.8391H669.838V72.1191ZM716.333 72.1191H723.173V42.3591H716.333V72.1191ZM733.887 50.8391H727.807V72.1191H734.087V60.1191C734.087 57.3991 735.727 55.4391 738.167 55.4391C740.487 55.4391 741.727 56.9991 741.727 59.3191V72.1191H747.967V58.1191C747.967 53.3591 745.247 50.2391 740.567 50.2391C737.607 50.2391 735.327 51.5191 734.007 54.0791H733.887V50.8391ZM760.067 72.7991C762.947 72.7991 765.307 71.5991 766.547 68.9991H766.627V72.1191H772.667V42.3591H766.387V48.8791C766.387 50.6791 766.467 52.4791 766.547 53.7991H766.467C765.027 51.5991 763.067 50.2391 760.147 50.2391C754.627 50.2391 750.947 54.9591 750.947 61.4791C750.947 68.5191 754.547 72.7991 760.067 72.7991ZM761.747 67.7591C758.827 67.7591 757.347 65.2791 757.347 61.4391C757.347 57.6391 758.827 54.9991 761.787 54.9991C765.027 54.9991 766.587 57.7191 766.587 61.4791C766.587 65.1991 764.787 67.7591 761.747 67.7591ZM776.79 47.8391H783.15V42.3591H776.79V47.8391ZM776.83 72.1191H783.11V50.8391H776.83V72.1191ZM800.9 72.1191H807.02V71.7591C806.46 71.3991 806.22 70.4791 806.22 68.7991V57.8791C806.22 54.9991 805.18 52.7991 802.98 51.5191C801.5 50.6391 799.58 50.2391 796.86 50.2391C790.54 50.2391 787.58 53.6391 787.42 57.2791H793.22C793.38 55.5991 794.54 54.4791 796.94 54.4791C799.1 54.4791 800.1 55.5191 800.1 57.0391C800.1 58.6391 798.54 59.2391 794.74 59.7591C790.1 60.3191 786.38 61.5191 786.38 66.2391C786.38 70.4391 789.46 72.6791 793.66 72.6791C796.94 72.6791 798.7 71.4791 800.1 69.5191H800.18C800.3 70.7191 800.58 71.6391 800.9 72.1191ZM795.62 68.5591C793.9 68.5591 792.5 67.8791 792.5 66.0391C792.5 64.1991 793.82 63.5191 796.58 62.9191C797.98 62.5991 799.34 62.2791 800.26 61.7191V64.4791C800.26 66.7991 798.42 68.5591 795.62 68.5591ZM815.668 42.3591H809.828V48.2391H812.508V48.3191C812.508 50.4791 811.268 51.7991 809.708 52.2391V54.5991C812.788 54.2791 815.668 52.3591 815.668 47.6391V42.3591ZM826.608 72.7991C832.128 72.7991 836.208 70.3991 836.208 65.7991C836.208 60.4391 831.888 59.4391 828.088 58.7591C825.168 58.2391 822.848 57.9991 822.848 56.3991C822.848 55.0391 824.088 54.2391 826.008 54.2391C828.008 54.2391 829.208 54.9991 829.608 56.5191H835.448C834.888 52.7991 831.928 50.2391 826.008 50.2391C821.008 50.2391 817.048 52.5191 817.048 56.8791C817.048 61.8391 820.888 62.7991 824.688 63.5191C827.648 64.0791 830.168 64.3191 830.168 66.2391C830.168 67.7591 828.888 68.6791 826.648 68.6791C824.208 68.6791 822.688 67.5591 822.328 65.5591H816.408C816.728 69.8391 820.448 72.7991 826.608 72.7991ZM849.418 72.1191H869.938V66.2791H856.218V42.3591H849.418V72.1191ZM883.204 72.7991C889.964 72.7991 894.404 67.8791 894.404 61.5191C894.404 55.1191 889.964 50.2391 883.204 50.2391C876.404 50.2391 871.924 55.1191 871.924 61.5191C871.924 67.8791 876.404 72.7991 883.204 72.7991ZM883.164 68.2391C879.964 68.2391 878.284 65.5191 878.284 61.5191C878.284 57.4791 879.964 54.7191 883.164 54.7191C886.284 54.7191 888.044 57.4791 888.044 61.5191C888.044 65.5191 886.284 68.2391 883.164 68.2391ZM903.652 50.8391H897.572V72.1191H903.852V60.1191C903.852 57.3991 905.492 55.4391 907.932 55.4391C910.252 55.4391 911.492 56.9991 911.492 59.3191V72.1191H917.732V58.1191C917.732 53.3591 915.012 50.2391 910.332 50.2391C907.372 50.2391 905.092 51.5191 903.772 54.0791H903.652V50.8391ZM931.593 79.5191C934.713 79.5191 937.433 78.7991 939.273 77.1991C940.993 75.6791 942.033 73.3991 942.033 70.2391V50.8391H936.033V53.5591H935.953C934.753 51.1991 932.713 50.2391 929.833 50.2391C924.593 50.2391 920.873 54.5191 920.873 60.7191C920.873 67.1591 925.233 70.7991 930.153 70.7991C932.793 70.7991 934.673 69.7591 935.913 67.6791H936.073C935.993 68.3991 935.953 69.3991 935.953 70.4791V70.9191C935.953 73.5191 934.473 75.0391 931.513 75.0391C929.073 75.0391 927.873 74.1591 927.473 72.8791H921.353C921.993 77.0791 925.753 79.5191 931.593 79.5191ZM931.553 66.0791C928.753 66.0791 927.033 63.9191 927.033 60.5591C927.033 57.1591 928.753 54.9991 931.513 54.9991C934.593 54.9991 936.153 57.3591 936.153 60.5191C936.153 63.6791 934.753 66.0791 931.553 66.0791ZM956.484 72.7591C961.964 72.7591 965.444 69.8791 966.524 66.1191H960.444C959.764 67.4391 958.524 68.1991 956.564 68.1991C953.524 68.1991 951.804 66.2791 951.404 63.0791H966.924C966.964 58.8791 965.884 55.2791 963.484 52.9591C961.604 51.2391 959.204 50.2391 956.164 50.2391C949.684 50.2391 945.244 55.1191 945.244 61.5191C945.244 67.8791 949.524 72.7591 956.484 72.7591ZM956.164 54.6791C958.644 54.6791 960.324 56.4791 960.524 59.4391H951.444C951.844 56.5191 953.284 54.6791 956.164 54.6791ZM978.912 72.7991C984.432 72.7991 988.512 70.3991 988.512 65.7991C988.512 60.4391 984.192 59.4391 980.392 58.7591C977.472 58.2391 975.152 57.9991 975.152 56.3991C975.152 55.0391 976.392 54.2391 978.312 54.2391C980.312 54.2391 981.512 54.9991 981.912 56.5191H987.752C987.192 52.7991 984.232 50.2391 978.312 50.2391C973.312 50.2391 969.352 52.5191 969.352 56.8791C969.352 61.8391 973.192 62.7991 976.992 63.5191C979.952 64.0791 982.472 64.3191 982.472 66.2391C982.472 67.7591 981.192 68.6791 978.952 68.6791C976.512 68.6791 974.992 67.5591 974.632 65.5591H968.712C969.032 69.8391 972.752 72.7991 978.912 72.7991ZM989.809 54.8391H993.009V66.7591C993.009 71.0791 995.689 72.3591 999.649 72.3591C1001.33 72.3591 1002.61 72.1591 1003.29 72.0391V67.3591H1002.97C1002.57 67.3991 1001.93 67.4391 1001.53 67.4391C1000.05 67.4391 999.169 66.9991 999.169 65.3991V54.8391H1003.33V50.8391H999.169V44.0391H993.009V50.8391H989.809V54.8391ZM21.4 120.119H28.24L30.08 114.439H40.88L42.76 120.119H49.96L39.2 90.3591H32.12L21.4 120.119ZM33.52 103.999C34.48 101.079 35.52 96.0791 35.52 96.0791H35.6C35.6 96.0791 36.24 99.9191 37.52 103.999L39.32 109.559H31.68L33.52 103.999ZM58.6131 98.8391H52.5331V120.119H58.8131V108.119C58.8131 105.399 60.4531 103.439 62.8931 103.439C65.2131 103.439 66.4531 104.999 66.4531 107.319V120.119H72.6931V106.119C72.6931 101.359 69.9731 98.2391 65.2931 98.2391C62.3331 98.2391 60.0531 99.5191 58.7331 102.079H58.6131V98.8391ZM75.0431 102.839H78.2431V114.759C78.2431 119.079 80.9231 120.359 84.8831 120.359C86.5631 120.359 87.8431 120.159 88.5231 120.039V115.359H88.2031C87.8031 115.399 87.1631 115.439 86.7631 115.439C85.2831 115.439 84.4031 114.999 84.4031 113.399V102.839H88.5631V98.8391H84.4031V92.0391H78.2431V98.8391H75.0431V102.839ZM91.79 95.8391H98.15V90.3591H91.79V95.8391ZM91.83 120.119H98.11V98.8391H91.83V120.119ZM101.78 112.239H113.1V106.799H101.78V112.239ZM117.231 120.119H123.751V108.159C123.751 104.759 123.391 99.3991 123.391 99.3991H123.471C123.471 99.3991 125.791 104.359 127.591 107.359L135.351 120.119H142.351V90.3591H135.831V102.399C135.831 105.799 136.191 111.119 136.191 111.119H136.111C136.111 111.119 133.791 106.279 132.031 103.279L124.191 90.3591H117.231V120.119ZM166.708 120.119V98.8391H160.508V110.879C160.508 113.519 158.948 115.439 156.428 115.439C154.188 115.439 153.028 114.079 153.028 111.719V98.8391H146.748V112.919C146.748 117.599 149.388 120.719 154.228 120.719C157.148 120.719 159.068 119.559 160.628 117.079H160.748V120.119H166.708ZM181.053 120.799C186.973 120.799 190.813 117.039 191.013 112.199H184.973C184.693 114.639 183.293 116.039 180.973 116.039C177.813 116.039 176.213 113.399 176.213 109.519C176.213 105.519 177.813 102.919 180.973 102.919C183.053 102.919 184.333 104.159 184.773 106.119H190.853C190.093 101.479 186.573 98.2391 180.893 98.2391C174.213 98.2391 169.853 103.119 169.853 109.519C169.853 115.879 174.253 120.799 181.053 120.799ZM194.019 120.119H200.339V90.3591H194.019V120.119ZM214.765 120.759C220.245 120.759 223.725 117.879 224.805 114.119H218.725C218.045 115.439 216.805 116.199 214.845 116.199C211.805 116.199 210.085 114.279 209.685 111.079H225.205C225.245 106.879 224.165 103.279 221.765 100.959C219.885 99.2391 217.485 98.2391 214.445 98.2391C207.965 98.2391 203.525 103.119 203.525 109.519C203.525 115.879 207.805 120.759 214.765 120.759ZM214.445 102.679C216.925 102.679 218.605 104.479 218.805 107.439H209.725C210.125 104.519 211.565 102.679 214.445 102.679ZM241.993 120.119H248.113V119.759C247.553 119.399 247.313 118.479 247.313 116.799V105.879C247.313 102.999 246.273 100.799 244.073 99.5191C242.593 98.6391 240.673 98.2391 237.953 98.2391C231.633 98.2391 228.673 101.639 228.513 105.279H234.313C234.473 103.599 235.633 102.479 238.033 102.479C240.193 102.479 241.193 103.519 241.193 105.039C241.193 106.639 239.633 107.239 235.833 107.759C231.193 108.319 227.473 109.519 227.473 114.239C227.473 118.439 230.553 120.679 234.753 120.679C238.033 120.679 239.793 119.479 241.193 117.519H241.273C241.393 118.719 241.673 119.639 241.993 120.119ZM236.713 116.559C234.993 116.559 233.593 115.879 233.593 114.039C233.593 112.199 234.913 111.519 237.673 110.919C239.073 110.599 240.433 110.279 241.353 109.719V112.479C241.353 114.799 239.513 116.559 236.713 116.559ZM257.597 98.8391H251.557V120.119H257.837V110.239C257.837 106.079 260.077 103.959 263.477 103.999C263.917 103.999 264.357 104.039 264.797 104.119H264.957V98.6391C264.677 98.5191 264.237 98.4791 263.637 98.4791C260.997 98.4791 259.077 99.6791 257.717 102.639H257.597V98.8391ZM289.731 120.839C296.531 120.839 301.731 117.399 301.731 111.239C301.731 104.959 296.811 103.199 291.451 101.999C286.771 100.959 284.211 100.439 284.211 98.1191C284.211 96.2391 286.091 95.0391 288.891 95.0391C291.851 95.0391 293.691 96.3991 294.051 98.7191H300.731C300.291 92.8791 295.651 89.8391 289.091 89.8391C282.531 89.8391 277.491 92.6391 277.491 98.7991C277.491 104.999 282.211 106.439 288.011 107.759C292.331 108.759 294.851 109.319 294.851 111.919C294.851 114.359 292.371 115.399 289.731 115.399C285.891 115.399 283.771 113.959 283.411 110.719H276.531C276.731 117.159 281.771 120.839 289.731 120.839ZM303.598 102.839H306.798V114.759C306.798 119.079 309.478 120.359 313.438 120.359C315.118 120.359 316.398 120.159 317.078 120.039V115.359H316.758C316.358 115.399 315.718 115.439 315.318 115.439C313.838 115.439 312.958 114.999 312.958 113.399V102.839H317.118V98.8391H312.958V92.0391H306.798V98.8391H303.598V102.839ZM326.425 98.8391H320.385V120.119H326.665V110.239C326.665 106.079 328.905 103.959 332.305 103.999C332.745 103.999 333.185 104.039 333.625 104.119H333.785V98.6391C333.505 98.5191 333.065 98.4791 332.465 98.4791C329.825 98.4791 327.905 99.6791 326.545 102.639H326.425V98.8391ZM356.591 120.119V98.8391H350.391V110.879C350.391 113.519 348.831 115.439 346.311 115.439C344.071 115.439 342.911 114.079 342.911 111.719V98.8391H336.631V112.919C336.631 117.599 339.271 120.719 344.111 120.719C347.031 120.719 348.951 119.559 350.511 117.079H350.631V120.119H356.591ZM370.616 127.519C373.736 127.519 376.456 126.799 378.296 125.199C380.016 123.679 381.056 121.399 381.056 118.239V98.8391H375.056V101.559H374.976C373.776 99.1991 371.736 98.2391 368.856 98.2391C363.616 98.2391 359.896 102.519 359.896 108.719C359.896 115.159 364.256 118.799 369.176 118.799C371.816 118.799 373.696 117.759 374.936 115.679H375.096C375.016 116.399 374.976 117.399 374.976 118.479V118.919C374.976 121.519 373.496 123.039 370.536 123.039C368.096 123.039 366.896 122.159 366.496 120.879H360.376C361.016 125.079 364.776 127.519 370.616 127.519ZM370.576 114.079C367.776 114.079 366.056 111.919 366.056 108.559C366.056 105.159 367.776 102.999 370.536 102.999C373.616 102.999 375.176 105.359 375.176 108.519C375.176 111.679 373.776 114.079 370.576 114.079ZM395.148 127.519C398.268 127.519 400.988 126.799 402.828 125.199C404.548 123.679 405.588 121.399 405.588 118.239V98.8391H399.588V101.559H399.508C398.308 99.1991 396.268 98.2391 393.388 98.2391C388.148 98.2391 384.428 102.519 384.428 108.719C384.428 115.159 388.788 118.799 393.708 118.799C396.348 118.799 398.228 117.759 399.468 115.679H399.628C399.548 116.399 399.508 117.399 399.508 118.479V118.919C399.508 121.519 398.028 123.039 395.068 123.039C392.628 123.039 391.428 122.159 391.028 120.879H384.908C385.548 125.079 389.308 127.519 395.148 127.519ZM395.108 114.079C392.308 114.079 390.588 111.919 390.588 108.559C390.588 105.159 392.308 102.999 395.068 102.999C398.148 102.999 399.708 105.359 399.708 108.519C399.708 111.679 398.308 114.079 395.108 114.079ZM409.879 120.119H416.199V90.3591H409.879V120.119ZM430.625 120.759C436.105 120.759 439.585 117.879 440.665 114.119H434.585C433.905 115.439 432.665 116.199 430.705 116.199C427.665 116.199 425.945 114.279 425.545 111.079H441.065C441.105 106.879 440.025 103.279 437.625 100.959C435.745 99.2391 433.345 98.2391 430.305 98.2391C423.825 98.2391 419.385 103.119 419.385 109.519C419.385 115.879 423.665 120.759 430.625 120.759ZM430.305 102.679C432.785 102.679 434.465 104.479 434.665 107.439H425.585C425.985 104.519 427.425 102.679 430.305 102.679Z" fill="white"/>
<path d="M34.5156 32.54H30.9805L26.498 26.3486C26.166 26.3617 25.8958 26.3682 25.6875 26.3682C25.6029 26.3682 25.5117 26.3682 25.4141 26.3682C25.3164 26.3617 25.2155 26.3551 25.1113 26.3486V30.1963C25.1113 31.0296 25.2025 31.5472 25.3848 31.749C25.6322 32.0355 26.0033 32.1787 26.498 32.1787H27.0156V32.54H21.3418V32.1787H21.8398C22.3997 32.1787 22.8001 31.9964 23.041 31.6318C23.1777 31.43 23.2461 30.9515 23.2461 30.1963V21.6416C23.2461 20.8083 23.1549 20.2907 22.9727 20.0889C22.7188 19.8024 22.3411 19.6592 21.8398 19.6592H21.3418V19.2979H26.166C27.5723 19.2979 28.6074 19.402 29.2715 19.6104C29.9421 19.8122 30.5085 20.1898 30.9707 20.7432C31.4395 21.29 31.6738 21.9443 31.6738 22.7061C31.6738 23.5199 31.4069 24.2262 30.873 24.8252C30.3457 25.4242 29.5254 25.8473 28.4121 26.0947L31.1465 29.8936C31.7715 30.766 32.3086 31.3454 32.7578 31.6318C33.207 31.9183 33.793 32.1006 34.5156 32.1787V32.54ZM25.1113 25.7334C25.235 25.7334 25.3424 25.7367 25.4336 25.7432C25.5247 25.7432 25.5996 25.7432 25.6582 25.7432C26.9212 25.7432 27.8717 25.4697 28.5098 24.9229C29.1543 24.376 29.4766 23.6794 29.4766 22.833C29.4766 22.0062 29.2161 21.3356 28.6953 20.8213C28.181 20.3005 27.4974 20.04 26.6445 20.04C26.2669 20.04 25.7559 20.1019 25.1113 20.2256V25.7334ZM40.0332 31.251C39.1152 31.9606 38.5391 32.3708 38.3047 32.4814C37.9531 32.6442 37.5788 32.7256 37.1816 32.7256C36.5632 32.7256 36.0521 32.514 35.6484 32.0908C35.2513 31.6676 35.0527 31.111 35.0527 30.4209C35.0527 29.9847 35.1504 29.6071 35.3457 29.2881C35.6126 28.8454 36.0749 28.4287 36.7324 28.0381C37.3965 27.6475 38.4967 27.1722 40.0332 26.6123V26.2607C40.0332 25.3688 39.89 24.7568 39.6035 24.4248C39.3236 24.0928 38.9134 23.9268 38.373 23.9268C37.9629 23.9268 37.6374 24.0374 37.3965 24.2588C37.1491 24.4801 37.0254 24.734 37.0254 25.0205L37.0449 25.5869C37.0449 25.8864 36.9668 26.1175 36.8105 26.2803C36.6608 26.443 36.4622 26.5244 36.2148 26.5244C35.974 26.5244 35.7754 26.4398 35.6191 26.2705C35.4694 26.1012 35.3945 25.8701 35.3945 25.5771C35.3945 25.0173 35.681 24.5029 36.2539 24.0342C36.8268 23.5654 37.6309 23.3311 38.666 23.3311C39.4603 23.3311 40.1113 23.4645 40.6191 23.7314C41.0033 23.9333 41.2865 24.249 41.4688 24.6787C41.5859 24.9587 41.6445 25.5316 41.6445 26.3975V29.4346C41.6445 30.2874 41.6608 30.8115 41.6934 31.0068C41.7259 31.1956 41.778 31.3226 41.8496 31.3877C41.9277 31.4528 42.0156 31.4854 42.1133 31.4854C42.2174 31.4854 42.3086 31.4626 42.3867 31.417C42.5234 31.3324 42.7871 31.0947 43.1777 30.7041V31.251C42.4486 32.2275 41.752 32.7158 41.0879 32.7158C40.7689 32.7158 40.515 32.6051 40.3262 32.3838C40.1374 32.1624 40.0397 31.7848 40.0332 31.251ZM40.0332 30.6162V27.208C39.0501 27.5986 38.4154 27.8753 38.1289 28.0381C37.6146 28.3245 37.2467 28.624 37.0254 28.9365C36.804 29.249 36.6934 29.5908 36.6934 29.9619C36.6934 30.4307 36.8333 30.8213 37.1133 31.1338C37.3932 31.4398 37.7155 31.5928 38.0801 31.5928C38.5749 31.5928 39.2259 31.2673 40.0332 30.6162ZM50.1699 31.5342C49.7337 31.9899 49.3073 32.3187 48.8906 32.5205C48.474 32.7158 48.0247 32.8135 47.543 32.8135C46.5664 32.8135 45.7135 32.4066 44.9844 31.5928C44.2552 30.7725 43.8906 29.721 43.8906 28.4385C43.8906 27.1559 44.2943 25.984 45.1016 24.9229C45.9089 23.8551 46.9473 23.3213 48.2168 23.3213C49.0046 23.3213 49.6556 23.5719 50.1699 24.0732V22.4229C50.1699 21.4007 50.1439 20.7725 50.0918 20.5381C50.0462 20.3037 49.9714 20.1442 49.8672 20.0596C49.763 19.9749 49.6328 19.9326 49.4766 19.9326C49.3073 19.9326 49.0827 19.9847 48.8027 20.0889L48.6758 19.7471L51.3418 18.6533H51.7812V28.9951C51.7812 30.0433 51.804 30.6846 51.8496 30.9189C51.9017 31.1468 51.9798 31.3063 52.084 31.3975C52.1947 31.4886 52.3216 31.5342 52.4648 31.5342C52.6406 31.5342 52.875 31.4788 53.168 31.3682L53.2754 31.71L50.6191 32.8135H50.1699V31.5342ZM50.1699 30.8506V26.2412C50.1309 25.7985 50.0137 25.3949 49.8184 25.0303C49.623 24.6657 49.3626 24.3923 49.0371 24.21C48.7181 24.0212 48.4056 23.9268 48.0996 23.9268C47.5267 23.9268 47.0156 24.1839 46.5664 24.6982C45.974 25.3753 45.6777 26.3649 45.6777 27.667C45.6777 28.9821 45.9642 29.9912 46.5371 30.6943C47.11 31.391 47.748 31.7393 48.4512 31.7393C49.0436 31.7393 49.6165 31.443 50.1699 30.8506ZM56.127 18.6533C56.4004 18.6533 56.6315 18.751 56.8203 18.9463C57.0156 19.1351 57.1133 19.3662 57.1133 19.6396C57.1133 19.9131 57.0156 20.1475 56.8203 20.3428C56.6315 20.5381 56.4004 20.6357 56.127 20.6357C55.8535 20.6357 55.6191 20.5381 55.4238 20.3428C55.2285 20.1475 55.1309 19.9131 55.1309 19.6396C55.1309 19.3662 55.2253 19.1351 55.4141 18.9463C55.6094 18.751 55.847 18.6533 56.127 18.6533ZM56.9375 23.3311V30.5186C56.9375 31.0785 56.9766 31.4528 57.0547 31.6416C57.1393 31.8239 57.2598 31.9606 57.416 32.0518C57.5788 32.1429 57.8717 32.1885 58.2949 32.1885V32.54H53.9492V32.1885C54.3854 32.1885 54.6784 32.1462 54.8281 32.0615C54.9779 31.9769 55.0951 31.8369 55.1797 31.6416C55.2708 31.4463 55.3164 31.0719 55.3164 30.5186V27.0713C55.3164 26.1012 55.2871 25.473 55.2285 25.1865C55.1829 24.9782 55.1113 24.835 55.0137 24.7568C54.916 24.6722 54.7826 24.6299 54.6133 24.6299C54.431 24.6299 54.2096 24.6787 53.9492 24.7764L53.8125 24.4248L56.5078 23.3311H56.9375ZM63.793 23.3311C65.1471 23.3311 66.2344 23.8454 67.0547 24.874C67.7513 25.7529 68.0996 26.762 68.0996 27.9014C68.0996 28.7021 67.9076 29.5127 67.5234 30.333C67.1393 31.1533 66.6087 31.7718 65.9316 32.1885C65.2611 32.6051 64.5124 32.8135 63.6855 32.8135C62.3379 32.8135 61.2669 32.2764 60.4727 31.2021C59.8021 30.2972 59.4668 29.2816 59.4668 28.1553C59.4668 27.335 59.6686 26.5212 60.0723 25.7139C60.4824 24.9001 61.0195 24.3011 61.6836 23.917C62.3477 23.5264 63.0508 23.3311 63.793 23.3311ZM63.4902 23.9658C63.1452 23.9658 62.7969 24.07 62.4453 24.2783C62.1003 24.4801 61.8203 24.8382 61.6055 25.3525C61.3906 25.8669 61.2832 26.5277 61.2832 27.335C61.2832 28.637 61.5404 29.7601 62.0547 30.7041C62.5755 31.6481 63.2591 32.1201 64.1055 32.1201C64.737 32.1201 65.2578 31.8597 65.668 31.3389C66.0781 30.818 66.2832 29.9229 66.2832 28.6533C66.2832 27.0648 65.9414 25.8148 65.2578 24.9033C64.7956 24.2783 64.2064 23.9658 63.4902 23.9658ZM68.9199 23.5947H72.6699V23.9561C72.3249 23.9821 72.097 24.0439 71.9863 24.1416C71.8822 24.2393 71.8301 24.3792 71.8301 24.5615C71.8301 24.7633 71.8854 25.0075 71.9961 25.2939L73.9102 30.4404L75.834 26.251L75.3262 24.9326C75.1699 24.542 74.9648 24.2718 74.7109 24.1221C74.5677 24.0309 74.3008 23.9756 73.9102 23.9561V23.5947H78.168V23.9561C77.6992 23.9756 77.3672 24.0602 77.1719 24.21C77.0417 24.3141 76.9766 24.4801 76.9766 24.708C76.9766 24.8382 77.0026 24.9717 77.0547 25.1084L79.0859 30.2451L80.9707 25.2939C81.1009 24.9424 81.166 24.6624 81.166 24.4541C81.166 24.3304 81.1009 24.2197 80.9707 24.1221C80.847 24.0244 80.5996 23.9691 80.2285 23.9561V23.5947H83.0508V23.9561C82.4844 24.0407 82.0677 24.4248 81.8008 25.1084L78.8125 32.8135H78.4121L76.1758 27.1006L73.5684 32.8135H73.207L70.3359 25.2939C70.1471 24.8187 69.9616 24.4997 69.7793 24.3369C69.597 24.1676 69.3105 24.0407 68.9199 23.9561V23.5947ZM88.9395 31.251C88.0215 31.9606 87.4453 32.3708 87.2109 32.4814C86.8594 32.6442 86.485 32.7256 86.0879 32.7256C85.4694 32.7256 84.9583 32.514 84.5547 32.0908C84.1576 31.6676 83.959 31.111 83.959 30.4209C83.959 29.9847 84.0566 29.6071 84.252 29.2881C84.5189 28.8454 84.9811 28.4287 85.6387 28.0381C86.3027 27.6475 87.403 27.1722 88.9395 26.6123V26.2607C88.9395 25.3688 88.7962 24.7568 88.5098 24.4248C88.2298 24.0928 87.8197 23.9268 87.2793 23.9268C86.8691 23.9268 86.5436 24.0374 86.3027 24.2588C86.0553 24.4801 85.9316 24.734 85.9316 25.0205L85.9512 25.5869C85.9512 25.8864 85.873 26.1175 85.7168 26.2803C85.5671 26.443 85.3685 26.5244 85.1211 26.5244C84.8802 26.5244 84.6816 26.4398 84.5254 26.2705C84.3757 26.1012 84.3008 25.8701 84.3008 25.5771C84.3008 25.0173 84.5872 24.5029 85.1602 24.0342C85.7331 23.5654 86.5371 23.3311 87.5723 23.3311C88.3665 23.3311 89.0176 23.4645 89.5254 23.7314C89.9095 23.9333 90.1927 24.249 90.375 24.6787C90.4922 24.9587 90.5508 25.5316 90.5508 26.3975V29.4346C90.5508 30.2874 90.5671 30.8115 90.5996 31.0068C90.6322 31.1956 90.6842 31.3226 90.7559 31.3877C90.834 31.4528 90.9219 31.4854 91.0195 31.4854C91.1237 31.4854 91.2148 31.4626 91.293 31.417C91.4297 31.3324 91.6934 31.0947 92.084 30.7041V31.251C91.3548 32.2275 90.6582 32.7158 89.9941 32.7158C89.6751 32.7158 89.4212 32.6051 89.2324 32.3838C89.0436 32.1624 88.946 31.7848 88.9395 31.251ZM88.9395 30.6162V27.208C87.9564 27.5986 87.3216 27.8753 87.0352 28.0381C86.5208 28.3245 86.153 28.624 85.9316 28.9365C85.7103 29.249 85.5996 29.5908 85.5996 29.9619C85.5996 30.4307 85.7396 30.8213 86.0195 31.1338C86.2995 31.4398 86.6217 31.5928 86.9863 31.5928C87.4811 31.5928 88.1322 31.2673 88.9395 30.6162ZM92.2988 23.5947H96.5078V23.9561H96.2344C95.9805 23.9561 95.7852 24.0179 95.6484 24.1416C95.5182 24.2653 95.4531 24.4313 95.4531 24.6396C95.4531 24.8675 95.5215 25.1377 95.6582 25.4502L97.7383 30.3916L99.8281 25.2646C99.9779 24.9001 100.053 24.6234 100.053 24.4346C100.053 24.3434 100.027 24.2686 99.9746 24.21C99.903 24.1123 99.8118 24.0472 99.7012 24.0146C99.5905 23.9756 99.3659 23.9561 99.0273 23.9561V23.5947H101.947V23.9561C101.609 23.9821 101.374 24.0505 101.244 24.1611C101.016 24.3564 100.811 24.682 100.629 25.1377L97.4551 32.8135H97.0547L93.8613 25.2646C93.7181 24.9131 93.5814 24.6624 93.4512 24.5127C93.321 24.3564 93.1549 24.2262 92.9531 24.1221C92.8424 24.0635 92.6243 24.0081 92.2988 23.9561V23.5947ZM104.262 26.9639C104.255 28.292 104.577 29.3337 105.229 30.0889C105.88 30.8441 106.645 31.2217 107.523 31.2217C108.109 31.2217 108.617 31.0622 109.047 30.7432C109.483 30.4176 109.848 29.8643 110.141 29.083L110.443 29.2783C110.307 30.1702 109.91 30.984 109.252 31.7197C108.594 32.4489 107.771 32.8135 106.781 32.8135C105.707 32.8135 104.786 32.3968 104.018 31.5635C103.256 30.7236 102.875 29.5973 102.875 28.1846C102.875 26.6546 103.266 25.4632 104.047 24.6104C104.835 23.751 105.821 23.3213 107.006 23.3213C108.008 23.3213 108.832 23.6533 109.477 24.3174C110.121 24.9749 110.443 25.8571 110.443 26.9639H104.262ZM104.262 26.3975H108.402C108.37 25.8245 108.301 25.4209 108.197 25.1865C108.035 24.8219 107.79 24.5355 107.465 24.3271C107.146 24.1188 106.811 24.0146 106.459 24.0146C105.919 24.0146 105.434 24.2262 105.004 24.6494C104.581 25.0661 104.333 25.6488 104.262 26.3975ZM117.426 23.3311V26.3779H117.104C116.856 25.4209 116.537 24.7699 116.146 24.4248C115.762 24.0798 115.271 23.9072 114.672 23.9072C114.216 23.9072 113.848 24.0277 113.568 24.2686C113.288 24.5094 113.148 24.7764 113.148 25.0693C113.148 25.4339 113.253 25.7464 113.461 26.0068C113.663 26.2738 114.073 26.557 114.691 26.8564L116.117 27.5498C117.439 28.1943 118.1 29.0439 118.1 30.0986C118.1 30.9124 117.79 31.57 117.172 32.0713C116.56 32.5661 115.873 32.8135 115.111 32.8135C114.564 32.8135 113.939 32.7158 113.236 32.5205C113.021 32.4554 112.846 32.4229 112.709 32.4229C112.559 32.4229 112.442 32.5075 112.357 32.6768H112.035V29.4834H112.357C112.54 30.3949 112.888 31.0817 113.402 31.5439C113.917 32.0062 114.493 32.2373 115.131 32.2373C115.58 32.2373 115.945 32.1071 116.225 31.8467C116.511 31.5798 116.654 31.2607 116.654 30.8896C116.654 30.4404 116.495 30.0628 116.176 29.7568C115.863 29.4508 115.235 29.0635 114.291 28.5947C113.347 28.126 112.729 27.7028 112.436 27.3252C112.143 26.9541 111.996 26.4854 111.996 25.9189C111.996 25.1833 112.247 24.568 112.748 24.0732C113.256 23.5785 113.91 23.3311 114.711 23.3311C115.062 23.3311 115.489 23.4059 115.99 23.5557C116.322 23.6533 116.544 23.7021 116.654 23.7021C116.758 23.7021 116.84 23.6794 116.898 23.6338C116.957 23.5882 117.025 23.4873 117.104 23.3311H117.426ZM135.854 18.9951L136.156 23.4971H135.854C135.45 22.1494 134.874 21.1794 134.125 20.5869C133.376 19.9945 132.478 19.6982 131.43 19.6982C130.551 19.6982 129.757 19.9229 129.047 20.3721C128.337 20.8148 127.777 21.5244 127.367 22.501C126.964 23.4775 126.762 24.6917 126.762 26.1436C126.762 27.3415 126.954 28.3799 127.338 29.2588C127.722 30.1377 128.298 30.8115 129.066 31.2803C129.841 31.749 130.723 31.9834 131.713 31.9834C132.572 31.9834 133.331 31.8011 133.988 31.4365C134.646 31.0654 135.368 30.333 136.156 29.2393L136.459 29.4346C135.795 30.613 135.02 31.4756 134.135 32.0225C133.249 32.5693 132.198 32.8428 130.98 32.8428C128.786 32.8428 127.087 32.029 125.883 30.4014C124.984 29.1904 124.535 27.7646 124.535 26.124C124.535 24.8024 124.831 23.5882 125.424 22.4814C126.016 21.3747 126.83 20.5186 127.865 19.9131C128.907 19.3011 130.043 18.9951 131.273 18.9951C132.23 18.9951 133.174 19.2295 134.105 19.6982C134.379 19.8415 134.574 19.9131 134.691 19.9131C134.867 19.9131 135.02 19.8512 135.15 19.7275C135.32 19.5518 135.44 19.3076 135.512 18.9951H135.854ZM142.152 23.3311C143.507 23.3311 144.594 23.8454 145.414 24.874C146.111 25.7529 146.459 26.762 146.459 27.9014C146.459 28.7021 146.267 29.5127 145.883 30.333C145.499 31.1533 144.968 31.7718 144.291 32.1885C143.62 32.6051 142.872 32.8135 142.045 32.8135C140.697 32.8135 139.626 32.2764 138.832 31.2021C138.161 30.2972 137.826 29.2816 137.826 28.1553C137.826 27.335 138.028 26.5212 138.432 25.7139C138.842 24.9001 139.379 24.3011 140.043 23.917C140.707 23.5264 141.41 23.3311 142.152 23.3311ZM141.85 23.9658C141.505 23.9658 141.156 24.07 140.805 24.2783C140.46 24.4801 140.18 24.8382 139.965 25.3525C139.75 25.8669 139.643 26.5277 139.643 27.335C139.643 28.637 139.9 29.7601 140.414 30.7041C140.935 31.6481 141.618 32.1201 142.465 32.1201C143.096 32.1201 143.617 31.8597 144.027 31.3389C144.438 30.818 144.643 29.9229 144.643 28.6533C144.643 27.0648 144.301 25.8148 143.617 24.9033C143.155 24.2783 142.566 23.9658 141.85 23.9658ZM150.854 18.6533V30.5186C150.854 31.0785 150.893 31.4495 150.971 31.6318C151.055 31.8141 151.182 31.9541 151.352 32.0518C151.521 32.1429 151.837 32.1885 152.299 32.1885V32.54H147.914V32.1885C148.324 32.1885 148.604 32.1462 148.754 32.0615C148.904 31.9769 149.021 31.8369 149.105 31.6416C149.19 31.4463 149.232 31.0719 149.232 30.5186V22.3936C149.232 21.3844 149.21 20.766 149.164 20.5381C149.118 20.3037 149.044 20.1442 148.939 20.0596C148.842 19.9749 148.715 19.9326 148.559 19.9326C148.389 19.9326 148.174 19.9847 147.914 20.0889L147.748 19.7471L150.414 18.6533H150.854ZM156.42 18.6533V30.5186C156.42 31.0785 156.459 31.4495 156.537 31.6318C156.622 31.8141 156.749 31.9541 156.918 32.0518C157.087 32.1429 157.403 32.1885 157.865 32.1885V32.54H153.48V32.1885C153.891 32.1885 154.171 32.1462 154.32 32.0615C154.47 31.9769 154.587 31.8369 154.672 31.6416C154.757 31.4463 154.799 31.0719 154.799 30.5186V22.3936C154.799 21.3844 154.776 20.766 154.73 20.5381C154.685 20.3037 154.61 20.1442 154.506 20.0596C154.408 19.9749 154.281 19.9326 154.125 19.9326C153.956 19.9326 153.741 19.9847 153.48 20.0889L153.314 19.7471L155.98 18.6533H156.42ZM160.414 26.9639C160.408 28.292 160.73 29.3337 161.381 30.0889C162.032 30.8441 162.797 31.2217 163.676 31.2217C164.262 31.2217 164.77 31.0622 165.199 30.7432C165.635 30.4176 166 29.8643 166.293 29.083L166.596 29.2783C166.459 30.1702 166.062 30.984 165.404 31.7197C164.747 32.4489 163.923 32.8135 162.934 32.8135C161.859 32.8135 160.938 32.3968 160.17 31.5635C159.408 30.7236 159.027 29.5973 159.027 28.1846C159.027 26.6546 159.418 25.4632 160.199 24.6104C160.987 23.751 161.973 23.3213 163.158 23.3213C164.161 23.3213 164.984 23.6533 165.629 24.3174C166.273 24.9749 166.596 25.8571 166.596 26.9639H160.414ZM160.414 26.3975H164.555C164.522 25.8245 164.454 25.4209 164.35 25.1865C164.187 24.8219 163.943 24.5355 163.617 24.3271C163.298 24.1188 162.963 24.0146 162.611 24.0146C162.071 24.0146 161.586 24.2262 161.156 24.6494C160.733 25.0661 160.486 25.6488 160.414 26.3975ZM175.395 29.1416C175.154 30.32 174.682 31.2282 173.979 31.8662C173.275 32.4977 172.497 32.8135 171.645 32.8135C170.629 32.8135 169.743 32.387 168.988 31.5342C168.233 30.6813 167.855 29.529 167.855 28.0771C167.855 26.6709 168.272 25.5283 169.105 24.6494C169.945 23.7705 170.951 23.3311 172.123 23.3311C173.002 23.3311 173.725 23.5654 174.291 24.0342C174.857 24.4964 175.141 24.9782 175.141 25.4795C175.141 25.7269 175.059 25.9287 174.896 26.085C174.74 26.2347 174.519 26.3096 174.232 26.3096C173.848 26.3096 173.559 26.1859 173.363 25.9385C173.253 25.8018 173.178 25.5413 173.139 25.1572C173.106 24.7731 172.976 24.4801 172.748 24.2783C172.52 24.083 172.204 23.9854 171.801 23.9854C171.15 23.9854 170.626 24.2262 170.229 24.708C169.701 25.346 169.438 26.1891 169.438 27.2373C169.438 28.305 169.698 29.249 170.219 30.0693C170.746 30.8831 171.456 31.29 172.348 31.29C172.986 31.29 173.559 31.0719 174.066 30.6357C174.424 30.3363 174.773 29.7926 175.111 29.0049L175.395 29.1416ZM179.281 20.6553V23.5947H181.371V24.2783H179.281V30.0791C179.281 30.6585 179.363 31.0492 179.525 31.251C179.695 31.4528 179.91 31.5537 180.17 31.5537C180.385 31.5537 180.593 31.4886 180.795 31.3584C180.997 31.2217 181.153 31.0231 181.264 30.7627H181.645C181.417 31.4007 181.094 31.8825 180.678 32.208C180.261 32.527 179.831 32.6865 179.389 32.6865C179.089 32.6865 178.796 32.6051 178.51 32.4424C178.223 32.2731 178.012 32.0355 177.875 31.7295C177.738 31.417 177.67 30.9385 177.67 30.2939V24.2783H176.254V23.9561C176.612 23.8128 176.977 23.5719 177.348 23.2334C177.725 22.8883 178.061 22.4814 178.354 22.0127C178.503 21.7653 178.712 21.3128 178.979 20.6553H179.281ZM184.525 18.6533C184.799 18.6533 185.03 18.751 185.219 18.9463C185.414 19.1351 185.512 19.3662 185.512 19.6396C185.512 19.9131 185.414 20.1475 185.219 20.3428C185.03 20.5381 184.799 20.6357 184.525 20.6357C184.252 20.6357 184.018 20.5381 183.822 20.3428C183.627 20.1475 183.529 19.9131 183.529 19.6396C183.529 19.3662 183.624 19.1351 183.812 18.9463C184.008 18.751 184.245 18.6533 184.525 18.6533ZM185.336 23.3311V30.5186C185.336 31.0785 185.375 31.4528 185.453 31.6416C185.538 31.8239 185.658 31.9606 185.814 32.0518C185.977 32.1429 186.27 32.1885 186.693 32.1885V32.54H182.348V32.1885C182.784 32.1885 183.077 32.1462 183.227 32.0615C183.376 31.9769 183.493 31.8369 183.578 31.6416C183.669 31.4463 183.715 31.0719 183.715 30.5186V27.0713C183.715 26.1012 183.686 25.473 183.627 25.1865C183.581 24.9782 183.51 24.835 183.412 24.7568C183.314 24.6722 183.181 24.6299 183.012 24.6299C182.829 24.6299 182.608 24.6787 182.348 24.7764L182.211 24.4248L184.906 23.3311H185.336ZM187.357 23.5947H191.566V23.9561H191.293C191.039 23.9561 190.844 24.0179 190.707 24.1416C190.577 24.2653 190.512 24.4313 190.512 24.6396C190.512 24.8675 190.58 25.1377 190.717 25.4502L192.797 30.3916L194.887 25.2646C195.036 24.9001 195.111 24.6234 195.111 24.4346C195.111 24.3434 195.085 24.2686 195.033 24.21C194.962 24.1123 194.87 24.0472 194.76 24.0146C194.649 23.9756 194.424 23.9561 194.086 23.9561V23.5947H197.006V23.9561C196.667 23.9821 196.433 24.0505 196.303 24.1611C196.075 24.3564 195.87 24.682 195.688 25.1377L192.514 32.8135H192.113L188.92 25.2646C188.777 24.9131 188.64 24.6624 188.51 24.5127C188.38 24.3564 188.214 24.2262 188.012 24.1221C187.901 24.0635 187.683 24.0081 187.357 23.9561V23.5947ZM199.32 26.9639C199.314 28.292 199.636 29.3337 200.287 30.0889C200.938 30.8441 201.703 31.2217 202.582 31.2217C203.168 31.2217 203.676 31.0622 204.105 30.7432C204.542 30.4176 204.906 29.8643 205.199 29.083L205.502 29.2783C205.365 30.1702 204.968 30.984 204.311 31.7197C203.653 32.4489 202.829 32.8135 201.84 32.8135C200.766 32.8135 199.844 32.3968 199.076 31.5635C198.314 30.7236 197.934 29.5973 197.934 28.1846C197.934 26.6546 198.324 25.4632 199.105 24.6104C199.893 23.751 200.88 23.3213 202.064 23.3213C203.067 23.3213 203.891 23.6533 204.535 24.3174C205.18 24.9749 205.502 25.8571 205.502 26.9639H199.32ZM199.32 26.3975H203.461C203.428 25.8245 203.36 25.4209 203.256 25.1865C203.093 24.8219 202.849 24.5355 202.523 24.3271C202.204 24.1188 201.869 24.0146 201.518 24.0146C200.977 24.0146 200.492 24.2262 200.062 24.6494C199.639 25.0661 199.392 25.6488 199.32 26.3975Z" fill="white"/>
</svg>
