<svg width="586" height="396" viewBox="0 0 586 396" fill="none" xmlns="http://www.w3.org/2000/svg">
<rect width="586" height="396" fill="black"/>
<path d="M12.6567 34.1862H21.4967V58.1462H28.3367V34.1862H37.2167V28.3862H12.6567V34.1862ZM45.8107 58.7862C51.2907 58.7862 54.7707 55.9062 55.8507 52.1462H49.7707C49.0907 53.4662 47.8507 54.2262 45.8907 54.2262C42.8507 54.2262 41.1307 52.3062 40.7307 49.1062H56.2507C56.2907 44.9062 55.2107 41.3062 52.8107 38.9862C50.9307 37.2662 48.5307 36.2662 45.4907 36.2662C39.0107 36.2662 34.5707 41.1462 34.5707 47.5462C34.5707 53.9062 38.8507 58.7862 45.8107 58.7862ZM45.4907 40.7062C47.9707 40.7062 49.6507 42.5062 49.8507 45.4662H40.7707C41.1707 42.5462 42.6107 40.7062 45.4907 40.7062ZM65.4789 36.8662H59.3989V58.1462H65.6789V46.1462C65.6789 43.4262 67.3189 41.4662 69.7589 41.4662C72.0789 41.4662 73.3189 43.0262 73.3189 45.3462V58.1462H79.5589V44.1462C79.5589 39.3862 76.8389 36.2662 72.1589 36.2662C69.1989 36.2662 66.9189 37.5462 65.5989 40.1062H65.4789V36.8662ZM92.1879 34.1862H101.028V58.1462H107.868V34.1862H116.748V28.3862H92.1879V34.1862ZM126.187 36.5862V28.3862H119.907V58.1462H126.187V46.1462C126.187 43.4262 127.827 41.4662 130.267 41.4662C132.587 41.4662 133.827 43.0262 133.827 45.3462V58.1462H140.067V44.1462C140.067 39.3862 137.347 36.2662 132.667 36.2662C129.707 36.2662 127.547 37.6262 126.267 39.9062H126.147C126.187 38.5062 126.187 36.7862 126.187 36.5862ZM154.327 58.8262C161.087 58.8262 165.527 53.9062 165.527 47.5462C165.527 41.1462 161.087 36.2662 154.327 36.2662C147.527 36.2662 143.047 41.1462 143.047 47.5462C143.047 53.9062 147.527 58.8262 154.327 58.8262ZM154.287 54.2662C151.087 54.2662 149.407 51.5462 149.407 47.5462C149.407 43.5062 151.087 40.7462 154.287 40.7462C157.407 40.7462 159.167 43.5062 159.167 47.5462C159.167 51.5462 157.407 54.2662 154.287 54.2662ZM188.496 58.1462V36.8662H182.296V48.9062C182.296 51.5462 180.736 53.4662 178.216 53.4662C175.976 53.4662 174.816 52.1062 174.816 49.7462V36.8662H168.536V50.9462C168.536 55.6262 171.176 58.7462 176.016 58.7462C178.936 58.7462 180.856 57.5862 182.416 55.1062H182.536V58.1462H188.496ZM201.481 58.8262C207.001 58.8262 211.081 56.4262 211.081 51.8262C211.081 46.4662 206.761 45.4662 202.961 44.7862C200.041 44.2662 197.721 44.0262 197.721 42.4262C197.721 41.0662 198.961 40.2662 200.881 40.2662C202.881 40.2662 204.081 41.0262 204.481 42.5462H210.321C209.761 38.8262 206.801 36.2662 200.881 36.2662C195.881 36.2662 191.921 38.5462 191.921 42.9062C191.921 47.8662 195.761 48.8262 199.561 49.5462C202.521 50.1062 205.041 50.3462 205.041 52.2662C205.041 53.7862 203.761 54.7062 201.521 54.7062C199.081 54.7062 197.561 53.5862 197.201 51.5862H191.281C191.601 55.8662 195.321 58.8262 201.481 58.8262ZM227.844 58.1462H233.964V57.7862C233.404 57.4262 233.164 56.5062 233.164 54.8262V43.9062C233.164 41.0262 232.124 38.8262 229.924 37.5462C228.444 36.6662 226.524 36.2662 223.804 36.2662C217.484 36.2662 214.524 39.6662 214.364 43.3062H220.164C220.324 41.6262 221.484 40.5062 223.884 40.5062C226.044 40.5062 227.044 41.5462 227.044 43.0662C227.044 44.6662 225.484 45.2662 221.684 45.7862C217.044 46.3462 213.324 47.5462 213.324 52.2662C213.324 56.4662 216.404 58.7062 220.604 58.7062C223.884 58.7062 225.644 57.5062 227.044 55.5462H227.124C227.244 56.7462 227.524 57.6662 227.844 58.1462ZM222.564 54.5862C220.844 54.5862 219.444 53.9062 219.444 52.0662C219.444 50.2262 220.764 49.5462 223.524 48.9462C224.924 48.6262 226.284 48.3062 227.204 47.7462V50.5062C227.204 52.8262 225.364 54.5862 222.564 54.5862ZM243.487 36.8662H237.407V58.1462H243.687V46.1462C243.687 43.4262 245.327 41.4662 247.767 41.4662C250.087 41.4662 251.327 43.0262 251.327 45.3462V58.1462H257.567V44.1462C257.567 39.3862 254.847 36.2662 250.167 36.2662C247.207 36.2662 244.927 37.5462 243.607 40.1062H243.487V36.8662ZM269.667 58.8262C272.547 58.8262 274.907 57.6262 276.147 55.0262H276.227V58.1462H282.267V28.3862H275.987V34.9062C275.987 36.7062 276.067 38.5062 276.147 39.8262H276.067C274.627 37.6262 272.667 36.2662 269.747 36.2662C264.227 36.2662 260.547 40.9862 260.547 47.5062C260.547 54.5462 264.147 58.8262 269.667 58.8262ZM271.347 53.7862C268.427 53.7862 266.947 51.3062 266.947 47.4662C266.947 43.6662 268.427 41.0262 271.387 41.0262C274.627 41.0262 276.187 43.7462 276.187 47.5062C276.187 51.2262 274.387 53.7862 271.347 53.7862ZM304.639 58.1462H311.439V46.9462L321.639 28.3862H314.439L311.199 34.6262C309.839 37.3462 308.159 41.7062 308.159 41.7062H308.079C308.079 41.7062 306.479 37.3062 305.119 34.6262L301.919 28.3862H294.439L304.639 47.0262V58.1462ZM329.795 58.7862C335.275 58.7862 338.755 55.9062 339.835 52.1462H333.755C333.075 53.4662 331.835 54.2262 329.875 54.2262C326.835 54.2262 325.115 52.3062 324.715 49.1062H340.235C340.275 44.9062 339.195 41.3062 336.795 38.9862C334.915 37.2662 332.515 36.2662 329.475 36.2662C322.995 36.2662 318.555 41.1462 318.555 47.5462C318.555 53.9062 322.835 58.7862 329.795 58.7862ZM329.475 40.7062C331.955 40.7062 333.635 42.5062 333.835 45.4662H324.755C325.155 42.5462 326.595 40.7062 329.475 40.7062ZM357.023 58.1462H363.143V57.7862C362.583 57.4262 362.343 56.5062 362.343 54.8262V43.9062C362.343 41.0262 361.303 38.8262 359.103 37.5462C357.623 36.6662 355.703 36.2662 352.983 36.2662C346.663 36.2662 343.703 39.6662 343.543 43.3062H349.343C349.503 41.6262 350.663 40.5062 353.063 40.5062C355.223 40.5062 356.223 41.5462 356.223 43.0662C356.223 44.6662 354.663 45.2662 350.863 45.7862C346.223 46.3462 342.503 47.5462 342.503 52.2662C342.503 56.4662 345.583 58.7062 349.783 58.7062C353.063 58.7062 354.823 57.5062 356.223 55.5462H356.303C356.423 56.7462 356.703 57.6662 357.023 58.1462ZM351.743 54.5862C350.023 54.5862 348.623 53.9062 348.623 52.0662C348.623 50.2262 349.943 49.5462 352.703 48.9462C354.103 48.6262 355.463 48.3062 356.383 47.7462V50.5062C356.383 52.8262 354.543 54.5862 351.743 54.5862ZM372.626 36.8662H366.586V58.1462H372.866V48.2662C372.866 44.1062 375.106 41.9862 378.506 42.0262C378.946 42.0262 379.386 42.0662 379.826 42.1462H379.986V36.6662C379.706 36.5462 379.266 36.5062 378.666 36.5062C376.026 36.5062 374.106 37.7062 372.746 40.6662H372.626V36.8662ZM391.833 58.8262C397.353 58.8262 401.433 56.4262 401.433 51.8262C401.433 46.4662 397.113 45.4662 393.313 44.7862C390.393 44.2662 388.073 44.0262 388.073 42.4262C388.073 41.0662 389.313 40.2662 391.233 40.2662C393.233 40.2662 394.433 41.0262 394.833 42.5462H400.673C400.113 38.8262 397.153 36.2662 391.233 36.2662C386.233 36.2662 382.273 38.5462 382.273 42.9062C382.273 47.8662 386.113 48.8262 389.913 49.5462C392.873 50.1062 395.393 50.3462 395.393 52.2662C395.393 53.7862 394.113 54.7062 391.873 54.7062C389.433 54.7062 387.913 53.5862 387.553 51.5862H381.633C381.953 55.8662 385.673 58.8262 391.833 58.8262ZM424.484 58.8262C431.244 58.8262 435.684 53.9062 435.684 47.5462C435.684 41.1462 431.244 36.2662 424.484 36.2662C417.684 36.2662 413.204 41.1462 413.204 47.5462C413.204 53.9062 417.684 58.8262 424.484 58.8262ZM424.444 54.2662C421.244 54.2662 419.564 51.5462 419.564 47.5462C419.564 43.5062 421.244 40.7462 424.444 40.7462C427.564 40.7462 429.324 43.5062 429.324 47.5462C429.324 51.5462 427.564 54.2662 424.444 54.2662ZM437.181 40.9462H440.381V58.1462H446.661V40.9462H451.101V36.8662H446.661V35.5062C446.661 33.1062 447.941 32.9062 451.101 33.0262V28.5462C450.221 28.4262 449.341 28.3862 448.501 28.3862C445.781 28.3462 443.581 28.8262 442.181 30.0662C440.941 31.1862 440.381 32.7862 440.381 35.0662V36.8662H437.181V40.9462ZM14.0967 106.146H20.9367V76.3862H14.0967V106.146ZM34.4107 106.826C39.9307 106.826 44.0107 104.426 44.0107 99.8262C44.0107 94.4662 39.6907 93.4662 35.8907 92.7862C32.9707 92.2662 30.6507 92.0262 30.6507 90.4262C30.6507 89.0662 31.8907 88.2662 33.8107 88.2662C35.8107 88.2662 37.0107 89.0262 37.4107 90.5462H43.2507C42.6907 86.8262 39.7307 84.2662 33.8107 84.2662C28.8107 84.2662 24.8507 86.5462 24.8507 90.9062C24.8507 95.8662 28.6907 96.8262 32.4907 97.5462C35.4507 98.1062 37.9707 98.3462 37.9707 100.266C37.9707 101.786 36.6907 102.706 34.4507 102.706C32.0107 102.706 30.4907 101.586 30.1307 99.5862H24.2107C24.5307 103.866 28.2507 106.826 34.4107 106.826ZM57.4132 106.826C64.1732 106.826 68.6132 101.906 68.6132 95.5462C68.6132 89.1462 64.1732 84.2662 57.4132 84.2662C50.6132 84.2662 46.1332 89.1462 46.1332 95.5462C46.1332 101.906 50.6132 106.826 57.4132 106.826ZM57.3732 102.266C54.1732 102.266 52.4932 99.5462 52.4932 95.5462C52.4932 91.5062 54.1732 88.7462 57.3732 88.7462C60.4932 88.7462 62.2532 91.5062 62.2532 95.5462C62.2532 99.5462 60.4932 102.266 57.3732 102.266ZM71.8617 106.146H78.1817V76.3862H71.8617V106.146ZM96.0076 106.146H102.128V105.786C101.568 105.426 101.328 104.506 101.328 102.826V91.9062C101.328 89.0262 100.288 86.8262 98.0876 85.5462C96.6076 84.6662 94.6876 84.2662 91.9676 84.2662C85.6476 84.2662 82.6876 87.6662 82.5276 91.3062H88.3276C88.4876 89.6262 89.6476 88.5062 92.0476 88.5062C94.2076 88.5062 95.2076 89.5462 95.2076 91.0662C95.2076 92.6662 93.6476 93.2662 89.8476 93.7862C85.2076 94.3462 81.4876 95.5462 81.4876 100.266C81.4876 104.466 84.5676 106.706 88.7676 106.706C92.0476 106.706 93.8076 105.506 95.2076 103.546H95.2876C95.4076 104.746 95.6876 105.666 96.0076 106.146ZM90.7276 102.586C89.0076 102.586 87.6076 101.906 87.6076 100.066C87.6076 98.2262 88.9276 97.5462 91.6876 96.9462C93.0876 96.6262 94.4476 96.3062 95.3676 95.7462V98.5062C95.3676 100.826 93.5276 102.586 90.7276 102.586ZM104.135 88.8662H107.335V100.786C107.335 105.106 110.015 106.386 113.975 106.386C115.655 106.386 116.935 106.186 117.615 106.066V101.386H117.295C116.895 101.426 116.255 101.466 115.855 101.466C114.375 101.466 113.495 101.026 113.495 99.4262V88.8662H117.655V84.8662H113.495V78.0662H107.335V84.8662H104.135V88.8662ZM120.882 81.8662H127.242V76.3862H120.882V81.8662ZM120.922 106.146H127.202V84.8662H120.922V106.146ZM141.632 106.826C148.392 106.826 152.832 101.906 152.832 95.5462C152.832 89.1462 148.392 84.2662 141.632 84.2662C134.832 84.2662 130.352 89.1462 130.352 95.5462C130.352 101.906 134.832 106.826 141.632 106.826ZM141.592 102.266C138.392 102.266 136.712 99.5462 136.712 95.5462C136.712 91.5062 138.392 88.7462 141.592 88.7462C144.712 88.7462 146.472 91.5062 146.472 95.5462C146.472 99.5462 144.712 102.266 141.592 102.266ZM162.08 84.8662H156V106.146H162.28V94.1462C162.28 91.4262 163.92 89.4662 166.36 89.4662C168.68 89.4662 169.92 91.0262 169.92 93.3462V106.146H176.16V92.1462C176.16 87.3862 173.44 84.2662 168.76 84.2662C165.8 84.2662 163.52 85.5462 162.2 88.1062H162.08V84.8662Z" fill="white"/>
<path d="M23.0415 22.7437L23.3638 22.812L22.231 26.4058H11.9771V26.0444H12.4751C13.035 26.0444 13.4354 25.8621 13.6763 25.4976C13.813 25.2892 13.8814 24.8075 13.8814 24.0522V15.5073C13.8814 14.6805 13.7902 14.1629 13.6079 13.9546C13.354 13.6681 12.9764 13.5249 12.4751 13.5249H11.9771V13.1636H17.9732V13.5249C17.27 13.5184 16.7752 13.5835 16.4888 13.7202C16.2088 13.8569 16.0168 14.0295 15.9126 14.2378C15.8084 14.4461 15.7564 14.9442 15.7564 15.7319V24.0522C15.7564 24.5926 15.8084 24.9637 15.9126 25.1655C15.9907 25.3022 16.1112 25.4032 16.2739 25.4683C16.4367 25.5334 16.9445 25.5659 17.7974 25.5659H18.7642C19.7798 25.5659 20.4927 25.491 20.9028 25.3413C21.313 25.1916 21.6874 24.9279 22.0259 24.5503C22.3644 24.1662 22.703 23.564 23.0415 22.7437ZM26.7036 12.519C26.9771 12.519 27.2082 12.6167 27.397 12.812C27.5923 13.0008 27.69 13.2319 27.69 13.5054C27.69 13.7788 27.5923 14.0132 27.397 14.2085C27.2082 14.4038 26.9771 14.5015 26.7036 14.5015C26.4302 14.5015 26.1958 14.4038 26.0005 14.2085C25.8052 14.0132 25.7075 13.7788 25.7075 13.5054C25.7075 13.2319 25.8019 13.0008 25.9907 12.812C26.1861 12.6167 26.4237 12.519 26.7036 12.519ZM27.5142 17.1968V24.3843C27.5142 24.9442 27.5532 25.3185 27.6314 25.5073C27.716 25.6896 27.8364 25.8263 27.9927 25.9175C28.1555 26.0086 28.4484 26.0542 28.8716 26.0542V26.4058H24.5259V26.0542C24.9621 26.0542 25.2551 26.0119 25.4048 25.9272C25.5545 25.8426 25.6717 25.7026 25.7564 25.5073C25.8475 25.312 25.8931 24.9377 25.8931 24.3843V20.937C25.8931 19.967 25.8638 19.3387 25.8052 19.0522C25.7596 18.8439 25.688 18.7007 25.5903 18.6226C25.4927 18.5379 25.3592 18.4956 25.19 18.4956C25.0077 18.4956 24.7863 18.5444 24.5259 18.6421L24.3892 18.2905L27.0845 17.1968H27.5142ZM29.5357 17.4604H33.7446V17.8218H33.4712C33.2173 17.8218 33.022 17.8836 32.8853 18.0073C32.7551 18.131 32.69 18.297 32.69 18.5054C32.69 18.7332 32.7583 19.0034 32.895 19.3159L34.9751 24.2573L37.065 19.1304C37.2147 18.7658 37.2896 18.4891 37.2896 18.3003C37.2896 18.2091 37.2635 18.1343 37.2114 18.0757C37.1398 17.978 37.0487 17.9129 36.938 17.8804C36.8273 17.8413 36.6027 17.8218 36.2642 17.8218V17.4604H39.1841V17.8218C38.8456 17.8478 38.6112 17.9162 38.481 18.0269C38.2531 18.2222 38.048 18.5477 37.8657 19.0034L34.6919 26.6792H34.2915L31.0982 19.1304C30.9549 18.7788 30.8182 18.5282 30.688 18.3784C30.5578 18.2222 30.3918 18.092 30.19 17.9878C30.0793 17.9292 29.8612 17.8739 29.5357 17.8218V17.4604ZM42.27 12.519C42.5435 12.519 42.7746 12.6167 42.9634 12.812C43.1587 13.0008 43.2564 13.2319 43.2564 13.5054C43.2564 13.7788 43.1587 14.0132 42.9634 14.2085C42.7746 14.4038 42.5435 14.5015 42.27 14.5015C41.9966 14.5015 41.7622 14.4038 41.5669 14.2085C41.3716 14.0132 41.2739 13.7788 41.2739 13.5054C41.2739 13.2319 41.3683 13.0008 41.5571 12.812C41.7525 12.6167 41.9901 12.519 42.27 12.519ZM43.0806 17.1968V24.3843C43.0806 24.9442 43.1196 25.3185 43.1978 25.5073C43.2824 25.6896 43.4028 25.8263 43.5591 25.9175C43.7219 26.0086 44.0148 26.0542 44.438 26.0542V26.4058H40.0923V26.0542C40.5285 26.0542 40.8215 26.0119 40.9712 25.9272C41.1209 25.8426 41.2381 25.7026 41.3228 25.5073C41.4139 25.312 41.4595 24.9377 41.4595 24.3843V20.937C41.4595 19.967 41.4302 19.3387 41.3716 19.0522C41.326 18.8439 41.2544 18.7007 41.1568 18.6226C41.0591 18.5379 40.9256 18.4956 40.7564 18.4956C40.5741 18.4956 40.3527 18.5444 40.0923 18.6421L39.9556 18.2905L42.6509 17.1968H43.0806ZM50.6294 25.1167C49.7114 25.8263 49.1353 26.2365 48.9009 26.3472C48.5493 26.5099 48.175 26.5913 47.7778 26.5913C47.1594 26.5913 46.6483 26.3797 46.2446 25.9565C45.8475 25.5334 45.6489 24.9767 45.6489 24.2866C45.6489 23.8504 45.7466 23.4728 45.9419 23.1538C46.2088 22.7111 46.6711 22.2944 47.3286 21.9038C47.9927 21.5132 49.093 21.0379 50.6294 20.478V20.1265C50.6294 19.2345 50.4862 18.6226 50.1997 18.2905C49.9198 17.9585 49.5096 17.7925 48.9693 17.7925C48.5591 17.7925 48.2336 17.9032 47.9927 18.1245C47.7453 18.3459 47.6216 18.5998 47.6216 18.8862L47.6411 19.4526C47.6411 19.7521 47.563 19.9832 47.4068 20.146C47.257 20.3088 47.0584 20.3901 46.8111 20.3901C46.5702 20.3901 46.3716 20.3055 46.2153 20.1362C46.0656 19.967 45.9907 19.7358 45.9907 19.4429C45.9907 18.883 46.2772 18.3687 46.8501 17.8999C47.423 17.4312 48.2271 17.1968 49.2622 17.1968C50.0565 17.1968 50.7075 17.3302 51.2153 17.5972C51.5995 17.799 51.8827 18.1147 52.065 18.5444C52.1821 18.8244 52.2407 19.3973 52.2407 20.2632V23.3003C52.2407 24.1532 52.257 24.6772 52.2896 24.8726C52.3221 25.0614 52.3742 25.1883 52.4458 25.2534C52.5239 25.3185 52.6118 25.3511 52.7095 25.3511C52.8137 25.3511 52.9048 25.3283 52.9829 25.2827C53.1196 25.1981 53.3833 24.9604 53.7739 24.5698V25.1167C53.0448 26.0933 52.3482 26.5815 51.6841 26.5815C51.3651 26.5815 51.1112 26.4709 50.9224 26.2495C50.7336 26.0282 50.6359 25.6506 50.6294 25.1167ZM50.6294 24.4819V21.0737C49.6463 21.4644 49.0116 21.741 48.7251 21.9038C48.2108 22.1903 47.843 22.4897 47.6216 22.8022C47.4002 23.1147 47.2896 23.4565 47.2896 23.8276C47.2896 24.2964 47.4295 24.687 47.7095 24.9995C47.9894 25.3055 48.3117 25.4585 48.6763 25.4585C49.1711 25.4585 49.8221 25.133 50.6294 24.4819ZM64.7993 19.062L69.6821 23.9155C70.4829 24.7163 71.1665 25.2632 71.7329 25.5562C72.2993 25.8426 72.8657 26.0054 73.4321 26.0444V26.4058H67.1333V26.0444C67.5109 26.0444 67.7811 25.9826 67.9439 25.8589C68.1131 25.7287 68.1978 25.5854 68.1978 25.4292C68.1978 25.2729 68.1652 25.133 68.1001 25.0093C68.0415 24.8856 67.8397 24.6545 67.4946 24.3159L62.9243 19.7944V24.062C62.9243 24.7326 62.9666 25.1753 63.0513 25.3901C63.1164 25.5529 63.2531 25.6929 63.4614 25.8101C63.7414 25.9663 64.0376 26.0444 64.3501 26.0444H64.7993V26.4058H59.1548V26.0444H59.6236C60.1704 26.0444 60.5676 25.8849 60.815 25.5659C60.9712 25.3576 61.0493 24.8563 61.0493 24.062V15.5073C61.0493 14.8368 61.007 14.3908 60.9224 14.1694C60.8573 14.0132 60.7238 13.8765 60.522 13.7593C60.2355 13.603 59.9361 13.5249 59.6236 13.5249H59.1548V13.1636H64.7993V13.5249H64.3501C64.0441 13.5249 63.7479 13.5998 63.4614 13.7495C63.2596 13.8537 63.1196 14.0099 63.0415 14.2183C62.9634 14.4266 62.9243 14.8563 62.9243 15.5073V19.5601C63.0545 19.4364 63.5005 19.0229 64.2622 18.3198C66.1958 16.549 67.3644 15.3674 67.7681 14.7749C67.9439 14.5145 68.0318 14.2866 68.0318 14.0913C68.0318 13.9416 67.9634 13.8114 67.8267 13.7007C67.69 13.5835 67.4588 13.5249 67.1333 13.5249H66.8306V13.1636H71.6939V13.5249C71.4074 13.5314 71.147 13.5705 70.9126 13.6421C70.6782 13.7137 70.3918 13.8537 70.0532 14.062C69.7147 14.2638 69.298 14.5926 68.8032 15.0483C68.66 15.1785 67.9992 15.8459 66.8208 17.0503L64.7993 19.062ZM76.5181 17.1968V19.2085C77.2668 17.8674 78.035 17.1968 78.8228 17.1968C79.1808 17.1968 79.4771 17.3075 79.7114 17.5288C79.9458 17.7437 80.063 17.9943 80.063 18.2808C80.063 18.5347 79.9784 18.7495 79.8091 18.9253C79.6398 19.1011 79.438 19.189 79.2036 19.189C78.9758 19.189 78.7186 19.0783 78.4321 18.8569C78.1522 18.6291 77.9439 18.5151 77.8071 18.5151C77.69 18.5151 77.563 18.5802 77.4263 18.7104C77.1333 18.9774 76.8306 19.4168 76.5181 20.0288V24.3159C76.5181 24.8107 76.5799 25.1851 76.7036 25.439C76.7883 25.6147 76.938 25.7612 77.1528 25.8784C77.3677 25.9956 77.6769 26.0542 78.0806 26.0542V26.4058H73.5005V26.0542C73.9562 26.0542 74.2948 25.9826 74.5161 25.8394C74.6789 25.7352 74.7928 25.5692 74.8579 25.3413C74.8905 25.2306 74.9068 24.9149 74.9068 24.394V20.9272C74.9068 19.8856 74.884 19.2671 74.8384 19.0718C74.7993 18.87 74.7212 18.7235 74.604 18.6323C74.4933 18.5412 74.3534 18.4956 74.1841 18.4956C73.9823 18.4956 73.7544 18.5444 73.5005 18.6421L73.4028 18.2905L76.1079 17.1968H76.5181ZM84.9361 17.1968C86.2902 17.1968 87.3775 17.7111 88.1978 18.7397C88.8944 19.6187 89.2427 20.6278 89.2427 21.7671C89.2427 22.5679 89.0506 23.3784 88.6665 24.1987C88.2824 25.019 87.7518 25.6375 87.0747 26.0542C86.4041 26.4709 85.6555 26.6792 84.8286 26.6792C83.481 26.6792 82.41 26.1421 81.6157 25.0679C80.9452 24.1629 80.6099 23.1473 80.6099 22.021C80.6099 21.2007 80.8117 20.3869 81.2153 19.5796C81.6255 18.7658 82.1626 18.1668 82.8267 17.7827C83.4907 17.3921 84.1939 17.1968 84.9361 17.1968ZM84.6333 17.8315C84.2883 17.8315 83.94 17.9357 83.5884 18.144C83.2433 18.3459 82.9634 18.7039 82.7486 19.2183C82.5337 19.7326 82.4263 20.3934 82.4263 21.2007C82.4263 22.5028 82.6834 23.6258 83.1978 24.5698C83.7186 25.5138 84.4022 25.9858 85.2486 25.9858C85.8801 25.9858 86.4009 25.7254 86.8111 25.2046C87.2212 24.6838 87.4263 23.7886 87.4263 22.519C87.4263 20.9305 87.0845 19.6805 86.4009 18.769C85.9387 18.144 85.3495 17.8315 84.6333 17.8315ZM93.188 12.519V19.062C93.9107 18.2677 94.4836 17.7599 94.9068 17.5386C95.3299 17.3107 95.7531 17.1968 96.1763 17.1968C96.6841 17.1968 97.1203 17.3368 97.4849 17.6167C97.8495 17.8966 98.1196 18.3361 98.2954 18.9351C98.4191 19.3517 98.481 20.1134 98.481 21.2202V24.3843C98.481 24.9507 98.5265 25.3381 98.6177 25.5464C98.6828 25.7026 98.7935 25.8263 98.9497 25.9175C99.106 26.0086 99.3924 26.0542 99.8091 26.0542V26.4058H95.4146V26.0542H95.6196C96.0363 26.0542 96.326 25.9924 96.4888 25.8687C96.6515 25.7384 96.7655 25.5496 96.8306 25.3022C96.8501 25.1981 96.8599 24.8921 96.8599 24.3843V21.2202C96.8599 20.2437 96.8078 19.6024 96.7036 19.2964C96.606 18.9904 96.4465 18.7625 96.2251 18.6128C96.0038 18.4565 95.7368 18.3784 95.4243 18.3784C95.1053 18.3784 94.7733 18.4631 94.4282 18.6323C94.0832 18.8016 93.6698 19.1434 93.188 19.6577V24.3843C93.188 24.9963 93.2206 25.3771 93.2857 25.5269C93.3573 25.6766 93.4842 25.8035 93.6665 25.9077C93.8553 26.0054 94.1776 26.0542 94.6333 26.0542V26.4058H90.1997V26.0542C90.5969 26.0542 90.9094 25.9924 91.1372 25.8687C91.2674 25.8035 91.3716 25.6799 91.4497 25.4976C91.5278 25.3153 91.5669 24.9442 91.5669 24.3843V16.2886C91.5669 15.2664 91.5409 14.6382 91.4888 14.4038C91.4432 14.1694 91.3683 14.0099 91.2642 13.9253C91.1665 13.8407 91.0331 13.7983 90.8638 13.7983C90.7271 13.7983 90.5057 13.8504 90.1997 13.9546L90.063 13.6128L92.7388 12.519H93.188ZM103.168 19.0913C104.217 17.8283 105.216 17.1968 106.167 17.1968C106.655 17.1968 107.075 17.3205 107.426 17.5679C107.778 17.8088 108.058 18.2091 108.266 18.769C108.409 19.1597 108.481 19.7586 108.481 20.5659V24.3843C108.481 24.9507 108.527 25.3348 108.618 25.5366C108.689 25.6994 108.803 25.8263 108.959 25.9175C109.122 26.0086 109.418 26.0542 109.848 26.0542V26.4058H105.424V26.0542H105.61C106.027 26.0542 106.316 25.9924 106.479 25.8687C106.648 25.7384 106.765 25.5496 106.831 25.3022C106.857 25.2046 106.87 24.8986 106.87 24.3843V20.7222C106.87 19.9084 106.762 19.3192 106.547 18.9546C106.339 18.5835 105.984 18.3979 105.483 18.3979C104.708 18.3979 103.937 18.8211 103.168 19.6675V24.3843C103.168 24.9897 103.204 25.3641 103.276 25.5073C103.367 25.6961 103.491 25.8361 103.647 25.9272C103.81 26.0119 104.135 26.0542 104.624 26.0542V26.4058H100.2V26.0542H100.395C100.851 26.0542 101.157 25.9403 101.313 25.7124C101.476 25.478 101.557 25.0353 101.557 24.3843V21.064C101.557 19.9897 101.531 19.3354 101.479 19.1011C101.433 18.8667 101.359 18.7072 101.254 18.6226C101.157 18.5379 101.023 18.4956 100.854 18.4956C100.672 18.4956 100.454 18.5444 100.2 18.6421L100.053 18.2905L102.749 17.1968H103.168V19.0913ZM123.12 26.4058L118.002 15.2632V24.1108C118.002 24.9246 118.09 25.4325 118.266 25.6343C118.507 25.9077 118.888 26.0444 119.409 26.0444H119.877V26.4058H115.268V26.0444H115.737C116.297 26.0444 116.694 25.8752 116.928 25.5366C117.071 25.3283 117.143 24.853 117.143 24.1108V15.4585C117.143 14.8726 117.078 14.4494 116.948 14.189C116.857 14.0002 116.687 13.8439 116.44 13.7202C116.199 13.59 115.808 13.5249 115.268 13.5249V13.1636H119.018L123.823 23.5249L128.549 13.1636H132.299V13.5249H131.84C131.274 13.5249 130.874 13.6942 130.639 14.0327C130.496 14.241 130.424 14.7163 130.424 15.4585V24.1108C130.424 24.9246 130.515 25.4325 130.698 25.6343C130.939 25.9077 131.32 26.0444 131.84 26.0444H132.299V26.4058H126.674V26.0444H127.143C127.709 26.0444 128.107 25.8752 128.334 25.5366C128.478 25.3283 128.549 24.853 128.549 24.1108V15.2632L123.442 26.4058H123.12ZM135.629 12.519C135.903 12.519 136.134 12.6167 136.323 12.812C136.518 13.0008 136.616 13.2319 136.616 13.5054C136.616 13.7788 136.518 14.0132 136.323 14.2085C136.134 14.4038 135.903 14.5015 135.629 14.5015C135.356 14.5015 135.122 14.4038 134.926 14.2085C134.731 14.0132 134.633 13.7788 134.633 13.5054C134.633 13.2319 134.728 13.0008 134.917 12.812C135.112 12.6167 135.349 12.519 135.629 12.519ZM136.44 17.1968V24.3843C136.44 24.9442 136.479 25.3185 136.557 25.5073C136.642 25.6896 136.762 25.8263 136.918 25.9175C137.081 26.0086 137.374 26.0542 137.797 26.0542V26.4058H133.452V26.0542C133.888 26.0542 134.181 26.0119 134.331 25.9272C134.48 25.8426 134.598 25.7026 134.682 25.5073C134.773 25.312 134.819 24.9377 134.819 24.3843V20.937C134.819 19.967 134.79 19.3387 134.731 19.0522C134.685 18.8439 134.614 18.7007 134.516 18.6226C134.418 18.5379 134.285 18.4956 134.116 18.4956C133.933 18.4956 133.712 18.5444 133.452 18.6421L133.315 18.2905L136.01 17.1968H136.44ZM141.997 12.519V24.3843C141.997 24.9442 142.036 25.3153 142.114 25.4976C142.198 25.6799 142.325 25.8198 142.495 25.9175C142.664 26.0086 142.98 26.0542 143.442 26.0542V26.4058H139.057V26.0542C139.467 26.0542 139.747 26.0119 139.897 25.9272C140.047 25.8426 140.164 25.7026 140.249 25.5073C140.333 25.312 140.376 24.9377 140.376 24.3843V16.2593C140.376 15.2502 140.353 14.6317 140.307 14.4038C140.262 14.1694 140.187 14.0099 140.083 13.9253C139.985 13.8407 139.858 13.7983 139.702 13.7983C139.532 13.7983 139.318 13.8504 139.057 13.9546L138.891 13.6128L141.557 12.519H141.997ZM147.563 12.519V24.3843C147.563 24.9442 147.602 25.3153 147.68 25.4976C147.765 25.6799 147.892 25.8198 148.061 25.9175C148.23 26.0086 148.546 26.0542 149.008 26.0542V26.4058H144.624V26.0542C145.034 26.0542 145.314 26.0119 145.463 25.9272C145.613 25.8426 145.73 25.7026 145.815 25.5073C145.9 25.312 145.942 24.9377 145.942 24.3843V16.2593C145.942 15.2502 145.919 14.6317 145.874 14.4038C145.828 14.1694 145.753 14.0099 145.649 13.9253C145.551 13.8407 145.424 13.7983 145.268 13.7983C145.099 13.7983 144.884 13.8504 144.624 13.9546L144.458 13.6128L147.124 12.519H147.563ZM151.557 20.8296C151.551 22.1577 151.873 23.1994 152.524 23.9546C153.175 24.7098 153.94 25.0874 154.819 25.0874C155.405 25.0874 155.913 24.9279 156.342 24.6089C156.778 24.2834 157.143 23.73 157.436 22.9487L157.739 23.144C157.602 24.036 157.205 24.8498 156.547 25.5854C155.89 26.3146 155.066 26.6792 154.077 26.6792C153.002 26.6792 152.081 26.2625 151.313 25.4292C150.551 24.5894 150.17 23.4631 150.17 22.0503C150.17 20.5203 150.561 19.3289 151.342 18.4761C152.13 17.6167 153.116 17.187 154.301 17.187C155.304 17.187 156.127 17.519 156.772 18.1831C157.417 18.8407 157.739 19.7228 157.739 20.8296H151.557ZM151.557 20.2632H155.698C155.665 19.6903 155.597 19.2866 155.493 19.0522C155.33 18.6877 155.086 18.4012 154.76 18.1929C154.441 17.9845 154.106 17.8804 153.754 17.8804C153.214 17.8804 152.729 18.092 152.299 18.5151C151.876 18.9318 151.629 19.5145 151.557 20.2632ZM161.557 17.1968V19.2085C162.306 17.8674 163.074 17.1968 163.862 17.1968C164.22 17.1968 164.516 17.3075 164.751 17.5288C164.985 17.7437 165.102 17.9943 165.102 18.2808C165.102 18.5347 165.017 18.7495 164.848 18.9253C164.679 19.1011 164.477 19.189 164.243 19.189C164.015 19.189 163.758 19.0783 163.471 18.8569C163.191 18.6291 162.983 18.5151 162.846 18.5151C162.729 18.5151 162.602 18.5802 162.465 18.7104C162.172 18.9774 161.87 19.4168 161.557 20.0288V24.3159C161.557 24.8107 161.619 25.1851 161.743 25.439C161.827 25.6147 161.977 25.7612 162.192 25.8784C162.407 25.9956 162.716 26.0542 163.12 26.0542V26.4058H158.54V26.0542C158.995 26.0542 159.334 25.9826 159.555 25.8394C159.718 25.7352 159.832 25.5692 159.897 25.3413C159.93 25.2306 159.946 24.9149 159.946 24.394V20.9272C159.946 19.8856 159.923 19.2671 159.877 19.0718C159.838 18.87 159.76 18.7235 159.643 18.6323C159.532 18.5412 159.392 18.4956 159.223 18.4956C159.021 18.4956 158.793 18.5444 158.54 18.6421L158.442 18.2905L161.147 17.1968H161.557Z" fill="white"/>
</svg>
