<svg width="468" height="696" viewBox="0 0 468 696" fill="none" xmlns="http://www.w3.org/2000/svg">
<rect width="468" height="696" fill="black"/>
<path d="M10.3255 48.6909H19.1655V72.6509H26.0055V48.6909H34.8855V42.8909H10.3255V48.6909ZM44.3243 51.0909V42.8909H38.0443V72.6509H44.3243V60.6509C44.3243 57.9309 45.9643 55.9709 48.4043 55.9709C50.7243 55.9709 51.9643 57.5309 51.9643 59.8509V72.6509H58.2043V58.6509C58.2043 53.8909 55.4843 50.7709 50.8043 50.7709C47.8443 50.7709 45.6843 52.1309 44.4043 54.4109H44.2843C44.3243 53.0109 44.3243 51.2909 44.3243 51.0909ZM72.4249 73.2909C77.9049 73.2909 81.3849 70.4109 82.4649 66.6509H76.3849C75.7049 67.9709 74.4649 68.7309 72.5049 68.7309C69.4649 68.7309 67.7449 66.8109 67.3449 63.6109H82.8649C82.9049 59.4109 81.8249 55.8109 79.4249 53.4909C77.5449 51.7709 75.1449 50.7709 72.1049 50.7709C65.6249 50.7709 61.1849 55.6509 61.1849 62.0509C61.1849 68.4109 65.4649 73.2909 72.4249 73.2909ZM72.1049 55.2109C74.5849 55.2109 76.2649 57.0109 76.4649 59.9709H67.3849C67.7849 57.0509 69.2249 55.2109 72.1049 55.2109ZM93.9815 72.6509H100.821L102.661 66.9709H113.461L115.341 72.6509H122.541L111.781 42.8909H104.701L93.9815 72.6509ZM106.101 56.5309C107.061 53.6109 108.101 48.6109 108.101 48.6109H108.181C108.181 48.6109 108.821 52.4509 110.101 56.5309L111.901 62.0909H104.261L106.101 56.5309ZM128.212 72.6509H134.972L142.412 51.3709H136.092L133.412 59.9309C132.532 62.7709 131.732 67.3709 131.732 67.3709H131.612C131.612 67.3709 130.812 62.7709 129.932 59.9309L127.332 51.3709H120.852L128.212 72.6509ZM157.544 72.6509H163.664V72.2909C163.104 71.9309 162.864 71.0109 162.864 69.3309V58.4109C162.864 55.5309 161.824 53.3309 159.624 52.0509C158.144 51.1709 156.224 50.7709 153.504 50.7709C147.184 50.7709 144.224 54.1709 144.064 57.8109H149.864C150.024 56.1309 151.184 55.0109 153.584 55.0109C155.744 55.0109 156.744 56.0509 156.744 57.5709C156.744 59.1709 155.184 59.7709 151.384 60.2909C146.744 60.8509 143.024 62.0509 143.024 66.7709C143.024 70.9709 146.104 73.2109 150.304 73.2109C153.584 73.2109 155.344 72.0109 156.744 70.0509H156.824C156.944 71.2509 157.224 72.1709 157.544 72.6509ZM152.264 69.0909C150.544 69.0909 149.144 68.4109 149.144 66.5709C149.144 64.7309 150.464 64.0509 153.224 63.4509C154.624 63.1309 155.984 62.8109 156.904 62.2509V65.0109C156.904 67.3309 155.064 69.0909 152.264 69.0909ZM173.187 51.3709H167.107V72.6509H173.387V60.6509C173.387 57.9309 175.027 55.9709 177.467 55.9709C179.787 55.9709 181.027 57.5309 181.027 59.8509V72.6509H187.267V58.6509C187.267 53.8909 184.547 50.7709 179.867 50.7709C176.907 50.7709 174.627 52.0509 173.307 54.6109H173.187V51.3709ZM189.617 55.3709H192.817V67.2909C192.817 71.6109 195.497 72.8909 199.457 72.8909C201.137 72.8909 202.417 72.6909 203.097 72.5709V67.8909H202.777C202.377 67.9309 201.737 67.9709 201.337 67.9709C199.857 67.9709 198.977 67.5309 198.977 65.9309V55.3709H203.137V51.3709H198.977V44.5709H192.817V51.3709H189.617V55.3709ZM205.924 64.7709H217.244V59.3309H205.924V64.7709ZM243.535 72.6509H248.255V56.7309H235.815V61.8109H241.815V61.9309C241.775 64.9309 239.255 67.7709 235.055 67.7709C230.175 67.7709 227.135 63.6109 227.135 57.8909C227.135 52.2909 229.695 48.0109 234.975 48.0109C238.375 48.0109 240.255 49.8509 240.975 52.0509H247.775C246.695 46.3709 242.295 42.3709 234.775 42.3709C230.855 42.3709 227.775 43.5309 225.375 45.5709C222.055 48.3709 220.215 52.8109 220.215 57.8909C220.215 62.4509 221.575 66.3709 224.175 69.1709C226.615 71.7709 230.055 73.3309 234.295 73.3309C237.935 73.3309 241.095 71.9309 242.855 68.6509H242.975L243.535 72.6509ZM265.942 72.6509H272.062V72.2909C271.502 71.9309 271.262 71.0109 271.262 69.3309V58.4109C271.262 55.5309 270.222 53.3309 268.022 52.0509C266.542 51.1709 264.622 50.7709 261.902 50.7709C255.582 50.7709 252.622 54.1709 252.462 57.8109H258.262C258.422 56.1309 259.582 55.0109 261.982 55.0109C264.142 55.0109 265.142 56.0509 265.142 57.5709C265.142 59.1709 263.582 59.7709 259.782 60.2909C255.142 60.8509 251.422 62.0509 251.422 66.7709C251.422 70.9709 254.502 73.2109 258.702 73.2109C261.982 73.2109 263.742 72.0109 265.142 70.0509H265.222C265.342 71.2509 265.622 72.1709 265.942 72.6509ZM260.662 69.0909C258.942 69.0909 257.542 68.4109 257.542 66.5709C257.542 64.7309 258.862 64.0509 261.622 63.4509C263.022 63.1309 264.382 62.8109 265.302 62.2509V65.0109C265.302 67.3309 263.462 69.0909 260.662 69.0909ZM281.545 51.3709H275.505V72.6509H281.785V62.7709C281.785 58.6109 284.025 56.4909 287.425 56.5309C287.865 56.5309 288.305 56.5709 288.745 56.6509H288.905V51.1709C288.625 51.0509 288.185 51.0109 287.585 51.0109C284.945 51.0109 283.025 52.2109 281.665 55.1709H281.545V51.3709ZM299.641 73.3309C302.521 73.3309 304.881 72.1309 306.121 69.5309H306.201V72.6509H312.241V42.8909H305.961V49.4109C305.961 51.2109 306.041 53.0109 306.121 54.3309H306.041C304.601 52.1309 302.641 50.7709 299.721 50.7709C294.201 50.7709 290.521 55.4909 290.521 62.0109C290.521 69.0509 294.121 73.3309 299.641 73.3309ZM301.321 68.2909C298.401 68.2909 296.921 65.8109 296.921 61.9709C296.921 58.1709 298.401 55.5309 301.361 55.5309C304.601 55.5309 306.161 58.2509 306.161 62.0109C306.161 65.7309 304.361 68.2909 301.321 68.2909ZM326.644 73.2909C332.124 73.2909 335.604 70.4109 336.684 66.6509H330.604C329.924 67.9709 328.684 68.7309 326.724 68.7309C323.684 68.7309 321.964 66.8109 321.564 63.6109H337.084C337.124 59.4109 336.044 55.8109 333.644 53.4909C331.764 51.7709 329.364 50.7709 326.324 50.7709C319.844 50.7709 315.404 55.6509 315.404 62.0509C315.404 68.4109 319.684 73.2909 326.644 73.2909ZM326.324 55.2109C328.804 55.2109 330.484 57.0109 330.684 59.9709H321.604C322.004 57.0509 323.444 55.2109 326.324 55.2109ZM11.7655 120.651H17.8855V107.331C17.8855 103.571 17.4055 96.6109 17.4055 96.6109H17.4855C17.4855 96.6109 18.7655 102.971 19.8055 106.491L24.0855 120.651H29.6855L33.9255 106.491C34.9655 102.971 36.2455 96.6109 36.2455 96.6109H36.3255C36.3255 96.6109 35.8455 103.571 35.8455 107.331V120.651H42.1255V90.8909H32.8455L29.2055 103.291C28.1255 107.011 27.0055 113.891 27.0055 113.891H26.8855C26.8855 113.891 25.7255 107.011 24.6455 103.291L20.9255 90.8909H11.7655V120.651ZM66.4771 120.651V99.3709H60.2771V111.411C60.2771 114.051 58.7171 115.971 56.1971 115.971C53.9571 115.971 52.7971 114.611 52.7971 112.251V99.3709H46.5171V113.451C46.5171 118.131 49.1571 121.251 53.9971 121.251C56.9171 121.251 58.8371 120.091 60.3971 117.611H60.5171V120.651H66.4771ZM79.4624 121.331C84.9824 121.331 89.0624 118.931 89.0624 114.331C89.0624 108.971 84.7424 107.971 80.9424 107.291C78.0224 106.771 75.7024 106.531 75.7024 104.931C75.7024 103.571 76.9424 102.771 78.8624 102.771C80.8624 102.771 82.0624 103.531 82.4624 105.051H88.3024C87.7424 101.331 84.7824 98.7709 78.8624 98.7709C73.8624 98.7709 69.9024 101.051 69.9024 105.411C69.9024 110.371 73.7424 111.331 77.5424 112.051C80.5024 112.611 83.0224 112.851 83.0224 114.771C83.0224 116.291 81.7424 117.211 79.5024 117.211C77.0624 117.211 75.5424 116.091 75.1824 114.091H69.2624C69.5824 118.371 73.3024 121.331 79.4624 121.331ZM102.425 121.291C107.905 121.291 111.385 118.411 112.465 114.651H106.385C105.705 115.971 104.465 116.731 102.505 116.731C99.4649 116.731 97.7449 114.811 97.3449 111.611H112.865C112.905 107.411 111.825 103.811 109.425 101.491C107.545 99.7709 105.145 98.7709 102.105 98.7709C95.6249 98.7709 91.1849 103.651 91.1849 110.051C91.1849 116.411 95.4649 121.291 102.425 121.291ZM102.105 103.211C104.585 103.211 106.265 105.011 106.465 107.971H97.3849C97.7849 105.051 99.2249 103.211 102.105 103.211ZM135.813 120.651V99.3709H129.613V111.411C129.613 114.051 128.053 115.971 125.533 115.971C123.293 115.971 122.133 114.611 122.133 112.251V99.3709H115.853V113.451C115.853 118.131 118.493 121.251 123.333 121.251C126.253 121.251 128.173 120.091 129.733 117.611H129.853V120.651H135.813ZM139.958 120.651H146.238V108.531C146.238 105.811 147.718 103.931 149.918 103.931C151.998 103.931 153.038 105.331 153.038 107.651V120.651H159.318V108.531C159.318 105.811 160.718 103.931 162.958 103.931C164.998 103.931 166.118 105.331 166.118 107.651V120.651H172.358V106.611C172.358 101.891 169.918 98.7709 165.198 98.7709C162.518 98.7709 160.198 99.9709 158.438 102.811H158.358C157.278 100.171 155.318 98.7709 152.518 98.7709C149.518 98.7709 147.478 100.171 146.118 102.691H145.998V99.3709H139.958V120.651Z" fill="white"/>
<path d="M18.3959 28.3401H13.269L12.3705 30.4299C12.1492 30.9443 12.0385 31.3284 12.0385 31.5823C12.0385 31.7841 12.1329 31.9631 12.3217 32.1194C12.517 32.2691 12.9337 32.3668 13.5717 32.4124V32.7737H9.40179V32.4124C9.95518 32.3147 10.3133 32.1877 10.476 32.0315C10.808 31.719 11.1759 31.0842 11.5795 30.1272L16.2377 19.2288H16.5795L21.1889 30.2444C21.56 31.1298 21.8953 31.706 22.1948 31.9729C22.5008 32.2333 22.9239 32.3798 23.4643 32.4124V32.7737H18.2397V32.4124C18.767 32.3863 19.1218 32.2984 19.3041 32.1487C19.4929 31.9989 19.5873 31.8167 19.5873 31.6018C19.5873 31.3153 19.4571 30.8629 19.1967 30.2444L18.3959 28.3401ZM18.1225 27.6174L15.8764 22.2659L13.5717 27.6174H18.1225ZM32.8491 28.3401H27.7221L26.8237 30.4299C26.6023 30.9443 26.4916 31.3284 26.4916 31.5823C26.4916 31.7841 26.586 31.9631 26.7748 32.1194C26.9702 32.2691 27.3868 32.3668 28.0248 32.4124V32.7737H23.8549V32.4124C24.4083 32.3147 24.7664 32.1877 24.9291 32.0315C25.2612 31.719 25.629 31.0842 26.0327 30.1272L30.6909 19.2288H31.0327L35.642 30.2444C36.0131 31.1298 36.3484 31.706 36.6479 31.9729C36.9539 32.2333 37.3771 32.3798 37.9174 32.4124V32.7737H32.6928V32.4124C33.2202 32.3863 33.575 32.2984 33.7573 32.1487C33.9461 31.9989 34.0405 31.8167 34.0405 31.6018C34.0405 31.3153 33.9103 30.8629 33.6498 30.2444L32.8491 28.3401ZM32.5756 27.6174L30.3295 22.2659L28.0248 27.6174H32.5756ZM44.1674 27.1975C44.1609 28.5256 44.4832 29.5673 45.1342 30.3225C45.7853 31.0777 46.5502 31.4553 47.4291 31.4553C48.0151 31.4553 48.5229 31.2958 48.9526 30.9768C49.3888 30.6513 49.7534 30.0979 50.0463 29.3167L50.3491 29.512C50.2123 30.4039 49.8152 31.2177 49.1577 31.9534C48.5001 32.6825 47.6765 33.0471 46.687 33.0471C45.6127 33.0471 44.6915 32.6305 43.9233 31.7971C43.1616 30.9573 42.7807 29.831 42.7807 28.4182C42.7807 26.8883 43.1713 25.6969 43.9526 24.844C44.7403 23.9846 45.7267 23.5549 46.9116 23.5549C47.9142 23.5549 48.7377 23.887 49.3823 24.551C50.0268 25.2086 50.3491 26.0907 50.3491 27.1975H44.1674ZM44.1674 26.6311H48.308C48.2755 26.0582 48.2071 25.6545 48.103 25.4202C47.9402 25.0556 47.6961 24.7691 47.3705 24.5608C47.0515 24.3525 46.7162 24.2483 46.3647 24.2483C45.8243 24.2483 45.3393 24.4599 44.9096 24.8831C44.4864 25.2997 44.239 25.8824 44.1674 26.6311ZM57.8686 31.7678C57.4324 32.2236 57.006 32.5523 56.5893 32.7542C56.1726 32.9495 55.7234 33.0471 55.2416 33.0471C54.2651 33.0471 53.4122 32.6402 52.683 31.8264C51.9539 31.0061 51.5893 29.9547 51.5893 28.6721C51.5893 27.3896 51.9929 26.2177 52.8002 25.1565C53.6075 24.0888 54.6459 23.5549 55.9155 23.5549C56.7032 23.5549 57.3543 23.8056 57.8686 24.3069V22.6565C57.8686 21.6344 57.8425 21.0061 57.7905 20.7717C57.7449 20.5374 57.67 20.3778 57.5659 20.2932C57.4617 20.2086 57.3315 20.1663 57.1752 20.1663C57.006 20.1663 56.7814 20.2183 56.5014 20.3225L56.3745 19.9807L59.0405 18.887H59.4799V29.2288C59.4799 30.2769 59.5027 30.9182 59.5483 31.1526C59.6004 31.3805 59.6785 31.54 59.7827 31.6311C59.8933 31.7222 60.0203 31.7678 60.1635 31.7678C60.3393 31.7678 60.5737 31.7125 60.8666 31.6018L60.9741 31.9436L58.3178 33.0471H57.8686V31.7678ZM57.8686 31.0842V26.4749C57.8295 26.0321 57.7123 25.6285 57.517 25.2639C57.3217 24.8993 57.0613 24.6259 56.7358 24.4436C56.4168 24.2548 56.1043 24.1604 55.7983 24.1604C55.2254 24.1604 54.7143 24.4176 54.2651 24.9319C53.6726 25.609 53.3764 26.5986 53.3764 27.9006C53.3764 29.2157 53.6629 30.2249 54.2358 30.928C54.8087 31.6246 55.4467 31.9729 56.1498 31.9729C56.7423 31.9729 57.3152 31.6767 57.8686 31.0842ZM63.8256 18.887C64.0991 18.887 64.3302 18.9846 64.519 19.1799C64.7143 19.3687 64.812 19.5999 64.812 19.8733C64.812 20.1467 64.7143 20.3811 64.519 20.5764C64.3302 20.7717 64.0991 20.8694 63.8256 20.8694C63.5522 20.8694 63.3178 20.7717 63.1225 20.5764C62.9272 20.3811 62.8295 20.1467 62.8295 19.8733C62.8295 19.5999 62.9239 19.3687 63.1127 19.1799C63.308 18.9846 63.5457 18.887 63.8256 18.887ZM64.6362 23.5647V30.7522C64.6362 31.3121 64.6752 31.6864 64.7534 31.8752C64.838 32.0575 64.9584 32.1943 65.1147 32.2854C65.2774 32.3765 65.5704 32.4221 65.9936 32.4221V32.7737H61.6479V32.4221C62.0841 32.4221 62.3771 32.3798 62.5268 32.2952C62.6765 32.2105 62.7937 32.0706 62.8784 31.8752C62.9695 31.6799 63.0151 31.3056 63.0151 30.7522V27.3049C63.0151 26.3349 62.9858 25.7066 62.9272 25.4202C62.8816 25.2118 62.81 25.0686 62.7123 24.9905C62.6147 24.9058 62.4812 24.8635 62.312 24.8635C62.1297 24.8635 61.9083 24.9124 61.6479 25.01L61.5112 24.6584L64.2065 23.5647H64.6362ZM69.7143 20.8889V23.8284H71.8041V24.512H69.7143V30.3127C69.7143 30.8922 69.7957 31.2828 69.9584 31.4846C70.1277 31.6864 70.3425 31.7874 70.603 31.7874C70.8178 31.7874 71.0261 31.7222 71.228 31.592C71.4298 31.4553 71.586 31.2568 71.6967 30.9963H72.0776C71.8497 31.6344 71.5274 32.1161 71.1108 32.4417C70.6941 32.7607 70.2644 32.9202 69.8217 32.9202C69.5222 32.9202 69.2293 32.8388 68.9428 32.676C68.6564 32.5068 68.4448 32.2691 68.308 31.9631C68.1713 31.6506 68.103 31.1721 68.103 30.5276V24.512H66.687V24.1897C67.045 24.0465 67.4096 23.8056 67.7807 23.467C68.1583 23.122 68.4936 22.7151 68.7866 22.2463C68.9363 21.9989 69.1446 21.5465 69.4116 20.8889H69.7143ZM77.058 23.5647C78.4122 23.5647 79.4995 24.079 80.3198 25.1077C81.0164 25.9866 81.3647 26.9957 81.3647 28.135C81.3647 28.9358 81.1726 29.7463 80.7885 30.5667C80.4044 31.387 79.8738 32.0055 79.1967 32.4221C78.5261 32.8388 77.7774 33.0471 76.9506 33.0471C75.603 33.0471 74.532 32.51 73.7377 31.4358C73.0672 30.5308 72.7319 29.5152 72.7319 28.3889C72.7319 27.5686 72.9337 26.7548 73.3373 25.9475C73.7475 25.1337 74.2846 24.5347 74.9487 24.1506C75.6127 23.76 76.3159 23.5647 77.058 23.5647ZM76.7553 24.1995C76.4103 24.1995 76.062 24.3036 75.7104 24.512C75.3653 24.7138 75.0854 25.0719 74.8705 25.5862C74.6557 26.1005 74.5483 26.7613 74.5483 27.5686C74.5483 28.8707 74.8054 29.9937 75.3198 30.9377C75.8406 31.8818 76.5242 32.3538 77.3705 32.3538C78.0021 32.3538 78.5229 32.0933 78.933 31.5725C79.3432 31.0517 79.5483 30.1565 79.5483 28.887C79.5483 27.2984 79.2065 26.0484 78.5229 25.137C78.0606 24.512 77.4715 24.1995 76.7553 24.1995ZM85.3002 23.5647V25.5764C86.0489 24.2353 86.8172 23.5647 87.6049 23.5647C87.963 23.5647 88.2592 23.6754 88.4936 23.8967C88.728 24.1116 88.8452 24.3622 88.8452 24.6487C88.8452 24.9026 88.7605 25.1174 88.5912 25.2932C88.422 25.469 88.2202 25.5569 87.9858 25.5569C87.7579 25.5569 87.5008 25.4462 87.2143 25.2249C86.9343 24.997 86.726 24.8831 86.5893 24.8831C86.4721 24.8831 86.3452 24.9482 86.2084 25.0784C85.9155 25.3453 85.6127 25.7847 85.3002 26.3967V30.6838C85.3002 31.1786 85.3621 31.553 85.4858 31.8069C85.5704 31.9827 85.7202 32.1292 85.935 32.2463C86.1498 32.3635 86.4591 32.4221 86.8627 32.4221V32.7737H82.2827V32.4221C82.7384 32.4221 83.0769 32.3505 83.2983 32.2073C83.461 32.1031 83.575 31.9371 83.6401 31.7092C83.6726 31.5986 83.6889 31.2828 83.6889 30.762V27.2952C83.6889 26.2535 83.6661 25.635 83.6205 25.4397C83.5815 25.2379 83.5034 25.0914 83.3862 25.0002C83.2755 24.9091 83.1355 24.8635 82.9662 24.8635C82.7644 24.8635 82.5366 24.9124 82.2827 25.01L82.185 24.6584L84.8901 23.5647H85.3002ZM91.6186 18.887C91.892 18.887 92.1231 18.9846 92.312 19.1799C92.5073 19.3687 92.6049 19.5999 92.6049 19.8733C92.6049 20.1467 92.5073 20.3811 92.312 20.5764C92.1231 20.7717 91.892 20.8694 91.6186 20.8694C91.3452 20.8694 91.1108 20.7717 90.9155 20.5764C90.7202 20.3811 90.6225 20.1467 90.6225 19.8733C90.6225 19.5999 90.7169 19.3687 90.9057 19.1799C91.101 18.9846 91.3386 18.887 91.6186 18.887ZM92.4291 23.5647V30.7522C92.4291 31.3121 92.4682 31.6864 92.5463 31.8752C92.631 32.0575 92.7514 32.1943 92.9077 32.2854C93.0704 32.3765 93.3634 32.4221 93.7866 32.4221V32.7737H89.4409V32.4221C89.8771 32.4221 90.17 32.3798 90.3198 32.2952C90.4695 32.2105 90.5867 32.0706 90.6713 31.8752C90.7625 31.6799 90.808 31.3056 90.808 30.7522V27.3049C90.808 26.3349 90.7787 25.7066 90.7202 25.4202C90.6746 25.2118 90.603 25.0686 90.5053 24.9905C90.4077 24.9058 90.2742 24.8635 90.1049 24.8635C89.9226 24.8635 89.7013 24.9124 89.4409 25.01L89.3041 24.6584L91.9995 23.5647H92.4291ZM99.978 31.4846C99.06 32.1943 98.4838 32.6044 98.2495 32.7151C97.8979 32.8778 97.5235 32.9592 97.1264 32.9592C96.5079 32.9592 95.9968 32.7476 95.5932 32.3245C95.1961 31.9013 94.9975 31.3446 94.9975 30.6545C94.9975 30.2183 95.0952 29.8407 95.2905 29.5217C95.5574 29.079 96.0196 28.6624 96.6772 28.2717C97.3412 27.8811 98.4415 27.4058 99.978 26.8459V26.4944C99.978 25.6025 99.8347 24.9905 99.5483 24.6584C99.2683 24.3264 98.8582 24.1604 98.3178 24.1604C97.9077 24.1604 97.5821 24.2711 97.3412 24.4924C97.0939 24.7138 96.9702 24.9677 96.9702 25.2542L96.9897 25.8206C96.9897 26.12 96.9116 26.3512 96.7553 26.5139C96.6056 26.6767 96.407 26.7581 96.1596 26.7581C95.9187 26.7581 95.7202 26.6734 95.5639 26.5042C95.4142 26.3349 95.3393 26.1038 95.3393 25.8108C95.3393 25.2509 95.6258 24.7366 96.1987 24.2678C96.7716 23.7991 97.5756 23.5647 98.6108 23.5647C99.405 23.5647 100.056 23.6982 100.564 23.9651C100.948 24.1669 101.231 24.4827 101.414 24.9124C101.531 25.1923 101.589 25.7652 101.589 26.6311V29.6682C101.589 30.5211 101.606 31.0452 101.638 31.2405C101.671 31.4293 101.723 31.5562 101.794 31.6213C101.872 31.6864 101.96 31.719 102.058 31.719C102.162 31.719 102.253 31.6962 102.331 31.6506C102.468 31.566 102.732 31.3284 103.122 30.9377V31.4846C102.393 32.4612 101.697 32.9495 101.033 32.9495C100.714 32.9495 100.46 32.8388 100.271 32.6174C100.082 32.3961 99.9845 32.0185 99.978 31.4846ZM99.978 30.8499V27.4417C98.9949 27.8323 98.3601 28.109 98.0737 28.2717C97.5593 28.5582 97.1915 28.8577 96.9702 29.1702C96.7488 29.4827 96.6381 29.8245 96.6381 30.1956C96.6381 30.6643 96.7781 31.0549 97.058 31.3674C97.338 31.6734 97.6603 31.8264 98.0248 31.8264C98.5196 31.8264 99.1707 31.5009 99.978 30.8499ZM106.872 18.887V30.7522C106.872 31.3121 106.912 31.6832 106.99 31.8655C107.074 32.0478 107.201 32.1877 107.371 32.2854C107.54 32.3765 107.856 32.4221 108.318 32.4221V32.7737H103.933V32.4221C104.343 32.4221 104.623 32.3798 104.773 32.2952C104.923 32.2105 105.04 32.0706 105.124 31.8752C105.209 31.6799 105.251 31.3056 105.251 30.7522V22.6272C105.251 21.6181 105.229 20.9996 105.183 20.7717C105.137 20.5374 105.063 20.3778 104.958 20.2932C104.861 20.2086 104.734 20.1663 104.578 20.1663C104.408 20.1663 104.193 20.2183 103.933 20.3225L103.767 19.9807L106.433 18.887H106.872Z" fill="white"/>
</svg>
